M48
; DRILL file {KiCad 8.0.1} date 2025-11-28T14:37:53-0700
; FORMAT={-:-/ absolute / inch / decimal}
; #@! TF.CreationDate,2025-11-28T14:37:53-07:00
; #@! TF.GenerationSoftware,Kicad,Pcbnew,8.0.1
; #@! TF.FileFunction,MixedPlating,1,4
FMAT,2
INCH
; #@! TA.AperFunction,Plated,PTH,ViaDrill
T1C0.0118
; #@! TA.AperFunction,Plated,PTH,ViaDrill
T2C0.0155
; #@! TA.AperFunction,Plated,PTH,ViaDrill
T3C0.0197
; #@! TA.AperFunction,Plated,PTH,ComponentDrill
T4C0.0236
; #@! TA.AperFunction,Plated,PTH,ComponentDrill
T5C0.0354
; #@! TA.AperFunction,Plated,PTH,ComponentDrill
T6C0.0394
; #@! TA.AperFunction,Plated,PTH,ComponentDrill
T7C0.0400
; #@! TA.AperFunction,Plated,PTH,ComponentDrill
T8C0.0402
; #@! TA.AperFunction,Plated,PTH,ComponentDrill
T9C0.0433
; #@! TA.AperFunction,NonPlated,NPTH,ComponentDrill
T10C0.0256
; #@! TA.AperFunction,NonPlated,NPTH,ComponentDrill
T11C0.0630
; #@! TA.AperFunction,NonPlated,NPTH,ComponentDrill
T12C0.0709
; #@! TA.AperFunction,NonPlated,NPTH,ComponentDrill
T13C0.0827
%
G90
G05
T1
X8.433Y-2.6379
X8.4461Y-2.6163
X8.4539Y-2.6525
X8.4678Y-2.6311
T2
X7.9126Y-2.4599
X7.932Y-2.418
X8.462Y-2.75
X8.512Y-2.728
T3
X7.056Y-3.894
X7.2471Y-1.9964
X7.4113Y-3.1113
X7.4667Y-2.0209
X7.604Y-2.456
X7.646Y-2.12
X7.7622Y-1.9172
X7.776Y-2.29
X7.808Y-2.402
X7.848Y-2.1395
X7.878Y-2.048
X7.894Y-2.2175
X7.896Y-1.794
X7.972Y-2.554
X7.974Y-2.266
X8.092Y-2.502
X8.0993Y-3.4493
X8.114Y-1.798
X8.116Y-2.458
X8.168Y-2.208
X8.202Y-2.042
X8.292Y-2.34
X8.362Y-3.04
X8.37Y-2.354
X8.4025Y-1.8543
X8.4285Y-2.1392
X8.454Y-2.498
X8.508Y-2.962
X8.5176Y-2.249
X8.52Y-2.534
X8.52Y-3.016
X8.5363Y-1.9276
X8.608Y-2.376
X8.6247Y-2.6761
X8.672Y-2.266
X8.678Y-2.912
X8.686Y-3.282
X8.722Y-3.038
X8.776Y-2.502
X8.7842Y-2.0581
X8.798Y-2.734
X9.0895Y-2.5795
X9.16Y-2.7118
X9.2107Y-2.4372
X9.3201Y-2.9861
X9.3267Y-3.05
X9.3581Y-3.38
T4
X7.8339Y-1.8104
X7.8339Y-1.9749
X8.1741Y-1.8104
X8.1741Y-1.9749
T5
X8.5627Y-3.6883
X8.6235Y-3.6089
X8.6421Y-3.749
X8.7029Y-3.6696
X8.7823Y-3.7304
T6
X7.7098Y-3.413
X7.8164Y-3.2715
X7.9142Y-3.567
X7.974Y-2.1
X7.974Y-2.2
X8.0208Y-3.4255
X9.0986Y-2.399
X9.1824Y-2.5282
T7
X7.4651Y-1.9142
X7.588Y-1.87
X9.348Y-2.748
X9.38Y-2.8657
X9.436Y-3.3803
X9.4423Y-3.2336
T8
X7.0513Y-3.1853
X7.1307Y-3.246
X7.2101Y-3.3068
X7.2896Y-3.3676
X7.369Y-3.4283
X7.4159Y-2.7088
X7.4484Y-3.4891
X7.4953Y-2.7695
X7.5278Y-3.5499
X7.5748Y-2.8303
X7.6072Y-3.6106
X7.6542Y-2.8911
X7.6866Y-3.6714
X7.7336Y-2.9518
X7.7661Y-3.7322
X7.813Y-3.0126
X7.8455Y-3.7929
X7.8924Y-3.0734
X7.9249Y-3.8537
X7.9718Y-3.1341
X8.0043Y-3.9145
X8.0513Y-3.1949
X8.0837Y-3.9753
X8.1307Y-3.2557
X8.1631Y-4.036
X8.2101Y-3.3164
X8.2895Y-3.3772
X8.3689Y-3.438
X8.5278Y-3.5595
T9
X8.4483Y-3.4988
T10
X7.8902Y-1.9552
X8.1178Y-1.9552
T11
X8.6654Y-1.9933
T12
X8.5818Y-2.1496
T13
X6.726Y-3.86
X6.922Y-2.36
X7.982Y-4.704
X9.278Y-3.888
M30
