%TF.GenerationSoftware,KiCad,Pcbnew,8.0.1*%
%TF.CreationDate,2025-11-28T14:34:22-07:00*%
%TF.ProjectId,F-UVC-Solar-WB_RevA1.1_PCB,462d5556-432d-4536-9f6c-61722d57425f,rev?*%
%TF.SameCoordinates,Original*%
%TF.FileFunction,Legend,Bot*%
%TF.FilePolarity,Positive*%
%FSLAX46Y46*%
G04 Gerber Fmt 4.6, Leading zero omitted, Abs format (unit mm)*
G04 Created by KiCad (PCBNEW 8.0.1) date 2025-11-28 14:34:22*
%MOMM*%
%LPD*%
G01*
G04 APERTURE LIST*
%ADD10C,0.101600*%
%ADD11C,0.054864*%
%ADD12C,0.150000*%
%ADD13C,0.160020*%
%ADD14C,0.203200*%
%ADD15C,0.304800*%
%ADD16C,0.127000*%
%ADD17C,0.152400*%
G04 APERTURE END LIST*
D10*
X194129397Y-104725135D02*
X194848736Y-103804423D01*
X194848736Y-103804423D02*
X193603276Y-104314084D01*
X193603276Y-104314084D02*
X194322615Y-103393372D01*
X193033311Y-103868779D02*
X193155252Y-103893444D01*
X193155252Y-103893444D02*
X193233350Y-103883855D01*
X193233350Y-103883855D02*
X193345702Y-103830422D01*
X193345702Y-103830422D02*
X193551227Y-103567362D01*
X193551227Y-103567362D02*
X193575892Y-103445421D01*
X193575892Y-103445421D02*
X193566303Y-103367323D01*
X193566303Y-103367323D02*
X193512871Y-103254971D01*
X193512871Y-103254971D02*
X193381340Y-103152209D01*
X193381340Y-103152209D02*
X193259399Y-103127544D01*
X193259399Y-103127544D02*
X193181302Y-103137133D01*
X193181302Y-103137133D02*
X193068950Y-103190565D01*
X193068950Y-103190565D02*
X192863424Y-103453626D01*
X192863424Y-103453626D02*
X192838759Y-103575567D01*
X192838759Y-103575567D02*
X192848349Y-103653665D01*
X192848349Y-103653665D02*
X192901781Y-103766016D01*
X192901781Y-103766016D02*
X193033311Y-103868779D01*
X192899063Y-102775412D02*
X192200286Y-103217949D01*
X192200286Y-103217949D02*
X192460628Y-102432870D01*
X191313828Y-102454766D02*
X191367261Y-102567118D01*
X191367261Y-102567118D02*
X191542635Y-102704135D01*
X191542635Y-102704135D02*
X191664576Y-102728800D01*
X191664576Y-102728800D02*
X191776928Y-102675367D01*
X191776928Y-102675367D02*
X192050961Y-102324620D01*
X192050961Y-102324620D02*
X192075627Y-102202679D01*
X192075627Y-102202679D02*
X192022194Y-102090327D01*
X192022194Y-102090327D02*
X191846820Y-101953310D01*
X191846820Y-101953310D02*
X191724879Y-101928645D01*
X191724879Y-101928645D02*
X191612527Y-101982078D01*
X191612527Y-101982078D02*
X191544019Y-102069764D01*
X191544019Y-102069764D02*
X191913945Y-102499994D01*
X190841140Y-102156067D02*
X191320699Y-101542259D01*
X191252191Y-101629946D02*
X191242601Y-101551848D01*
X191242601Y-101551848D02*
X191189169Y-101439496D01*
X191189169Y-101439496D02*
X191057638Y-101336734D01*
X191057638Y-101336734D02*
X190935697Y-101312069D01*
X190935697Y-101312069D02*
X190823346Y-101365501D01*
X190823346Y-101365501D02*
X190446549Y-101847779D01*
X190823346Y-101365501D02*
X190848011Y-101243560D01*
X190848011Y-101243560D02*
X190794578Y-101131208D01*
X190794578Y-101131208D02*
X190663048Y-101028446D01*
X190663048Y-101028446D02*
X190541107Y-101003781D01*
X190541107Y-101003781D02*
X190428755Y-101057213D01*
X190428755Y-101057213D02*
X190051958Y-101539491D01*
X189613524Y-101196948D02*
X190332863Y-100276236D01*
X190058829Y-100626984D02*
X190005396Y-100514632D01*
X190005396Y-100514632D02*
X189830023Y-100377615D01*
X189830023Y-100377615D02*
X189708081Y-100352950D01*
X189708081Y-100352950D02*
X189629984Y-100362539D01*
X189629984Y-100362539D02*
X189517632Y-100415972D01*
X189517632Y-100415972D02*
X189312107Y-100679032D01*
X189312107Y-100679032D02*
X189287442Y-100800973D01*
X189287442Y-100800973D02*
X189297031Y-100879071D01*
X189297031Y-100879071D02*
X189350463Y-100991423D01*
X189350463Y-100991423D02*
X189525837Y-101128440D01*
X189525837Y-101128440D02*
X189647778Y-101153105D01*
X188464006Y-100228240D02*
X188517438Y-100340592D01*
X188517438Y-100340592D02*
X188692812Y-100477609D01*
X188692812Y-100477609D02*
X188814753Y-100502274D01*
X188814753Y-100502274D02*
X188927105Y-100448842D01*
X188927105Y-100448842D02*
X189201139Y-100098094D01*
X189201139Y-100098094D02*
X189225804Y-99976153D01*
X189225804Y-99976153D02*
X189172371Y-99863801D01*
X189172371Y-99863801D02*
X188996997Y-99726785D01*
X188996997Y-99726785D02*
X188875056Y-99702119D01*
X188875056Y-99702119D02*
X188762705Y-99755552D01*
X188762705Y-99755552D02*
X188694196Y-99843239D01*
X188694196Y-99843239D02*
X189064122Y-100273468D01*
X187991317Y-99929541D02*
X188470876Y-99315734D01*
X188333859Y-99491107D02*
X188358524Y-99369166D01*
X188358524Y-99369166D02*
X188348935Y-99291068D01*
X188348935Y-99291068D02*
X188295503Y-99178717D01*
X188295503Y-99178717D02*
X188207816Y-99110208D01*
X187414532Y-98137398D02*
X187404942Y-98059300D01*
X187404942Y-98059300D02*
X187351510Y-97946948D01*
X187351510Y-97946948D02*
X187132293Y-97775677D01*
X187132293Y-97775677D02*
X187010352Y-97751012D01*
X187010352Y-97751012D02*
X186932254Y-97760601D01*
X186932254Y-97760601D02*
X186819902Y-97814034D01*
X186819902Y-97814034D02*
X186751394Y-97901721D01*
X186751394Y-97901721D02*
X186692474Y-98067505D01*
X186692474Y-98067505D02*
X186807545Y-99004677D01*
X186807545Y-99004677D02*
X186237580Y-98559372D01*
X186386954Y-97193355D02*
X186299268Y-97124847D01*
X186299268Y-97124847D02*
X186177327Y-97100182D01*
X186177327Y-97100182D02*
X186099229Y-97109771D01*
X186099229Y-97109771D02*
X185986877Y-97163203D01*
X185986877Y-97163203D02*
X185806017Y-97304323D01*
X185806017Y-97304323D02*
X185634746Y-97523540D01*
X185634746Y-97523540D02*
X185541572Y-97733168D01*
X185541572Y-97733168D02*
X185516907Y-97855109D01*
X185516907Y-97855109D02*
X185526496Y-97933207D01*
X185526496Y-97933207D02*
X185579929Y-98045558D01*
X185579929Y-98045558D02*
X185667616Y-98114067D01*
X185667616Y-98114067D02*
X185789557Y-98138732D01*
X185789557Y-98138732D02*
X185867654Y-98129143D01*
X185867654Y-98129143D02*
X185980006Y-98075710D01*
X185980006Y-98075710D02*
X186160867Y-97934591D01*
X186160867Y-97934591D02*
X186332138Y-97715374D01*
X186332138Y-97715374D02*
X186425311Y-97505746D01*
X186425311Y-97505746D02*
X186449976Y-97383805D01*
X186449976Y-97383805D02*
X186440387Y-97305707D01*
X186440387Y-97305707D02*
X186386954Y-97193355D01*
X185660795Y-96767228D02*
X185651205Y-96689131D01*
X185651205Y-96689131D02*
X185597773Y-96576779D01*
X185597773Y-96576779D02*
X185378556Y-96405508D01*
X185378556Y-96405508D02*
X185256615Y-96380843D01*
X185256615Y-96380843D02*
X185178517Y-96390432D01*
X185178517Y-96390432D02*
X185066165Y-96443864D01*
X185066165Y-96443864D02*
X184997657Y-96531551D01*
X184997657Y-96531551D02*
X184938737Y-96697336D01*
X184938737Y-96697336D02*
X185053808Y-97634508D01*
X185053808Y-97634508D02*
X184483843Y-97189203D01*
X184370157Y-95617660D02*
X184808591Y-95960203D01*
X184808591Y-95960203D02*
X184509892Y-96432891D01*
X184509892Y-96432891D02*
X184500303Y-96354793D01*
X184500303Y-96354793D02*
X184446871Y-96242442D01*
X184446871Y-96242442D02*
X184227654Y-96071170D01*
X184227654Y-96071170D02*
X184105712Y-96046505D01*
X184105712Y-96046505D02*
X184027615Y-96056095D01*
X184027615Y-96056095D02*
X183915263Y-96109527D01*
X183915263Y-96109527D02*
X183743992Y-96328744D01*
X183743992Y-96328744D02*
X183719327Y-96450685D01*
X183719327Y-96450685D02*
X183728916Y-96528783D01*
X183728916Y-96528783D02*
X183782349Y-96641135D01*
X183782349Y-96641135D02*
X184001566Y-96812406D01*
X184001566Y-96812406D02*
X184123507Y-96837071D01*
X184123507Y-96837071D02*
X184201604Y-96827482D01*
X200921662Y-106722434D02*
X200483227Y-106379891D01*
X200803823Y-107054003D02*
X201216258Y-105893511D01*
X201216258Y-105893511D02*
X200190015Y-106574443D01*
X199951619Y-106246977D02*
X199873522Y-106256566D01*
X199873522Y-106256566D02*
X199883111Y-106334664D01*
X199883111Y-106334664D02*
X199961209Y-106325074D01*
X199961209Y-106325074D02*
X199951619Y-106246977D01*
X199951619Y-106246977D02*
X199883111Y-106334664D01*
X198743182Y-105444053D02*
X199462521Y-104523341D01*
X199462521Y-104523341D02*
X198641803Y-104941213D01*
X198641803Y-104941213D02*
X198848713Y-104043782D01*
X198848713Y-104043782D02*
X198129374Y-104964494D01*
X197296349Y-104313664D02*
X197673146Y-103831386D01*
X197673146Y-103831386D02*
X197785498Y-103777954D01*
X197785498Y-103777954D02*
X197907439Y-103802619D01*
X197907439Y-103802619D02*
X198082812Y-103939635D01*
X198082812Y-103939635D02*
X198136245Y-104051987D01*
X197330603Y-104269820D02*
X197384036Y-104382172D01*
X197384036Y-104382172D02*
X197603253Y-104553443D01*
X197603253Y-104553443D02*
X197725194Y-104578108D01*
X197725194Y-104578108D02*
X197837546Y-104524676D01*
X197837546Y-104524676D02*
X197906055Y-104436989D01*
X197906055Y-104436989D02*
X197930720Y-104315048D01*
X197930720Y-104315048D02*
X197877287Y-104202696D01*
X197877287Y-104202696D02*
X197658070Y-104031425D01*
X197658070Y-104031425D02*
X197604637Y-103919073D01*
X196942883Y-103049025D02*
X196360561Y-103794363D01*
X196360561Y-103794363D02*
X196335896Y-103916304D01*
X196335896Y-103916304D02*
X196345486Y-103994402D01*
X196345486Y-103994402D02*
X196398918Y-104106754D01*
X196398918Y-104106754D02*
X196530448Y-104209517D01*
X196530448Y-104209517D02*
X196652389Y-104234182D01*
X196497578Y-103618990D02*
X196551011Y-103731342D01*
X196551011Y-103731342D02*
X196726385Y-103868359D01*
X196726385Y-103868359D02*
X196848326Y-103893024D01*
X196848326Y-103893024D02*
X196926423Y-103883434D01*
X196926423Y-103883434D02*
X197038775Y-103830002D01*
X197038775Y-103830002D02*
X197244301Y-103566941D01*
X197244301Y-103566941D02*
X197268966Y-103445000D01*
X197268966Y-103445000D02*
X197259376Y-103366903D01*
X197259376Y-103366903D02*
X197205944Y-103254551D01*
X197205944Y-103254551D02*
X197030570Y-103117534D01*
X197030570Y-103117534D02*
X196908629Y-103092869D01*
X195630299Y-103012003D02*
X196007096Y-102529725D01*
X196007096Y-102529725D02*
X196119447Y-102476292D01*
X196119447Y-102476292D02*
X196241389Y-102500958D01*
X196241389Y-102500958D02*
X196416762Y-102637974D01*
X196416762Y-102637974D02*
X196470195Y-102750326D01*
X195664553Y-102968159D02*
X195717986Y-103080511D01*
X195717986Y-103080511D02*
X195937203Y-103251782D01*
X195937203Y-103251782D02*
X196059144Y-103276447D01*
X196059144Y-103276447D02*
X196171496Y-103223015D01*
X196171496Y-103223015D02*
X196240004Y-103135328D01*
X196240004Y-103135328D02*
X196264669Y-103013387D01*
X196264669Y-103013387D02*
X196211237Y-102901035D01*
X196211237Y-102901035D02*
X195992020Y-102729764D01*
X195992020Y-102729764D02*
X195938587Y-102617412D01*
X195671424Y-102055652D02*
X195191865Y-102669460D01*
X195602915Y-102143339D02*
X195593326Y-102065242D01*
X195593326Y-102065242D02*
X195539894Y-101952890D01*
X195539894Y-101952890D02*
X195408363Y-101850127D01*
X195408363Y-101850127D02*
X195286422Y-101825462D01*
X195286422Y-101825462D02*
X195174070Y-101878895D01*
X195174070Y-101878895D02*
X194797274Y-102361172D01*
X193964249Y-101710342D02*
X194341045Y-101228064D01*
X194341045Y-101228064D02*
X194453397Y-101174631D01*
X194453397Y-101174631D02*
X194575338Y-101199296D01*
X194575338Y-101199296D02*
X194750712Y-101336313D01*
X194750712Y-101336313D02*
X194804145Y-101448665D01*
X193998503Y-101666498D02*
X194051936Y-101778850D01*
X194051936Y-101778850D02*
X194271153Y-101950121D01*
X194271153Y-101950121D02*
X194393094Y-101974786D01*
X194393094Y-101974786D02*
X194505446Y-101921354D01*
X194505446Y-101921354D02*
X194573954Y-101833667D01*
X194573954Y-101833667D02*
X194598619Y-101711726D01*
X194598619Y-101711726D02*
X194545187Y-101599374D01*
X194545187Y-101599374D02*
X194325970Y-101428103D01*
X194325970Y-101428103D02*
X194272537Y-101315751D01*
X193516225Y-101289702D02*
X193481971Y-101333545D01*
X193481971Y-101333545D02*
X193457306Y-101455486D01*
X193457306Y-101455486D02*
X193466895Y-101533584D01*
X192635254Y-100248383D02*
X192196820Y-99905840D01*
X192517416Y-100579952D02*
X192929850Y-99419460D01*
X192929850Y-99419460D02*
X191903608Y-100100392D01*
X191665212Y-99772926D02*
X191587114Y-99782515D01*
X191587114Y-99782515D02*
X191596704Y-99860612D01*
X191596704Y-99860612D02*
X191674801Y-99851023D01*
X191674801Y-99851023D02*
X191665212Y-99772926D01*
X191665212Y-99772926D02*
X191596704Y-99860612D01*
X191000739Y-97912273D02*
X190825366Y-97775257D01*
X190825366Y-97775257D02*
X190703425Y-97750591D01*
X190703425Y-97750591D02*
X190547229Y-97769770D01*
X190547229Y-97769770D02*
X190366369Y-97910889D01*
X190366369Y-97910889D02*
X190126589Y-98217793D01*
X190126589Y-98217793D02*
X190033416Y-98427421D01*
X190033416Y-98427421D02*
X190052594Y-98583616D01*
X190052594Y-98583616D02*
X190106027Y-98695968D01*
X190106027Y-98695968D02*
X190281401Y-98832985D01*
X190281401Y-98832985D02*
X190403342Y-98857650D01*
X190403342Y-98857650D02*
X190559537Y-98838472D01*
X190559537Y-98838472D02*
X190740397Y-98697352D01*
X190740397Y-98697352D02*
X190980177Y-98390449D01*
X190980177Y-98390449D02*
X191073350Y-98180821D01*
X191073350Y-98180821D02*
X191054172Y-98024625D01*
X191054172Y-98024625D02*
X191000739Y-97912273D01*
X189492219Y-98216409D02*
X189971778Y-97602601D01*
X189834761Y-97777975D02*
X189859427Y-97656034D01*
X189859427Y-97656034D02*
X189849837Y-97577936D01*
X189849837Y-97577936D02*
X189796405Y-97465584D01*
X189796405Y-97465584D02*
X189708718Y-97397076D01*
X189533344Y-97260059D02*
X189182597Y-96986025D01*
X189641594Y-96850392D02*
X189025018Y-97639574D01*
X189025018Y-97639574D02*
X188912666Y-97693007D01*
X188912666Y-97693007D02*
X188790725Y-97668342D01*
X188790725Y-97668342D02*
X188703038Y-97599833D01*
X188396134Y-97360054D02*
X188875693Y-96746246D01*
X189115473Y-96439342D02*
X189125062Y-96517439D01*
X189125062Y-96517439D02*
X189046964Y-96527029D01*
X189046964Y-96527029D02*
X189037375Y-96448931D01*
X189037375Y-96448931D02*
X189115473Y-96439342D01*
X189115473Y-96439342D02*
X189046964Y-96527029D01*
X188524946Y-96472212D02*
X188042668Y-96095415D01*
X188042668Y-96095415D02*
X188045387Y-97086020D01*
X188045387Y-97086020D02*
X187563109Y-96709223D01*
X187202772Y-96357091D02*
X187168518Y-96400935D01*
X187168518Y-96400935D02*
X187143853Y-96522876D01*
X187143853Y-96522876D02*
X187153442Y-96600973D01*
X185614820Y-95045841D02*
X185624409Y-95123939D01*
X185624409Y-95123939D02*
X185721685Y-95270545D01*
X185721685Y-95270545D02*
X185809372Y-95339053D01*
X185809372Y-95339053D02*
X185975156Y-95397973D01*
X185975156Y-95397973D02*
X186131351Y-95378794D01*
X186131351Y-95378794D02*
X186243703Y-95325362D01*
X186243703Y-95325362D02*
X186424564Y-95184242D01*
X186424564Y-95184242D02*
X186527326Y-95052712D01*
X186527326Y-95052712D02*
X186620500Y-94843084D01*
X186620500Y-94843084D02*
X186645165Y-94721143D01*
X186645165Y-94721143D02*
X186625987Y-94564948D01*
X186625987Y-94564948D02*
X186528711Y-94418341D01*
X186528711Y-94418341D02*
X186441024Y-94349833D01*
X186441024Y-94349833D02*
X186275239Y-94290914D01*
X186275239Y-94290914D02*
X186197142Y-94300503D01*
X185220229Y-94737553D02*
X185142131Y-94747142D01*
X185142131Y-94747142D02*
X185151720Y-94825240D01*
X185151720Y-94825240D02*
X185229818Y-94815651D01*
X185229818Y-94815651D02*
X185220229Y-94737553D01*
X185220229Y-94737553D02*
X185151720Y-94825240D01*
X184261160Y-93705823D02*
X183822726Y-93363281D01*
X184143321Y-94037392D02*
X184555756Y-92876901D01*
X184555756Y-92876901D02*
X183529514Y-93557833D01*
X183091079Y-93215290D02*
X183213020Y-93239955D01*
X183213020Y-93239955D02*
X183325372Y-93186523D01*
X183325372Y-93186523D02*
X183941948Y-92397341D01*
X182608802Y-92838494D02*
X182730743Y-92863159D01*
X182730743Y-92863159D02*
X182843095Y-92809726D01*
X182843095Y-92809726D02*
X183459671Y-92020545D01*
X181941561Y-92246583D02*
X181994994Y-92358935D01*
X181994994Y-92358935D02*
X182170367Y-92495952D01*
X182170367Y-92495952D02*
X182292309Y-92520617D01*
X182292309Y-92520617D02*
X182404660Y-92467184D01*
X182404660Y-92467184D02*
X182678694Y-92116437D01*
X182678694Y-92116437D02*
X182703359Y-91994496D01*
X182703359Y-91994496D02*
X182649927Y-91882144D01*
X182649927Y-91882144D02*
X182474553Y-91745127D01*
X182474553Y-91745127D02*
X182352612Y-91720462D01*
X182352612Y-91720462D02*
X182240260Y-91773894D01*
X182240260Y-91773894D02*
X182171752Y-91861581D01*
X182171752Y-91861581D02*
X182541677Y-92291810D01*
X181948432Y-91334076D02*
X181468873Y-91947884D01*
X181879923Y-91421763D02*
X181870334Y-91343665D01*
X181870334Y-91343665D02*
X181816902Y-91231313D01*
X181816902Y-91231313D02*
X181685371Y-91128550D01*
X181685371Y-91128550D02*
X181563430Y-91103885D01*
X181563430Y-91103885D02*
X181451078Y-91157318D01*
X181451078Y-91157318D02*
X181074282Y-91639596D01*
X200295289Y-102987078D02*
X200602193Y-103226857D01*
X200225397Y-103709135D02*
X200944736Y-102788423D01*
X200944736Y-102788423D02*
X200506301Y-102445881D01*
X199710249Y-102741811D02*
X199008754Y-102193743D01*
X199015625Y-101281237D02*
X198433303Y-102026575D01*
X198433303Y-102026575D02*
X198320952Y-102080008D01*
X198320952Y-102080008D02*
X198242854Y-102089597D01*
X198242854Y-102089597D02*
X198120913Y-102064932D01*
X198120913Y-102064932D02*
X197945539Y-101927915D01*
X197945539Y-101927915D02*
X197892107Y-101815563D01*
X197892107Y-101815563D02*
X197882517Y-101737465D01*
X197882517Y-101737465D02*
X197907182Y-101615524D01*
X197907182Y-101615524D02*
X198489504Y-100870186D01*
X198182601Y-100630407D02*
X197156358Y-101311339D01*
X197156358Y-101311339D02*
X197568793Y-100150847D01*
X196084937Y-100333042D02*
X196094526Y-100411139D01*
X196094526Y-100411139D02*
X196191802Y-100557746D01*
X196191802Y-100557746D02*
X196279489Y-100626254D01*
X196279489Y-100626254D02*
X196445274Y-100685173D01*
X196445274Y-100685173D02*
X196601469Y-100665995D01*
X196601469Y-100665995D02*
X196713821Y-100612562D01*
X196713821Y-100612562D02*
X196894681Y-100471443D01*
X196894681Y-100471443D02*
X196997444Y-100339913D01*
X196997444Y-100339913D02*
X197090617Y-100130285D01*
X197090617Y-100130285D02*
X197115282Y-100008344D01*
X197115282Y-100008344D02*
X197096104Y-99852148D01*
X197096104Y-99852148D02*
X196998828Y-99705542D01*
X196998828Y-99705542D02*
X196911141Y-99637034D01*
X196911141Y-99637034D02*
X196745357Y-99578114D01*
X196745357Y-99578114D02*
X196667259Y-99587704D01*
X195895872Y-99761693D02*
X195194377Y-99213625D01*
X194560007Y-99212242D02*
X194394223Y-99153322D01*
X194394223Y-99153322D02*
X194175006Y-98982051D01*
X194175006Y-98982051D02*
X194121573Y-98869699D01*
X194121573Y-98869699D02*
X194111984Y-98791602D01*
X194111984Y-98791602D02*
X194136649Y-98669661D01*
X194136649Y-98669661D02*
X194205157Y-98581974D01*
X194205157Y-98581974D02*
X194317509Y-98528541D01*
X194317509Y-98528541D02*
X194395607Y-98518952D01*
X194395607Y-98518952D02*
X194517548Y-98543617D01*
X194517548Y-98543617D02*
X194727176Y-98636791D01*
X194727176Y-98636791D02*
X194849117Y-98661456D01*
X194849117Y-98661456D02*
X194927214Y-98651866D01*
X194927214Y-98651866D02*
X195039566Y-98598434D01*
X195039566Y-98598434D02*
X195108075Y-98510747D01*
X195108075Y-98510747D02*
X195132740Y-98388806D01*
X195132740Y-98388806D02*
X195123151Y-98310708D01*
X195123151Y-98310708D02*
X195069718Y-98198356D01*
X195069718Y-98198356D02*
X194850501Y-98027085D01*
X194850501Y-98027085D02*
X194684716Y-97968166D01*
X193710572Y-97136475D02*
X192772016Y-97885915D01*
X192772016Y-97885915D02*
X193110456Y-97091247D01*
X193110456Y-97091247D02*
X192421268Y-97611882D01*
X192421268Y-97611882D02*
X192921390Y-96519899D01*
X191921197Y-96444519D02*
X191755412Y-96385600D01*
X191755412Y-96385600D02*
X191677315Y-96395189D01*
X191677315Y-96395189D02*
X191564963Y-96448622D01*
X191564963Y-96448622D02*
X191462200Y-96580152D01*
X191462200Y-96580152D02*
X191437535Y-96702093D01*
X191437535Y-96702093D02*
X191447124Y-96780191D01*
X191447124Y-96780191D02*
X191500557Y-96892543D01*
X191500557Y-96892543D02*
X191851304Y-97166577D01*
X191851304Y-97166577D02*
X192570643Y-96245865D01*
X192570643Y-96245865D02*
X192263739Y-96006085D01*
X192263739Y-96006085D02*
X192141798Y-95981420D01*
X192141798Y-95981420D02*
X192063700Y-95991009D01*
X192063700Y-95991009D02*
X191951349Y-96044442D01*
X191951349Y-96044442D02*
X191882840Y-96132129D01*
X191882840Y-96132129D02*
X191858175Y-96254070D01*
X191858175Y-96254070D02*
X191867764Y-96332168D01*
X191867764Y-96332168D02*
X191921197Y-96444519D01*
X191921197Y-96444519D02*
X192228101Y-96684299D01*
X189702976Y-95488119D02*
X190352423Y-95289465D01*
X190229097Y-95899170D02*
X190948436Y-94978458D01*
X190948436Y-94978458D02*
X190597689Y-94704424D01*
X190597689Y-94704424D02*
X190475748Y-94679759D01*
X190475748Y-94679759D02*
X190397650Y-94689348D01*
X190397650Y-94689348D02*
X190285298Y-94742781D01*
X190285298Y-94742781D02*
X190182536Y-94874311D01*
X190182536Y-94874311D02*
X190157871Y-94996252D01*
X190157871Y-94996252D02*
X190167460Y-95074350D01*
X190167460Y-95074350D02*
X190220892Y-95186702D01*
X190220892Y-95186702D02*
X190571640Y-95460736D01*
X188991892Y-94861954D02*
X189045325Y-94974306D01*
X189045325Y-94974306D02*
X189220699Y-95111323D01*
X189220699Y-95111323D02*
X189342640Y-95135988D01*
X189342640Y-95135988D02*
X189454992Y-95082555D01*
X189454992Y-95082555D02*
X189729026Y-94731808D01*
X189729026Y-94731808D02*
X189753691Y-94609867D01*
X189753691Y-94609867D02*
X189700258Y-94497515D01*
X189700258Y-94497515D02*
X189524884Y-94360498D01*
X189524884Y-94360498D02*
X189402943Y-94335833D01*
X189402943Y-94335833D02*
X189290591Y-94389265D01*
X189290591Y-94389265D02*
X189222083Y-94476952D01*
X189222083Y-94476952D02*
X189592009Y-94907181D01*
X189086450Y-94017955D02*
X188387674Y-94460492D01*
X188387674Y-94460492D02*
X188648016Y-93675413D01*
X188067078Y-93786380D02*
X187628643Y-93443838D01*
X187949239Y-94117949D02*
X188361674Y-92957458D01*
X188361674Y-92957458D02*
X187335431Y-93638390D01*
X187177901Y-92032593D02*
X186151658Y-92713525D01*
X186151658Y-92713525D02*
X186564093Y-91553034D01*
X185055573Y-91857169D02*
X185581694Y-92268220D01*
X185318633Y-92062695D02*
X186037972Y-91141983D01*
X186037972Y-91141983D02*
X186022896Y-91342022D01*
X186022896Y-91342022D02*
X186042075Y-91498217D01*
X186042075Y-91498217D02*
X186095507Y-91610569D01*
X184729490Y-91461194D02*
X184651393Y-91470784D01*
X184651393Y-91470784D02*
X184660982Y-91548881D01*
X184660982Y-91548881D02*
X184739079Y-91539292D01*
X184739079Y-91539292D02*
X184729490Y-91461194D01*
X184729490Y-91461194D02*
X184660982Y-91548881D01*
X183740270Y-90829542D02*
X184266391Y-91240593D01*
X184003331Y-91035068D02*
X184722669Y-90114356D01*
X184722669Y-90114356D02*
X184707594Y-90314395D01*
X184707594Y-90314395D02*
X184726772Y-90470590D01*
X184726772Y-90470590D02*
X184780205Y-90582942D01*
D11*
X200933942Y-55235374D02*
X201488678Y-55235374D01*
X201488678Y-55235374D02*
X201488678Y-55367454D01*
X201488678Y-55367454D02*
X201462262Y-55446702D01*
X201462262Y-55446702D02*
X201409430Y-55499534D01*
X201409430Y-55499534D02*
X201356598Y-55525950D01*
X201356598Y-55525950D02*
X201250934Y-55552366D01*
X201250934Y-55552366D02*
X201171686Y-55552366D01*
X201171686Y-55552366D02*
X201066022Y-55525950D01*
X201066022Y-55525950D02*
X201013190Y-55499534D01*
X201013190Y-55499534D02*
X200960358Y-55446702D01*
X200960358Y-55446702D02*
X200933942Y-55367454D01*
X200933942Y-55367454D02*
X200933942Y-55235374D01*
X201145270Y-55790110D02*
X201145270Y-56212766D01*
X200883142Y-52847774D02*
X201437878Y-52847774D01*
X201437878Y-52847774D02*
X201437878Y-52979854D01*
X201437878Y-52979854D02*
X201411462Y-53059102D01*
X201411462Y-53059102D02*
X201358630Y-53111934D01*
X201358630Y-53111934D02*
X201305798Y-53138350D01*
X201305798Y-53138350D02*
X201200134Y-53164766D01*
X201200134Y-53164766D02*
X201120886Y-53164766D01*
X201120886Y-53164766D02*
X201015222Y-53138350D01*
X201015222Y-53138350D02*
X200962390Y-53111934D01*
X200962390Y-53111934D02*
X200909558Y-53059102D01*
X200909558Y-53059102D02*
X200883142Y-52979854D01*
X200883142Y-52979854D02*
X200883142Y-52847774D01*
X201094470Y-53402510D02*
X201094470Y-53825166D01*
X200883142Y-53613838D02*
X201305798Y-53613838D01*
X202809478Y-51025070D02*
X202413238Y-51025070D01*
X202413238Y-51025070D02*
X202333990Y-50998654D01*
X202333990Y-50998654D02*
X202281158Y-50945822D01*
X202281158Y-50945822D02*
X202254742Y-50866574D01*
X202254742Y-50866574D02*
X202254742Y-50813742D01*
X202254742Y-51289230D02*
X202809478Y-51289230D01*
X202809478Y-51289230D02*
X202809478Y-51500558D01*
X202809478Y-51500558D02*
X202783062Y-51553390D01*
X202783062Y-51553390D02*
X202756646Y-51579806D01*
X202756646Y-51579806D02*
X202703814Y-51606222D01*
X202703814Y-51606222D02*
X202624566Y-51606222D01*
X202624566Y-51606222D02*
X202571734Y-51579806D01*
X202571734Y-51579806D02*
X202545318Y-51553390D01*
X202545318Y-51553390D02*
X202518902Y-51500558D01*
X202518902Y-51500558D02*
X202518902Y-51289230D01*
X202254742Y-52134542D02*
X202254742Y-51817550D01*
X202254742Y-51976046D02*
X202809478Y-51976046D01*
X202809478Y-51976046D02*
X202730230Y-51923214D01*
X202730230Y-51923214D02*
X202677398Y-51870382D01*
X202677398Y-51870382D02*
X202650982Y-51817550D01*
X204942441Y-58951353D02*
X204831058Y-58648753D01*
X205123352Y-58691055D02*
X204667831Y-58374460D01*
X204667831Y-58374460D02*
X204547223Y-58547991D01*
X204547223Y-58547991D02*
X204538763Y-58606450D01*
X204538763Y-58606450D02*
X204545378Y-58643218D01*
X204545378Y-58643218D02*
X204573685Y-58695061D01*
X204573685Y-58695061D02*
X204638760Y-58740289D01*
X204638760Y-58740289D02*
X204697219Y-58748750D01*
X204697219Y-58748750D02*
X204733986Y-58742134D01*
X204733986Y-58742134D02*
X204785830Y-58713827D01*
X204785830Y-58713827D02*
X204906437Y-58540295D01*
X204640921Y-59385182D02*
X204821833Y-59124884D01*
X204731377Y-59255033D02*
X204275856Y-58938438D01*
X204275856Y-58938438D02*
X204371082Y-58940283D01*
X204371082Y-58940283D02*
X204444617Y-58927052D01*
X204444617Y-58927052D02*
X204496461Y-58898745D01*
X204108175Y-59272271D02*
X204071408Y-59278886D01*
X204071408Y-59278886D02*
X204019564Y-59307193D01*
X204019564Y-59307193D02*
X203944185Y-59415651D01*
X203944185Y-59415651D02*
X203935724Y-59474109D01*
X203935724Y-59474109D02*
X203942340Y-59510877D01*
X203942340Y-59510877D02*
X203970647Y-59562720D01*
X203970647Y-59562720D02*
X204014030Y-59592872D01*
X204014030Y-59592872D02*
X204094180Y-59616409D01*
X204094180Y-59616409D02*
X204535389Y-59537023D01*
X204535389Y-59537023D02*
X204339402Y-59819012D01*
X210807813Y-60236646D02*
X211107498Y-60117641D01*
X211072606Y-60410913D02*
X211377573Y-59947526D01*
X211377573Y-59947526D02*
X211201045Y-59831348D01*
X211201045Y-59831348D02*
X211142390Y-59824370D01*
X211142390Y-59824370D02*
X211105802Y-59831913D01*
X211105802Y-59831913D02*
X211054692Y-59861523D01*
X211054692Y-59861523D02*
X211011125Y-59927721D01*
X211011125Y-59927721D02*
X211004146Y-59986375D01*
X211004146Y-59986375D02*
X211011690Y-60022964D01*
X211011690Y-60022964D02*
X211041300Y-60074074D01*
X211041300Y-60074074D02*
X211217828Y-60190252D01*
X210715592Y-59511859D02*
X210803856Y-59569948D01*
X210803856Y-59569948D02*
X210833466Y-59621058D01*
X210833466Y-59621058D02*
X210841010Y-59657646D01*
X210841010Y-59657646D02*
X210841575Y-59752889D01*
X210841575Y-59752889D02*
X210805552Y-59855675D01*
X210805552Y-59855675D02*
X210689374Y-60032203D01*
X210689374Y-60032203D02*
X210638264Y-60061813D01*
X210638264Y-60061813D02*
X210601675Y-60069357D01*
X210601675Y-60069357D02*
X210543021Y-60062379D01*
X210543021Y-60062379D02*
X210454757Y-60004290D01*
X210454757Y-60004290D02*
X210425147Y-59953179D01*
X210425147Y-59953179D02*
X210417603Y-59916591D01*
X210417603Y-59916591D02*
X210424582Y-59857936D01*
X210424582Y-59857936D02*
X210497193Y-59747606D01*
X210497193Y-59747606D02*
X210548304Y-59717997D01*
X210548304Y-59717997D02*
X210584892Y-59710453D01*
X210584892Y-59710453D02*
X210643546Y-59717431D01*
X210643546Y-59717431D02*
X210731810Y-59775520D01*
X210731810Y-59775520D02*
X210761420Y-59826631D01*
X210761420Y-59826631D02*
X210768964Y-59863219D01*
X210768964Y-59863219D02*
X210761985Y-59921873D01*
X238097079Y-67665913D02*
X237696031Y-67799324D01*
X237528809Y-68049826D02*
X237461950Y-68099906D01*
X237461950Y-68099906D02*
X237336623Y-68141597D01*
X237336623Y-68141597D02*
X237278154Y-68133208D01*
X237278154Y-68133208D02*
X237244750Y-68116481D01*
X237244750Y-68116481D02*
X237203008Y-68074688D01*
X237203008Y-68074688D02*
X237186332Y-68024557D01*
X237186332Y-68024557D02*
X237194721Y-67966088D01*
X237194721Y-67966088D02*
X237211448Y-67932684D01*
X237211448Y-67932684D02*
X237253241Y-67890942D01*
X237253241Y-67890942D02*
X237345165Y-67832524D01*
X237345165Y-67832524D02*
X237386958Y-67790782D01*
X237386958Y-67790782D02*
X237403685Y-67757378D01*
X237403685Y-67757378D02*
X237412074Y-67698909D01*
X237412074Y-67698909D02*
X237395398Y-67648778D01*
X237395398Y-67648778D02*
X237353656Y-67606985D01*
X237353656Y-67606985D02*
X237320252Y-67590258D01*
X237320252Y-67590258D02*
X237261783Y-67581869D01*
X237261783Y-67581869D02*
X237136455Y-67623560D01*
X237136455Y-67623560D02*
X237069597Y-67673640D01*
X236827127Y-68032691D02*
X236910509Y-68283346D01*
X236910866Y-67698603D02*
X236827127Y-68032691D01*
X236827127Y-68032691D02*
X236559949Y-67815338D01*
X236576319Y-68366677D02*
X236509461Y-68416757D01*
X236509461Y-68416757D02*
X236384133Y-68458448D01*
X236384133Y-68458448D02*
X236325664Y-68450059D01*
X236325664Y-68450059D02*
X236292261Y-68433332D01*
X236292261Y-68433332D02*
X236250519Y-68391539D01*
X236250519Y-68391539D02*
X236233842Y-68341408D01*
X236233842Y-68341408D02*
X236242231Y-68282939D01*
X236242231Y-68282939D02*
X236258959Y-68249535D01*
X236258959Y-68249535D02*
X236300752Y-68207793D01*
X236300752Y-68207793D02*
X236392675Y-68149375D01*
X236392675Y-68149375D02*
X236434468Y-68107633D01*
X236434468Y-68107633D02*
X236451196Y-68074229D01*
X236451196Y-68074229D02*
X236459585Y-68015760D01*
X236459585Y-68015760D02*
X236442908Y-67965629D01*
X236442908Y-67965629D02*
X236401167Y-67923836D01*
X236401167Y-67923836D02*
X236367763Y-67907109D01*
X236367763Y-67907109D02*
X236309294Y-67898720D01*
X236309294Y-67898720D02*
X236183966Y-67940411D01*
X236183966Y-67940411D02*
X236117108Y-67990491D01*
X235782561Y-68658565D02*
X236083347Y-68558506D01*
X235932954Y-68608536D02*
X235757852Y-68082160D01*
X235757852Y-68082160D02*
X235832998Y-68140680D01*
X235832998Y-68140680D02*
X235899805Y-68174135D01*
X235899805Y-68174135D02*
X235958275Y-68182524D01*
X212383315Y-61222816D02*
X212683000Y-61103812D01*
X212648107Y-61397083D02*
X212953075Y-60933697D01*
X212953075Y-60933697D02*
X212776546Y-60817519D01*
X212776546Y-60817519D02*
X212717892Y-60810540D01*
X212717892Y-60810540D02*
X212681304Y-60818084D01*
X212681304Y-60818084D02*
X212630193Y-60847694D01*
X212630193Y-60847694D02*
X212586627Y-60913892D01*
X212586627Y-60913892D02*
X212579648Y-60972546D01*
X212579648Y-60972546D02*
X212587192Y-61009134D01*
X212587192Y-61009134D02*
X212616802Y-61060245D01*
X212616802Y-61060245D02*
X212793330Y-61176423D01*
X212269028Y-60483507D02*
X212489688Y-60628729D01*
X212489688Y-60628729D02*
X212366532Y-60863912D01*
X212366532Y-60863912D02*
X212358988Y-60827324D01*
X212358988Y-60827324D02*
X212329378Y-60776213D01*
X212329378Y-60776213D02*
X212219048Y-60703602D01*
X212219048Y-60703602D02*
X212160394Y-60696623D01*
X212160394Y-60696623D02*
X212123805Y-60704167D01*
X212123805Y-60704167D02*
X212072695Y-60733777D01*
X212072695Y-60733777D02*
X212000084Y-60844107D01*
X212000084Y-60844107D02*
X211993105Y-60902761D01*
X211993105Y-60902761D02*
X212000649Y-60939350D01*
X212000649Y-60939350D02*
X212030259Y-60990460D01*
X212030259Y-60990460D02*
X212140589Y-61063071D01*
X212140589Y-61063071D02*
X212199243Y-61070050D01*
X212199243Y-61070050D02*
X212235831Y-61062506D01*
X219914423Y-72382956D02*
X219794634Y-72083584D01*
X220087996Y-72117708D02*
X219623812Y-71813955D01*
X219623812Y-71813955D02*
X219508097Y-71990787D01*
X219508097Y-71990787D02*
X219501272Y-72049459D01*
X219501272Y-72049459D02*
X219508912Y-72086028D01*
X219508912Y-72086028D02*
X219538655Y-72137061D01*
X219538655Y-72137061D02*
X219604967Y-72180454D01*
X219604967Y-72180454D02*
X219663639Y-72187279D01*
X219663639Y-72187279D02*
X219700208Y-72179639D01*
X219700208Y-72179639D02*
X219751241Y-72149896D01*
X219751241Y-72149896D02*
X219866956Y-71973064D01*
X219625134Y-72825035D02*
X219798707Y-72559788D01*
X219711920Y-72692412D02*
X219247737Y-72388658D01*
X219247737Y-72388658D02*
X219342978Y-72387844D01*
X219342978Y-72387844D02*
X219416115Y-72372565D01*
X219416115Y-72372565D02*
X219467148Y-72342821D01*
X218972913Y-72808634D02*
X218943984Y-72852842D01*
X218943984Y-72852842D02*
X218937159Y-72911514D01*
X218937159Y-72911514D02*
X218944799Y-72948083D01*
X218944799Y-72948083D02*
X218974542Y-72999115D01*
X218974542Y-72999115D02*
X219048494Y-73079077D01*
X219048494Y-73079077D02*
X219159014Y-73151399D01*
X219159014Y-73151399D02*
X219261894Y-73187153D01*
X219261894Y-73187153D02*
X219320566Y-73193978D01*
X219320566Y-73193978D02*
X219357135Y-73186338D01*
X219357135Y-73186338D02*
X219408167Y-73156595D01*
X219408167Y-73156595D02*
X219437096Y-73112387D01*
X219437096Y-73112387D02*
X219443921Y-73053715D01*
X219443921Y-73053715D02*
X219436282Y-73017146D01*
X219436282Y-73017146D02*
X219406538Y-72966113D01*
X219406538Y-72966113D02*
X219332587Y-72886152D01*
X219332587Y-72886152D02*
X219222067Y-72813829D01*
X219222067Y-72813829D02*
X219119187Y-72778076D01*
X219119187Y-72778076D02*
X219060514Y-72771251D01*
X219060514Y-72771251D02*
X219023946Y-72778890D01*
X219023946Y-72778890D02*
X218972913Y-72808634D01*
X188164351Y-104384350D02*
X188085447Y-104356925D01*
X188085447Y-104356925D02*
X187980803Y-104276335D01*
X187980803Y-104276335D02*
X187955063Y-104223171D01*
X187955063Y-104223171D02*
X187950252Y-104186124D01*
X187950252Y-104186124D02*
X187961559Y-104128148D01*
X187961559Y-104128148D02*
X187993795Y-104086291D01*
X187993795Y-104086291D02*
X188046960Y-104060551D01*
X188046960Y-104060551D02*
X188084007Y-104055740D01*
X188084007Y-104055740D02*
X188141982Y-104067047D01*
X188141982Y-104067047D02*
X188241816Y-104110590D01*
X188241816Y-104110590D02*
X188299791Y-104121897D01*
X188299791Y-104121897D02*
X188336838Y-104117086D01*
X188336838Y-104117086D02*
X188390003Y-104091347D01*
X188390003Y-104091347D02*
X188422239Y-104049489D01*
X188422239Y-104049489D02*
X188433546Y-103991513D01*
X188433546Y-103991513D02*
X188428735Y-103954466D01*
X188428735Y-103954466D02*
X188402995Y-103901302D01*
X188402995Y-103901302D02*
X188298351Y-103820712D01*
X188298351Y-103820712D02*
X188219447Y-103793287D01*
X188089063Y-103659532D02*
X187645941Y-104018448D01*
X187645941Y-104018448D02*
X187803995Y-103640044D01*
X187803995Y-103640044D02*
X187478511Y-103889504D01*
X187478511Y-103889504D02*
X187712344Y-103369409D01*
X186976218Y-103502673D02*
X187227364Y-103696089D01*
X187101791Y-103599381D02*
X187440269Y-103159875D01*
X187440269Y-103159875D02*
X187433772Y-103254898D01*
X187433772Y-103254898D02*
X187443394Y-103328992D01*
X187443394Y-103328992D02*
X187469134Y-103382156D01*
D12*
X193525046Y-108889664D02*
X193379770Y-109078302D01*
X193626519Y-109148123D02*
X193379770Y-109078302D01*
X193379770Y-109078302D02*
X193249243Y-108857571D01*
X193376732Y-109316378D02*
X193379770Y-109078302D01*
X193379770Y-109078302D02*
X193150367Y-109142046D01*
D11*
X221590823Y-70960555D02*
X221471034Y-70661183D01*
X221764396Y-70695307D02*
X221300212Y-70391554D01*
X221300212Y-70391554D02*
X221184497Y-70568386D01*
X221184497Y-70568386D02*
X221177672Y-70627058D01*
X221177672Y-70627058D02*
X221185312Y-70663627D01*
X221185312Y-70663627D02*
X221215055Y-70714660D01*
X221215055Y-70714660D02*
X221281367Y-70758053D01*
X221281367Y-70758053D02*
X221340039Y-70764878D01*
X221340039Y-70764878D02*
X221376608Y-70757238D01*
X221376608Y-70757238D02*
X221427641Y-70727495D01*
X221427641Y-70727495D02*
X221543356Y-70550663D01*
X221301534Y-71402634D02*
X221475107Y-71137387D01*
X221388320Y-71270011D02*
X220924137Y-70966257D01*
X220924137Y-70966257D02*
X221019378Y-70965443D01*
X221019378Y-70965443D02*
X221092515Y-70950164D01*
X221092515Y-70950164D02*
X221143548Y-70920420D01*
X221012245Y-71844714D02*
X221185818Y-71579466D01*
X221099032Y-71712090D02*
X220634849Y-71408337D01*
X220634849Y-71408337D02*
X220730089Y-71407522D01*
X220730089Y-71407522D02*
X220803226Y-71392243D01*
X220803226Y-71392243D02*
X220854259Y-71362500D01*
X198531031Y-60382171D02*
X198550056Y-60300832D01*
X198550056Y-60300832D02*
X198619264Y-60188335D01*
X198619264Y-60188335D02*
X198669447Y-60157179D01*
X198669447Y-60157179D02*
X198705788Y-60148521D01*
X198705788Y-60148521D02*
X198764628Y-60153705D01*
X198764628Y-60153705D02*
X198809626Y-60181388D01*
X198809626Y-60181388D02*
X198840783Y-60231571D01*
X198840783Y-60231571D02*
X198849441Y-60267912D01*
X198849441Y-60267912D02*
X198844257Y-60326752D01*
X198844257Y-60326752D02*
X198811389Y-60430590D01*
X198811389Y-60430590D02*
X198806205Y-60489430D01*
X198806205Y-60489430D02*
X198814863Y-60525771D01*
X198814863Y-60525771D02*
X198846020Y-60575953D01*
X198846020Y-60575953D02*
X198891018Y-60603637D01*
X198891018Y-60603637D02*
X198949858Y-60608821D01*
X198949858Y-60608821D02*
X198986199Y-60600163D01*
X198986199Y-60600163D02*
X199036382Y-60569006D01*
X199036382Y-60569006D02*
X199105590Y-60456510D01*
X199105590Y-60456510D02*
X199124615Y-60375171D01*
X199354739Y-60051524D02*
X199017250Y-59843900D01*
X199017250Y-59843900D02*
X198935911Y-59824874D01*
X198935911Y-59824874D02*
X198863229Y-59842190D01*
X198863229Y-59842190D02*
X198799205Y-59895846D01*
X198799205Y-59895846D02*
X198771522Y-59940844D01*
X199172929Y-59288367D02*
X199006830Y-59558357D01*
X199089879Y-59423362D02*
X199562363Y-59714036D01*
X199562363Y-59714036D02*
X199467182Y-59717509D01*
X199467182Y-59717509D02*
X199394500Y-59734825D01*
X199394500Y-59734825D02*
X199344318Y-59765982D01*
X203865030Y-62871370D02*
X203884055Y-62790031D01*
X203884055Y-62790031D02*
X203953263Y-62677534D01*
X203953263Y-62677534D02*
X204003446Y-62646378D01*
X204003446Y-62646378D02*
X204039787Y-62637720D01*
X204039787Y-62637720D02*
X204098627Y-62642904D01*
X204098627Y-62642904D02*
X204143625Y-62670587D01*
X204143625Y-62670587D02*
X204174782Y-62720770D01*
X204174782Y-62720770D02*
X204183440Y-62757111D01*
X204183440Y-62757111D02*
X204178256Y-62815951D01*
X204178256Y-62815951D02*
X204145388Y-62919789D01*
X204145388Y-62919789D02*
X204140204Y-62978629D01*
X204140204Y-62978629D02*
X204148862Y-63014970D01*
X204148862Y-63014970D02*
X204180019Y-63065152D01*
X204180019Y-63065152D02*
X204225017Y-63092836D01*
X204225017Y-63092836D02*
X204283857Y-63098020D01*
X204283857Y-63098020D02*
X204320198Y-63089362D01*
X204320198Y-63089362D02*
X204370381Y-63058205D01*
X204370381Y-63058205D02*
X204439589Y-62945709D01*
X204439589Y-62945709D02*
X204458614Y-62864370D01*
X204688738Y-62540723D02*
X204351249Y-62333099D01*
X204351249Y-62333099D02*
X204269910Y-62314073D01*
X204269910Y-62314073D02*
X204197228Y-62331389D01*
X204197228Y-62331389D02*
X204133204Y-62385045D01*
X204133204Y-62385045D02*
X204105521Y-62430043D01*
X204768314Y-62310547D02*
X204804655Y-62301889D01*
X204804655Y-62301889D02*
X204854837Y-62270733D01*
X204854837Y-62270733D02*
X204924045Y-62158236D01*
X204924045Y-62158236D02*
X204929229Y-62099396D01*
X204929229Y-62099396D02*
X204920571Y-62063056D01*
X204920571Y-62063056D02*
X204889415Y-62012873D01*
X204889415Y-62012873D02*
X204844416Y-61985190D01*
X204844416Y-61985190D02*
X204763077Y-61966164D01*
X204763077Y-61966164D02*
X204326987Y-62070056D01*
X204326987Y-62070056D02*
X204506928Y-61777566D01*
X240519948Y-75331398D02*
X240107795Y-75425037D01*
X240360691Y-75584294D02*
X240267052Y-75172141D01*
X239916926Y-75658025D02*
X239845500Y-75701342D01*
X239845500Y-75701342D02*
X239716702Y-75730604D01*
X239716702Y-75730604D02*
X239659330Y-75716550D01*
X239659330Y-75716550D02*
X239627718Y-75696642D01*
X239627718Y-75696642D02*
X239590254Y-75650976D01*
X239590254Y-75650976D02*
X239578549Y-75599457D01*
X239578549Y-75599457D02*
X239592604Y-75542085D01*
X239592604Y-75542085D02*
X239612511Y-75510473D01*
X239612511Y-75510473D02*
X239658178Y-75473009D01*
X239658178Y-75473009D02*
X239755363Y-75423840D01*
X239755363Y-75423840D02*
X239801030Y-75386375D01*
X239801030Y-75386375D02*
X239820937Y-75354763D01*
X239820937Y-75354763D02*
X239834992Y-75297392D01*
X239834992Y-75297392D02*
X239823287Y-75245873D01*
X239823287Y-75245873D02*
X239785823Y-75200206D01*
X239785823Y-75200206D02*
X239754211Y-75180299D01*
X239754211Y-75180299D02*
X239696839Y-75166244D01*
X239696839Y-75166244D02*
X239568041Y-75195506D01*
X239568041Y-75195506D02*
X239496615Y-75238823D01*
X239220265Y-75572500D02*
X239278790Y-75830095D01*
X239336206Y-75248178D02*
X239220265Y-75572500D01*
X239220265Y-75572500D02*
X238975572Y-75330112D01*
X238938063Y-75880417D02*
X238866637Y-75923734D01*
X238866637Y-75923734D02*
X238737839Y-75952996D01*
X238737839Y-75952996D02*
X238680468Y-75938942D01*
X238680468Y-75938942D02*
X238648856Y-75919035D01*
X238648856Y-75919035D02*
X238611391Y-75873368D01*
X238611391Y-75873368D02*
X238599686Y-75821849D01*
X238599686Y-75821849D02*
X238613741Y-75764477D01*
X238613741Y-75764477D02*
X238633648Y-75732865D01*
X238633648Y-75732865D02*
X238679315Y-75695401D01*
X238679315Y-75695401D02*
X238776501Y-75646232D01*
X238776501Y-75646232D02*
X238822167Y-75608767D01*
X238822167Y-75608767D02*
X238842075Y-75577155D01*
X238842075Y-75577155D02*
X238856129Y-75519784D01*
X238856129Y-75519784D02*
X238844424Y-75468265D01*
X238844424Y-75468265D02*
X238806960Y-75422598D01*
X238806960Y-75422598D02*
X238775348Y-75402691D01*
X238775348Y-75402691D02*
X238717976Y-75388636D01*
X238717976Y-75388636D02*
X238589179Y-75417898D01*
X238589179Y-75417898D02*
X238517753Y-75461215D01*
X238119610Y-76093455D02*
X238428725Y-76023225D01*
X238274167Y-76058340D02*
X238151266Y-75517390D01*
X238151266Y-75517390D02*
X238220343Y-75582963D01*
X238220343Y-75582963D02*
X238283567Y-75622778D01*
X238283567Y-75622778D02*
X238340938Y-75636832D01*
X213961792Y-62341260D02*
X214259786Y-62218083D01*
X214228991Y-62511813D02*
X214527459Y-62044214D01*
X214527459Y-62044214D02*
X214349326Y-61930512D01*
X214349326Y-61930512D02*
X214290580Y-61924353D01*
X214290580Y-61924353D02*
X214254100Y-61932407D01*
X214254100Y-61932407D02*
X214203408Y-61962727D01*
X214203408Y-61962727D02*
X214160770Y-62029527D01*
X214160770Y-62029527D02*
X214154611Y-62088273D01*
X214154611Y-62088273D02*
X214162665Y-62124753D01*
X214162665Y-62124753D02*
X214192986Y-62175445D01*
X214192986Y-62175445D02*
X214371119Y-62289147D01*
X213759971Y-61773698D02*
X213560992Y-62085431D01*
X213985006Y-61666628D02*
X213883148Y-62071692D01*
X213883148Y-62071692D02*
X213593682Y-61886926D01*
X179039635Y-69932266D02*
X178718348Y-69700359D01*
X178718348Y-69700359D02*
X178638631Y-69675396D01*
X178638631Y-69675396D02*
X178564871Y-69687314D01*
X178564871Y-69687314D02*
X178497071Y-69736111D01*
X178497071Y-69736111D02*
X178466150Y-69778949D01*
X178914504Y-69157794D02*
X178728978Y-69414824D01*
X178821741Y-69286309D02*
X179271542Y-69610979D01*
X179271542Y-69610979D02*
X179176364Y-69607436D01*
X179176364Y-69607436D02*
X179102605Y-69619353D01*
X179102605Y-69619353D02*
X179050265Y-69646731D01*
D13*
G36*
X191932276Y-72958603D02*
G01*
X191963409Y-72970695D01*
X191991415Y-72985869D01*
X192018180Y-73003156D01*
X192047055Y-73024187D01*
X192274013Y-73197854D01*
X191878797Y-73714346D01*
X191811131Y-73662568D01*
X191985938Y-73434120D01*
X191907347Y-73373983D01*
X191895046Y-73364816D01*
X191867704Y-73347585D01*
X191858101Y-73343879D01*
X191826338Y-73337586D01*
X191797923Y-73338977D01*
X191765631Y-73345661D01*
X191755694Y-73348340D01*
X191724009Y-73357923D01*
X191693330Y-73368180D01*
X191662466Y-73379123D01*
X191512907Y-73434369D01*
X191427611Y-73369101D01*
X191623825Y-73297390D01*
X191634599Y-73293642D01*
X191666170Y-73284088D01*
X191699927Y-73276442D01*
X191732291Y-73271921D01*
X191761109Y-73272625D01*
X191792710Y-73277601D01*
X191780905Y-73265123D01*
X191760427Y-73240266D01*
X191741810Y-73211438D01*
X191727490Y-73178716D01*
X191720591Y-73146234D01*
X191720464Y-73137903D01*
X191803345Y-73137903D01*
X191805934Y-73169313D01*
X191819258Y-73199686D01*
X191835387Y-73220882D01*
X191858072Y-73243419D01*
X191884385Y-73265072D01*
X192030020Y-73376512D01*
X192162266Y-73203685D01*
X192000241Y-73079705D01*
X191989664Y-73071946D01*
X191962519Y-73055330D01*
X191930755Y-73042897D01*
X191898596Y-73039920D01*
X191877277Y-73043808D01*
X191849135Y-73057468D01*
X191825599Y-73080521D01*
X191811057Y-73105744D01*
X191803345Y-73137903D01*
X191720464Y-73137903D01*
X191720165Y-73118322D01*
X191726447Y-73083785D01*
X191738480Y-73054360D01*
X191756583Y-73026135D01*
X191760730Y-73020889D01*
X191783309Y-72997431D01*
X191808964Y-72978595D01*
X191837696Y-72964382D01*
X191867689Y-72955594D01*
X191900223Y-72953258D01*
X191932276Y-72958603D01*
G37*
G36*
X191364912Y-73321124D02*
G01*
X191760129Y-72804633D01*
X191390018Y-72521426D01*
X191344416Y-72581021D01*
X191646861Y-72812451D01*
X191522216Y-72975344D01*
X191239015Y-72758640D01*
X191193413Y-72818236D01*
X191476614Y-73034939D01*
X191342849Y-73209752D01*
X191028484Y-72969202D01*
X190982882Y-73028797D01*
X191364912Y-73321124D01*
G37*
G36*
X190888523Y-72956594D02*
G01*
X191283739Y-72440103D01*
X190938460Y-72175897D01*
X190892858Y-72235492D01*
X191170472Y-72447921D01*
X191045827Y-72610814D01*
X190805584Y-72426982D01*
X190759982Y-72486577D01*
X191000225Y-72670409D01*
X190820858Y-72904817D01*
X190888523Y-72956594D01*
G37*
G36*
X196297952Y-92061670D02*
G01*
X196330238Y-92068558D01*
X196362559Y-92080625D01*
X196374708Y-92086519D01*
X196402318Y-92102571D01*
X196430943Y-92121879D01*
X196459390Y-92142908D01*
X196635816Y-92277909D01*
X196240600Y-92794401D01*
X196055855Y-92653035D01*
X196050119Y-92648591D01*
X196025990Y-92628531D01*
X196002413Y-92606122D01*
X195980409Y-92581327D01*
X195968467Y-92565453D01*
X195951740Y-92538213D01*
X195938960Y-92508666D01*
X195934275Y-92492235D01*
X195929074Y-92459300D01*
X195928482Y-92433481D01*
X196010978Y-92433481D01*
X196011687Y-92466874D01*
X196012236Y-92470690D01*
X196021586Y-92501529D01*
X196037010Y-92528967D01*
X196038381Y-92530949D01*
X196059283Y-92555825D01*
X196082968Y-92578093D01*
X196109155Y-92599330D01*
X196218412Y-92682933D01*
X196522425Y-92285632D01*
X196414905Y-92203359D01*
X196403789Y-92195001D01*
X196376302Y-92175820D01*
X196349131Y-92159642D01*
X196319080Y-92146963D01*
X196306627Y-92144056D01*
X196274029Y-92141939D01*
X196242901Y-92146323D01*
X196210079Y-92156667D01*
X196187529Y-92167515D01*
X196160987Y-92185344D01*
X196134195Y-92208747D01*
X196111029Y-92233241D01*
X196087679Y-92261830D01*
X196071739Y-92283647D01*
X196053431Y-92311955D01*
X196036857Y-92342733D01*
X196024544Y-92372380D01*
X196016158Y-92400718D01*
X196010978Y-92433481D01*
X195928482Y-92433481D01*
X195928313Y-92426108D01*
X195928571Y-92420303D01*
X195932754Y-92387027D01*
X195940616Y-92354795D01*
X195950997Y-92324173D01*
X195964766Y-92292500D01*
X195980181Y-92263953D01*
X195998586Y-92235036D01*
X196017143Y-92209431D01*
X196030479Y-92192654D01*
X196054443Y-92165610D01*
X196079205Y-92141512D01*
X196104764Y-92120360D01*
X196131121Y-92102155D01*
X196162051Y-92085111D01*
X196193718Y-92072444D01*
X196226119Y-92064154D01*
X196259257Y-92060241D01*
X196265702Y-92059961D01*
X196297952Y-92061670D01*
G37*
G36*
X195934704Y-91741422D02*
G01*
X195912996Y-92253952D01*
X195868914Y-92311561D01*
X195646798Y-92141599D01*
X195551034Y-92266749D01*
X195488211Y-92218677D01*
X195583975Y-92093527D01*
X195571511Y-92083990D01*
X195690880Y-92083990D01*
X195851166Y-92206640D01*
X195868537Y-91851817D01*
X195690880Y-92083990D01*
X195571511Y-92083990D01*
X195514819Y-92040610D01*
X195558901Y-91983001D01*
X195628056Y-92035918D01*
X195883427Y-91702185D01*
X195934704Y-91741422D01*
G37*
G36*
X184356150Y-82923882D02*
G01*
X184388436Y-82930770D01*
X184420757Y-82942837D01*
X184432906Y-82948731D01*
X184460516Y-82964783D01*
X184489141Y-82984091D01*
X184517588Y-83005120D01*
X184694014Y-83140121D01*
X184298798Y-83656613D01*
X184114053Y-83515247D01*
X184108317Y-83510803D01*
X184084188Y-83490743D01*
X184060611Y-83468334D01*
X184038607Y-83443539D01*
X184026665Y-83427665D01*
X184009938Y-83400425D01*
X183997158Y-83370878D01*
X183992473Y-83354447D01*
X183987272Y-83321512D01*
X183986680Y-83295693D01*
X184069176Y-83295693D01*
X184069885Y-83329086D01*
X184070434Y-83332902D01*
X184079784Y-83363741D01*
X184095208Y-83391179D01*
X184096579Y-83393161D01*
X184117481Y-83418037D01*
X184141166Y-83440305D01*
X184167353Y-83461542D01*
X184276610Y-83545145D01*
X184580623Y-83147844D01*
X184473103Y-83065571D01*
X184461987Y-83057213D01*
X184434500Y-83038032D01*
X184407329Y-83021854D01*
X184377278Y-83009175D01*
X184364825Y-83006268D01*
X184332227Y-83004151D01*
X184301099Y-83008535D01*
X184268277Y-83018879D01*
X184245727Y-83029727D01*
X184219185Y-83047556D01*
X184192393Y-83070959D01*
X184169227Y-83095453D01*
X184145877Y-83124042D01*
X184129937Y-83145859D01*
X184111629Y-83174167D01*
X184095055Y-83204945D01*
X184082742Y-83234592D01*
X184074356Y-83262930D01*
X184069176Y-83295693D01*
X183986680Y-83295693D01*
X183986511Y-83288320D01*
X183986769Y-83282515D01*
X183990952Y-83249239D01*
X183998814Y-83217007D01*
X184009195Y-83186385D01*
X184022964Y-83154712D01*
X184038379Y-83126165D01*
X184056784Y-83097248D01*
X184075341Y-83071643D01*
X184088677Y-83054866D01*
X184112641Y-83027822D01*
X184137403Y-83003724D01*
X184162962Y-82982572D01*
X184189319Y-82964367D01*
X184220249Y-82947323D01*
X184251916Y-82934656D01*
X184284317Y-82926366D01*
X184317455Y-82922453D01*
X184323900Y-82922173D01*
X184356150Y-82923882D01*
G37*
G36*
X183573971Y-83101980D02*
G01*
X183636795Y-83150052D01*
X183944797Y-82747536D01*
X183951217Y-82778580D01*
X183960598Y-82809713D01*
X183970761Y-82837089D01*
X183983434Y-82866749D01*
X183997552Y-82895602D01*
X184011856Y-82920504D01*
X184060498Y-82856935D01*
X184046655Y-82828509D01*
X184033316Y-82796005D01*
X184022623Y-82763484D01*
X184014576Y-82730945D01*
X184013756Y-82726876D01*
X184008706Y-82695563D01*
X184006233Y-82663291D01*
X184007471Y-82631104D01*
X184009663Y-82616459D01*
X183969188Y-82585488D01*
X183573971Y-83101980D01*
G37*
G36*
X183558287Y-82297447D02*
G01*
X183585394Y-82304279D01*
X183614637Y-82317305D01*
X183643277Y-82336103D01*
X183662749Y-82352684D01*
X183684109Y-82376503D01*
X183701851Y-82405635D01*
X183712936Y-82437241D01*
X183717467Y-82467062D01*
X183717302Y-82498358D01*
X183712440Y-82531129D01*
X183702881Y-82565376D01*
X183698008Y-82578640D01*
X183683507Y-82611044D01*
X183667589Y-82640439D01*
X183648451Y-82671328D01*
X183630044Y-82698210D01*
X183609400Y-82726131D01*
X183588727Y-82752225D01*
X183568250Y-82776219D01*
X183541249Y-82804944D01*
X183514596Y-82829936D01*
X183488290Y-82851195D01*
X183462330Y-82868720D01*
X183430368Y-82885377D01*
X183398947Y-82896201D01*
X183368149Y-82901334D01*
X183333015Y-82900428D01*
X183298740Y-82892097D01*
X183270044Y-82879046D01*
X183241980Y-82860540D01*
X183222385Y-82843858D01*
X183200912Y-82819922D01*
X183183112Y-82790681D01*
X183172043Y-82758993D01*
X183167551Y-82729042D01*
X183167593Y-82722889D01*
X183240734Y-82722889D01*
X183245302Y-82755124D01*
X183258911Y-82785088D01*
X183281502Y-82808891D01*
X183289765Y-82814630D01*
X183319653Y-82827103D01*
X183353144Y-82829339D01*
X183386369Y-82822599D01*
X183394214Y-82819760D01*
X183423841Y-82803226D01*
X183451920Y-82780881D01*
X183477212Y-82756498D01*
X183498684Y-82733219D01*
X183521258Y-82706588D01*
X183544933Y-82676605D01*
X183550899Y-82668743D01*
X183572935Y-82638365D01*
X183592052Y-82609696D01*
X183611842Y-82576264D01*
X183627070Y-82545502D01*
X183639323Y-82512112D01*
X183645315Y-82478019D01*
X183645420Y-82474502D01*
X183641556Y-82441856D01*
X183626992Y-82411243D01*
X183604376Y-82388227D01*
X183595980Y-82382386D01*
X183565758Y-82369626D01*
X183532096Y-82367190D01*
X183498859Y-82373825D01*
X183491035Y-82376635D01*
X183461456Y-82393108D01*
X183433382Y-82415447D01*
X183408068Y-82439859D01*
X183386561Y-82463181D01*
X183363938Y-82489876D01*
X183340199Y-82519943D01*
X183334246Y-82527783D01*
X183312272Y-82557935D01*
X183293238Y-82586159D01*
X183273577Y-82618728D01*
X183258510Y-82648285D01*
X183246491Y-82679777D01*
X183240828Y-82711035D01*
X183240734Y-82722889D01*
X183167593Y-82722889D01*
X183167765Y-82697697D01*
X183172687Y-82664960D01*
X183182317Y-82630829D01*
X183187225Y-82617565D01*
X183201761Y-82585206D01*
X183217655Y-82555899D01*
X183236720Y-82525144D01*
X183255030Y-82498408D01*
X183275543Y-82470665D01*
X183286388Y-82456702D01*
X183307420Y-82430899D01*
X183330848Y-82404371D01*
X183356158Y-82378770D01*
X183379908Y-82358200D01*
X183385655Y-82353750D01*
X183411337Y-82335704D01*
X183439528Y-82319443D01*
X183470120Y-82306164D01*
X183492233Y-82299647D01*
X183525313Y-82295294D01*
X183558287Y-82297447D01*
G37*
G36*
X215899502Y-92094862D02*
G01*
X216493121Y-91730187D01*
X216419744Y-91674039D01*
X215999262Y-91947769D01*
X215971559Y-91966160D01*
X215945372Y-91984279D01*
X215918054Y-92004092D01*
X215907651Y-92011923D01*
X215920086Y-91979484D01*
X215930655Y-91949812D01*
X215940635Y-91919690D01*
X215944881Y-91906157D01*
X216093957Y-91424749D01*
X216024802Y-91371832D01*
X215829975Y-92041660D01*
X215899502Y-92094862D01*
G37*
G36*
X215560058Y-91835121D02*
G01*
X215955274Y-91318630D01*
X215887485Y-91266757D01*
X215492269Y-91783249D01*
X215560058Y-91835121D01*
G37*
G36*
X215374568Y-91693185D02*
G01*
X215769784Y-91176694D01*
X215700381Y-91123587D01*
X215121175Y-91323304D01*
X215431457Y-90917808D01*
X215366524Y-90868121D01*
X214971307Y-91384613D01*
X215040711Y-91437720D01*
X215620202Y-91237630D01*
X215309634Y-91643498D01*
X215374568Y-91693185D01*
G37*
G36*
X202489993Y-97255138D02*
G01*
X202535595Y-97195543D01*
X202319102Y-97029294D01*
X202172891Y-97220371D01*
X202182341Y-97253587D01*
X202193537Y-97285162D01*
X202206477Y-97315096D01*
X202221164Y-97343389D01*
X202230340Y-97358819D01*
X202250375Y-97387930D01*
X202272668Y-97414831D01*
X202297218Y-97439522D01*
X202324024Y-97462003D01*
X202352677Y-97482122D01*
X202382113Y-97499227D01*
X202412332Y-97513319D01*
X202443335Y-97524398D01*
X202475120Y-97532463D01*
X202485889Y-97534482D01*
X202518034Y-97538126D01*
X202549614Y-97538113D01*
X202585743Y-97533474D01*
X202616099Y-97525537D01*
X202645890Y-97513942D01*
X202650801Y-97511654D01*
X202679498Y-97496269D01*
X202706762Y-97478182D01*
X202732592Y-97457392D01*
X202756988Y-97433900D01*
X202779951Y-97407705D01*
X202787287Y-97398372D01*
X202807478Y-97369715D01*
X202824943Y-97340080D01*
X202839684Y-97309466D01*
X202851698Y-97277874D01*
X202860987Y-97245304D01*
X202863478Y-97234229D01*
X202868583Y-97201256D01*
X202869958Y-97169179D01*
X202867602Y-97137999D01*
X202860138Y-97102754D01*
X202847596Y-97068729D01*
X202833183Y-97040640D01*
X202815818Y-97013823D01*
X202795501Y-96988276D01*
X202772232Y-96964000D01*
X202746012Y-96940995D01*
X202736616Y-96933609D01*
X202708685Y-96913996D01*
X202680391Y-96897624D01*
X202651733Y-96884492D01*
X202622712Y-96874601D01*
X202590481Y-96867532D01*
X202556294Y-96865049D01*
X202523818Y-96868218D01*
X202514408Y-96870272D01*
X202482997Y-96880712D01*
X202454341Y-96894909D01*
X202425319Y-96913653D01*
X202412304Y-96923443D01*
X202460563Y-96986946D01*
X202487970Y-96968945D01*
X202515944Y-96954945D01*
X202535605Y-96948304D01*
X202566822Y-96944206D01*
X202598562Y-96947298D01*
X202611475Y-96950256D01*
X202642485Y-96961149D01*
X202672592Y-96977275D01*
X202692161Y-96990933D01*
X202716417Y-97011300D01*
X202738997Y-97034821D01*
X202758519Y-97061779D01*
X202761470Y-97066803D01*
X202775818Y-97096928D01*
X202785022Y-97129275D01*
X202787247Y-97146567D01*
X202787449Y-97178026D01*
X202782897Y-97211015D01*
X202780072Y-97222574D01*
X202769784Y-97253802D01*
X202756261Y-97284178D01*
X202739501Y-97313701D01*
X202719506Y-97342373D01*
X202699333Y-97367017D01*
X202675239Y-97392156D01*
X202650542Y-97413405D01*
X202621579Y-97432926D01*
X202606802Y-97440781D01*
X202576916Y-97452633D01*
X202542858Y-97459925D01*
X202508337Y-97460822D01*
X202485066Y-97457867D01*
X202454576Y-97450297D01*
X202422037Y-97437747D01*
X202391366Y-97420926D01*
X202371955Y-97407339D01*
X202345906Y-97384754D01*
X202322855Y-97359157D01*
X202304671Y-97333543D01*
X202299149Y-97324463D01*
X202283271Y-97294988D01*
X202270783Y-97265577D01*
X202263512Y-97239319D01*
X202339515Y-97139994D01*
X202489993Y-97255138D01*
G37*
G36*
X202021948Y-97218257D02*
G01*
X202417164Y-96701766D01*
X202347761Y-96648658D01*
X201768554Y-96848375D01*
X202078837Y-96442880D01*
X202013903Y-96393193D01*
X201618687Y-96909684D01*
X201688091Y-96962792D01*
X202267582Y-96762702D01*
X201957014Y-97168570D01*
X202021948Y-97218257D01*
G37*
G36*
X201565167Y-96092115D02*
G01*
X201597453Y-96099003D01*
X201629774Y-96111070D01*
X201641923Y-96116964D01*
X201669533Y-96133016D01*
X201698158Y-96152325D01*
X201726605Y-96173354D01*
X201903031Y-96308354D01*
X201507815Y-96824846D01*
X201323070Y-96683480D01*
X201317334Y-96679036D01*
X201293205Y-96658976D01*
X201269628Y-96636567D01*
X201247624Y-96611772D01*
X201235682Y-96595898D01*
X201218956Y-96568658D01*
X201206175Y-96539111D01*
X201201490Y-96522680D01*
X201196289Y-96489746D01*
X201195697Y-96463926D01*
X201278193Y-96463926D01*
X201278903Y-96497319D01*
X201279451Y-96501135D01*
X201288801Y-96531974D01*
X201304225Y-96559413D01*
X201305596Y-96561395D01*
X201326498Y-96586270D01*
X201350183Y-96608538D01*
X201376370Y-96629775D01*
X201485627Y-96713379D01*
X201789640Y-96316077D01*
X201682120Y-96233804D01*
X201671004Y-96225446D01*
X201643517Y-96206266D01*
X201616346Y-96190087D01*
X201586295Y-96177409D01*
X201573842Y-96174502D01*
X201541244Y-96172384D01*
X201510116Y-96176769D01*
X201477294Y-96187113D01*
X201454744Y-96197960D01*
X201428202Y-96215790D01*
X201401410Y-96239192D01*
X201378244Y-96263686D01*
X201354894Y-96292275D01*
X201338954Y-96314093D01*
X201320646Y-96342400D01*
X201304072Y-96373178D01*
X201291759Y-96402825D01*
X201283373Y-96431163D01*
X201278193Y-96463926D01*
X201195697Y-96463926D01*
X201195528Y-96456553D01*
X201195786Y-96450748D01*
X201199969Y-96417472D01*
X201207831Y-96385240D01*
X201218212Y-96354618D01*
X201231981Y-96322945D01*
X201247396Y-96294398D01*
X201265801Y-96265482D01*
X201284358Y-96239876D01*
X201297694Y-96223099D01*
X201321658Y-96196055D01*
X201346420Y-96171957D01*
X201371979Y-96150805D01*
X201398336Y-96132600D01*
X201429266Y-96115556D01*
X201460933Y-96102890D01*
X201493334Y-96094600D01*
X201526472Y-96090687D01*
X201532918Y-96090407D01*
X201565167Y-96092115D01*
G37*
G36*
X204543272Y-98350898D02*
G01*
X204574405Y-98362990D01*
X204602411Y-98378164D01*
X204629176Y-98395451D01*
X204658051Y-98416482D01*
X204885009Y-98590149D01*
X204489793Y-99106641D01*
X204422127Y-99054863D01*
X204596934Y-98826415D01*
X204518343Y-98766278D01*
X204506042Y-98757111D01*
X204478700Y-98739880D01*
X204469097Y-98736174D01*
X204437334Y-98729881D01*
X204408919Y-98731272D01*
X204376627Y-98737956D01*
X204366690Y-98740635D01*
X204335005Y-98750218D01*
X204304326Y-98760475D01*
X204273462Y-98771418D01*
X204123903Y-98826664D01*
X204038607Y-98761396D01*
X204234821Y-98689685D01*
X204245595Y-98685937D01*
X204277166Y-98676383D01*
X204310923Y-98668737D01*
X204343287Y-98664216D01*
X204372105Y-98664920D01*
X204403706Y-98669896D01*
X204391901Y-98657418D01*
X204371423Y-98632561D01*
X204352806Y-98603733D01*
X204338486Y-98571011D01*
X204331587Y-98538529D01*
X204331460Y-98530198D01*
X204414341Y-98530198D01*
X204416930Y-98561608D01*
X204430254Y-98591981D01*
X204446383Y-98613177D01*
X204469068Y-98635714D01*
X204495381Y-98657367D01*
X204641016Y-98768807D01*
X204773262Y-98595980D01*
X204611237Y-98472000D01*
X204600660Y-98464241D01*
X204573515Y-98447625D01*
X204541751Y-98435192D01*
X204509592Y-98432215D01*
X204488273Y-98436103D01*
X204460131Y-98449763D01*
X204436595Y-98472816D01*
X204422053Y-98498039D01*
X204414341Y-98530198D01*
X204331460Y-98530198D01*
X204331161Y-98510617D01*
X204337443Y-98476080D01*
X204349476Y-98446655D01*
X204367579Y-98418430D01*
X204371726Y-98413184D01*
X204394305Y-98389726D01*
X204419960Y-98370890D01*
X204448692Y-98356677D01*
X204478685Y-98347889D01*
X204511219Y-98345553D01*
X204543272Y-98350898D01*
G37*
G36*
X204129762Y-98563034D02*
G01*
X204070316Y-98508491D01*
X204045955Y-98530865D01*
X204019137Y-98548933D01*
X203998857Y-98558143D01*
X203967588Y-98564757D01*
X203935576Y-98563898D01*
X203915506Y-98560309D01*
X203883554Y-98550093D01*
X203855223Y-98536227D01*
X203827577Y-98518002D01*
X203824849Y-98515939D01*
X203800333Y-98495016D01*
X203778412Y-98470948D01*
X203765274Y-98452045D01*
X203751217Y-98422498D01*
X203745441Y-98390236D01*
X203745491Y-98386316D01*
X203751488Y-98354992D01*
X203764881Y-98330876D01*
X203788688Y-98308961D01*
X203811307Y-98299274D01*
X203842601Y-98296645D01*
X203875598Y-98302517D01*
X203880740Y-98303978D01*
X203911869Y-98315063D01*
X203944393Y-98328393D01*
X203975897Y-98341960D01*
X203991062Y-98348632D01*
X204020886Y-98361377D01*
X204051795Y-98373552D01*
X204081994Y-98383914D01*
X204114591Y-98391974D01*
X204148656Y-98395071D01*
X204179982Y-98392629D01*
X204206082Y-98385603D01*
X204234260Y-98371510D01*
X204258871Y-98351586D01*
X204273297Y-98335065D01*
X204290803Y-98306807D01*
X204302172Y-98275807D01*
X204307183Y-98245246D01*
X204306451Y-98213512D01*
X204299342Y-98181973D01*
X204285854Y-98150630D01*
X204282392Y-98144384D01*
X204264412Y-98117114D01*
X204242785Y-98091475D01*
X204217512Y-98067468D01*
X204201896Y-98054836D01*
X204173417Y-98034878D01*
X204144845Y-98018514D01*
X204116180Y-98005746D01*
X204087421Y-97996572D01*
X204055600Y-97990807D01*
X204021490Y-97990504D01*
X203988692Y-97996627D01*
X203979108Y-97999717D01*
X203948699Y-98013465D01*
X203921123Y-98032304D01*
X203896381Y-98056233D01*
X203891772Y-98061629D01*
X203952906Y-98116283D01*
X203977527Y-98094294D01*
X204006118Y-98077893D01*
X204039067Y-98069614D01*
X204045227Y-98069208D01*
X204077016Y-98072564D01*
X204107232Y-98083452D01*
X204135367Y-98099389D01*
X204153562Y-98112341D01*
X204178026Y-98132784D01*
X204200047Y-98155827D01*
X204218669Y-98184148D01*
X204225818Y-98203655D01*
X204228933Y-98235013D01*
X204220027Y-98267319D01*
X204212075Y-98279755D01*
X204187697Y-98301259D01*
X204157125Y-98310149D01*
X204123268Y-98305724D01*
X204090724Y-98295388D01*
X204061079Y-98283759D01*
X204026947Y-98268806D01*
X203998012Y-98255776D01*
X203966854Y-98242399D01*
X203935417Y-98229903D01*
X203902772Y-98218763D01*
X203888416Y-98214969D01*
X203855537Y-98209688D01*
X203821790Y-98209202D01*
X203788054Y-98215211D01*
X203782302Y-98217040D01*
X203752547Y-98230732D01*
X203726088Y-98250575D01*
X203704895Y-98273952D01*
X203687885Y-98300929D01*
X203676163Y-98330492D01*
X203669730Y-98362641D01*
X203669078Y-98369381D01*
X203669475Y-98403235D01*
X203676286Y-98436998D01*
X203687899Y-98467307D01*
X203692925Y-98477394D01*
X203710956Y-98506702D01*
X203730492Y-98531176D01*
X203753329Y-98554166D01*
X203776019Y-98573064D01*
X203801860Y-98591682D01*
X203831420Y-98610031D01*
X203860348Y-98624751D01*
X203892635Y-98637128D01*
X203908468Y-98641539D01*
X203939593Y-98646864D01*
X203973956Y-98647443D01*
X204007627Y-98642291D01*
X204029690Y-98635674D01*
X204061265Y-98621370D01*
X204090156Y-98602272D01*
X204113584Y-98581271D01*
X204129762Y-98563034D01*
G37*
G36*
X203372879Y-98251985D02*
G01*
X203722494Y-97795089D01*
X203891099Y-97924104D01*
X203936700Y-97864509D01*
X203530957Y-97554036D01*
X203485355Y-97613631D01*
X203654704Y-97743217D01*
X203305090Y-98200113D01*
X203372879Y-98251985D01*
G37*
G36*
X189930253Y-72009963D02*
G01*
X189873890Y-71953448D01*
X189848761Y-71973135D01*
X189821593Y-71989155D01*
X189789970Y-71999923D01*
X189778902Y-72001435D01*
X189746933Y-71999404D01*
X189716782Y-71988412D01*
X189697692Y-71976105D01*
X189673571Y-71952880D01*
X189656768Y-71925720D01*
X189647282Y-71894623D01*
X189646263Y-71887932D01*
X189645977Y-71854932D01*
X189653846Y-71823636D01*
X189669869Y-71794043D01*
X189674053Y-71788329D01*
X189696399Y-71764854D01*
X189724729Y-71747363D01*
X189756988Y-71738600D01*
X189790532Y-71738826D01*
X189822589Y-71748475D01*
X189850440Y-71765423D01*
X189874105Y-71787838D01*
X189889568Y-71806387D01*
X189927808Y-71741750D01*
X189917276Y-71734675D01*
X189892452Y-71711818D01*
X189873292Y-71685573D01*
X189860788Y-71658773D01*
X189855343Y-71627954D01*
X189862679Y-71594941D01*
X189877273Y-71570598D01*
X189900822Y-71547848D01*
X189931548Y-71534283D01*
X189943871Y-71532187D01*
X189976162Y-71533954D01*
X190007316Y-71546547D01*
X190021311Y-71556011D01*
X190044612Y-71578934D01*
X190060444Y-71608062D01*
X190064916Y-71625598D01*
X190065229Y-71658097D01*
X190056873Y-71690222D01*
X190043885Y-71718168D01*
X190115259Y-71755066D01*
X190128848Y-71724034D01*
X190137549Y-71693556D01*
X190141506Y-71659403D01*
X190139077Y-71625975D01*
X190137472Y-71617730D01*
X190127354Y-71586046D01*
X190111435Y-71556764D01*
X190089717Y-71529884D01*
X190065956Y-71508335D01*
X190062199Y-71505407D01*
X190035355Y-71487634D01*
X190004225Y-71473253D01*
X189971417Y-71464288D01*
X189938546Y-71461089D01*
X189907227Y-71464009D01*
X189880101Y-71471974D01*
X189850521Y-71486959D01*
X189825385Y-71507062D01*
X189811097Y-71523307D01*
X189794231Y-71551420D01*
X189784700Y-71582090D01*
X189782774Y-71597109D01*
X189784616Y-71630494D01*
X189793849Y-71661943D01*
X189802574Y-71680568D01*
X189772707Y-71669975D01*
X189740072Y-71665311D01*
X189708020Y-71668129D01*
X189698517Y-71670433D01*
X189668060Y-71682696D01*
X189640021Y-71701999D01*
X189616853Y-71725391D01*
X189609566Y-71734456D01*
X189590046Y-71764816D01*
X189576707Y-71796798D01*
X189569551Y-71830402D01*
X189568576Y-71865627D01*
X189570795Y-71886484D01*
X189577838Y-71917162D01*
X189591531Y-71950529D01*
X189611120Y-71981287D01*
X189632603Y-72005574D01*
X189658419Y-72027944D01*
X189688271Y-72047782D01*
X189718837Y-72062156D01*
X189750117Y-72071067D01*
X189782112Y-72074515D01*
X189800715Y-72074032D01*
X189832496Y-72069011D01*
X189862349Y-72058954D01*
X189890272Y-72043859D01*
X189916266Y-72023728D01*
X189930253Y-72009963D01*
G37*
G36*
X189259997Y-71710476D02*
G01*
X189853616Y-71345800D01*
X189780239Y-71289653D01*
X189359756Y-71563382D01*
X189332053Y-71581774D01*
X189305867Y-71599893D01*
X189278549Y-71619705D01*
X189268146Y-71627536D01*
X189280580Y-71595097D01*
X189291149Y-71565426D01*
X189301129Y-71535303D01*
X189305376Y-71521771D01*
X189454452Y-71040362D01*
X189385297Y-70987445D01*
X189190469Y-71657273D01*
X189259997Y-71710476D01*
G37*
G36*
X189060163Y-71344175D02*
G01*
X189003800Y-71287660D01*
X188978672Y-71307348D01*
X188951503Y-71323367D01*
X188919880Y-71334135D01*
X188908812Y-71335647D01*
X188876843Y-71333617D01*
X188846692Y-71322624D01*
X188827603Y-71310318D01*
X188803481Y-71287093D01*
X188786678Y-71259932D01*
X188777192Y-71228836D01*
X188776173Y-71222144D01*
X188775887Y-71189145D01*
X188783756Y-71157849D01*
X188799779Y-71128256D01*
X188803963Y-71122541D01*
X188826309Y-71099066D01*
X188854639Y-71081575D01*
X188886898Y-71072812D01*
X188920442Y-71073039D01*
X188952499Y-71082688D01*
X188980350Y-71099636D01*
X189004015Y-71122050D01*
X189019478Y-71140600D01*
X189057718Y-71075962D01*
X189047186Y-71068887D01*
X189022362Y-71046031D01*
X189003202Y-71019785D01*
X188990698Y-70992985D01*
X188985253Y-70962166D01*
X188992590Y-70929154D01*
X189007183Y-70904811D01*
X189030732Y-70882060D01*
X189061459Y-70868496D01*
X189073781Y-70866400D01*
X189106072Y-70868167D01*
X189137226Y-70880760D01*
X189151222Y-70890223D01*
X189174522Y-70913146D01*
X189190354Y-70942275D01*
X189194826Y-70959810D01*
X189195140Y-70992309D01*
X189186783Y-71024435D01*
X189173795Y-71052381D01*
X189245169Y-71089278D01*
X189258759Y-71058246D01*
X189267459Y-71027769D01*
X189271416Y-70993616D01*
X189268987Y-70960187D01*
X189267382Y-70951943D01*
X189257264Y-70920258D01*
X189241346Y-70890976D01*
X189219627Y-70864096D01*
X189195866Y-70842547D01*
X189192109Y-70839619D01*
X189165265Y-70821847D01*
X189134135Y-70807466D01*
X189101327Y-70798500D01*
X189068456Y-70795302D01*
X189037137Y-70798222D01*
X189010012Y-70806186D01*
X188980431Y-70821172D01*
X188955295Y-70841275D01*
X188941007Y-70857520D01*
X188924141Y-70885632D01*
X188914610Y-70916303D01*
X188912684Y-70931321D01*
X188914526Y-70964706D01*
X188923759Y-70996155D01*
X188932485Y-71014780D01*
X188902617Y-71004187D01*
X188869983Y-70999524D01*
X188837930Y-71002341D01*
X188828427Y-71004645D01*
X188797970Y-71016908D01*
X188769931Y-71036211D01*
X188746763Y-71059604D01*
X188739476Y-71068669D01*
X188719956Y-71099029D01*
X188706617Y-71131011D01*
X188699461Y-71164614D01*
X188698486Y-71199840D01*
X188700705Y-71220697D01*
X188707748Y-71251374D01*
X188721441Y-71284742D01*
X188741030Y-71315500D01*
X188762513Y-71339787D01*
X188788329Y-71362157D01*
X188818181Y-71381994D01*
X188848747Y-71396369D01*
X188880027Y-71405280D01*
X188912022Y-71408727D01*
X188930625Y-71408244D01*
X188962407Y-71403224D01*
X188992259Y-71393166D01*
X189020182Y-71378072D01*
X189046176Y-71357940D01*
X189060163Y-71344175D01*
G37*
G36*
X209203246Y-101904740D02*
G01*
X209235532Y-101911628D01*
X209267853Y-101923695D01*
X209280002Y-101929589D01*
X209307612Y-101945641D01*
X209336237Y-101964949D01*
X209364684Y-101985978D01*
X209541110Y-102120979D01*
X209145894Y-102637471D01*
X208961149Y-102496105D01*
X208955413Y-102491661D01*
X208931284Y-102471601D01*
X208907707Y-102449192D01*
X208885703Y-102424397D01*
X208873761Y-102408523D01*
X208857034Y-102381283D01*
X208844254Y-102351736D01*
X208839569Y-102335305D01*
X208834368Y-102302370D01*
X208833776Y-102276551D01*
X208916272Y-102276551D01*
X208916981Y-102309944D01*
X208917530Y-102313760D01*
X208926880Y-102344599D01*
X208942304Y-102372037D01*
X208943675Y-102374019D01*
X208964577Y-102398895D01*
X208988262Y-102421163D01*
X209014449Y-102442400D01*
X209123706Y-102526003D01*
X209427719Y-102128702D01*
X209320199Y-102046429D01*
X209309083Y-102038071D01*
X209281596Y-102018890D01*
X209254425Y-102002712D01*
X209224374Y-101990033D01*
X209211921Y-101987126D01*
X209179323Y-101985009D01*
X209148195Y-101989393D01*
X209115373Y-101999737D01*
X209092823Y-102010585D01*
X209066281Y-102028414D01*
X209039489Y-102051817D01*
X209016323Y-102076311D01*
X208992973Y-102104900D01*
X208977033Y-102126717D01*
X208958725Y-102155025D01*
X208942151Y-102185803D01*
X208929838Y-102215450D01*
X208921452Y-102243788D01*
X208916272Y-102276551D01*
X208833776Y-102276551D01*
X208833607Y-102269178D01*
X208833865Y-102263373D01*
X208838048Y-102230097D01*
X208845910Y-102197865D01*
X208856291Y-102167243D01*
X208870060Y-102135570D01*
X208885475Y-102107023D01*
X208903880Y-102078106D01*
X208922437Y-102052501D01*
X208935773Y-102035724D01*
X208959737Y-102008680D01*
X208984499Y-101984582D01*
X209010058Y-101963430D01*
X209036415Y-101945225D01*
X209067345Y-101928181D01*
X209099012Y-101915514D01*
X209131413Y-101907224D01*
X209164551Y-101903311D01*
X209170996Y-101903031D01*
X209203246Y-101904740D01*
G37*
G36*
X208421067Y-102082838D02*
G01*
X208483891Y-102130910D01*
X208791893Y-101728394D01*
X208798313Y-101759438D01*
X208807694Y-101790571D01*
X208817857Y-101817947D01*
X208830530Y-101847607D01*
X208844648Y-101876460D01*
X208858952Y-101901362D01*
X208907594Y-101837793D01*
X208893751Y-101809367D01*
X208880412Y-101776863D01*
X208869719Y-101744342D01*
X208861672Y-101711803D01*
X208860852Y-101707734D01*
X208855802Y-101676421D01*
X208853329Y-101644149D01*
X208854567Y-101611962D01*
X208856759Y-101597317D01*
X208816284Y-101566346D01*
X208421067Y-102082838D01*
G37*
G36*
X208285616Y-101991790D02*
G01*
X208544626Y-101345876D01*
X208494342Y-101307400D01*
X208234960Y-101953028D01*
X208285616Y-101991790D01*
G37*
G36*
X207908673Y-101690757D02*
G01*
X208258287Y-101233860D01*
X208426892Y-101362875D01*
X208472494Y-101303280D01*
X208066750Y-100992807D01*
X208021148Y-101052403D01*
X208190498Y-101181988D01*
X207840883Y-101638884D01*
X207908673Y-101690757D01*
G37*
G36*
X207656387Y-101497709D02*
G01*
X207664325Y-101077006D01*
X208028137Y-100963261D01*
X207947560Y-100901604D01*
X207754147Y-100961679D01*
X207722754Y-100971736D01*
X207691067Y-100982755D01*
X207664884Y-100993180D01*
X207667443Y-100961365D01*
X207668755Y-100927489D01*
X207668937Y-100903760D01*
X207669945Y-100689175D01*
X207596196Y-100632742D01*
X207589797Y-101013874D01*
X207187075Y-101138594D01*
X207270880Y-101202721D01*
X207539381Y-101118606D01*
X207569131Y-101108428D01*
X207587951Y-101101439D01*
X207584907Y-101132591D01*
X207582958Y-101158644D01*
X207574940Y-101435386D01*
X207656387Y-101497709D01*
G37*
G36*
X202018947Y-80654631D02*
G01*
X201820271Y-81321513D01*
X201748384Y-81266506D01*
X201813746Y-81064549D01*
X201599700Y-80900762D01*
X201418376Y-81013986D01*
X201341274Y-80954988D01*
X201500482Y-80861196D01*
X201663244Y-80861196D01*
X201836815Y-80994011D01*
X201895622Y-80800621D01*
X201905804Y-80769853D01*
X201917081Y-80739776D01*
X201929454Y-80710390D01*
X201942922Y-80681694D01*
X201937336Y-80685806D01*
X201909278Y-80705614D01*
X201880324Y-80725013D01*
X201851893Y-80743372D01*
X201825221Y-80760136D01*
X201663244Y-80861196D01*
X201500482Y-80861196D01*
X201945943Y-80598768D01*
X202018947Y-80654631D01*
G37*
G36*
X201497489Y-80255614D02*
G01*
X201475782Y-80768145D01*
X201431700Y-80825753D01*
X201209583Y-80655791D01*
X201113819Y-80780941D01*
X201050996Y-80732869D01*
X201146760Y-80607719D01*
X201134298Y-80598183D01*
X201253665Y-80598183D01*
X201413952Y-80720833D01*
X201431323Y-80366010D01*
X201253665Y-80598183D01*
X201134298Y-80598183D01*
X201077605Y-80554802D01*
X201121687Y-80497193D01*
X201190842Y-80550111D01*
X201446213Y-80216377D01*
X201497489Y-80255614D01*
G37*
G36*
X197964390Y-77552111D02*
G01*
X197765714Y-78218993D01*
X197693827Y-78163986D01*
X197759189Y-77962029D01*
X197545143Y-77798242D01*
X197363819Y-77911466D01*
X197286717Y-77852468D01*
X197445925Y-77758676D01*
X197608687Y-77758676D01*
X197782258Y-77891491D01*
X197841065Y-77698101D01*
X197851247Y-77667333D01*
X197862524Y-77637256D01*
X197874897Y-77607870D01*
X197888365Y-77579174D01*
X197882779Y-77583286D01*
X197854721Y-77603094D01*
X197825767Y-77622493D01*
X197797336Y-77640852D01*
X197770664Y-77657616D01*
X197608687Y-77758676D01*
X197445925Y-77758676D01*
X197891386Y-77496248D01*
X197964390Y-77552111D01*
G37*
G36*
X196975990Y-77520212D02*
G01*
X196930388Y-77579807D01*
X197268839Y-77838788D01*
X197285965Y-77812237D01*
X197294955Y-77789479D01*
X197302295Y-77757546D01*
X197305635Y-77726330D01*
X197305802Y-77693031D01*
X197305644Y-77689586D01*
X197302761Y-77656064D01*
X197297894Y-77622308D01*
X197291857Y-77589714D01*
X197284160Y-77554268D01*
X197282925Y-77548971D01*
X197275775Y-77516848D01*
X197268252Y-77479775D01*
X197262301Y-77446125D01*
X197257234Y-77410263D01*
X197254182Y-77374653D01*
X197253889Y-77353326D01*
X197256770Y-77320088D01*
X197264813Y-77288141D01*
X197279549Y-77259059D01*
X197282891Y-77254454D01*
X197307041Y-77230708D01*
X197336168Y-77216086D01*
X197358351Y-77211406D01*
X197389915Y-77212135D01*
X197420600Y-77221915D01*
X197447735Y-77238660D01*
X197472241Y-77261814D01*
X197490200Y-77290568D01*
X197498734Y-77322764D01*
X197497315Y-77356787D01*
X197487076Y-77388015D01*
X197470574Y-77416363D01*
X197465970Y-77422694D01*
X197535756Y-77465268D01*
X197552350Y-77435793D01*
X197564455Y-77406828D01*
X197572906Y-77373682D01*
X197575248Y-77341231D01*
X197572394Y-77313969D01*
X197563641Y-77283186D01*
X197549192Y-77253961D01*
X197529049Y-77226294D01*
X197507251Y-77203820D01*
X197485890Y-77185965D01*
X197458254Y-77167109D01*
X197425942Y-77150847D01*
X197393555Y-77140763D01*
X197361093Y-77136859D01*
X197337861Y-77137853D01*
X197306646Y-77143962D01*
X197274248Y-77157096D01*
X197245342Y-77176791D01*
X197222916Y-77199406D01*
X197217000Y-77206790D01*
X197199974Y-77233328D01*
X197187339Y-77262705D01*
X197182988Y-77277222D01*
X197177284Y-77309011D01*
X197175556Y-77342093D01*
X197176632Y-77371966D01*
X197180396Y-77407383D01*
X197185488Y-77440850D01*
X197191362Y-77473659D01*
X197198628Y-77510274D01*
X197204246Y-77536799D01*
X197211056Y-77568855D01*
X197217517Y-77600762D01*
X197223476Y-77633096D01*
X197227000Y-77657558D01*
X197228441Y-77689347D01*
X197227035Y-77712310D01*
X196975990Y-77520212D01*
G37*
G36*
X214085319Y-90385393D02*
G01*
X214130921Y-90325798D01*
X213914428Y-90159549D01*
X213768217Y-90350626D01*
X213777667Y-90383842D01*
X213788863Y-90415417D01*
X213801803Y-90445351D01*
X213816490Y-90473644D01*
X213825666Y-90489074D01*
X213845701Y-90518185D01*
X213867994Y-90545086D01*
X213892544Y-90569777D01*
X213919350Y-90592258D01*
X213948003Y-90612377D01*
X213977439Y-90629482D01*
X214007658Y-90643574D01*
X214038661Y-90654653D01*
X214070446Y-90662718D01*
X214081215Y-90664737D01*
X214113360Y-90668381D01*
X214144940Y-90668368D01*
X214181069Y-90663729D01*
X214211425Y-90655792D01*
X214241216Y-90644197D01*
X214246127Y-90641909D01*
X214274824Y-90626524D01*
X214302088Y-90608437D01*
X214327918Y-90587647D01*
X214352314Y-90564155D01*
X214375277Y-90537960D01*
X214382613Y-90528627D01*
X214402804Y-90499970D01*
X214420269Y-90470335D01*
X214435010Y-90439721D01*
X214447024Y-90408129D01*
X214456313Y-90375559D01*
X214458804Y-90364484D01*
X214463909Y-90331511D01*
X214465284Y-90299434D01*
X214462928Y-90268254D01*
X214455464Y-90233009D01*
X214442922Y-90198984D01*
X214428509Y-90170895D01*
X214411144Y-90144078D01*
X214390827Y-90118531D01*
X214367558Y-90094255D01*
X214341338Y-90071250D01*
X214331942Y-90063864D01*
X214304011Y-90044251D01*
X214275717Y-90027879D01*
X214247059Y-90014747D01*
X214218038Y-90004856D01*
X214185807Y-89997787D01*
X214151620Y-89995304D01*
X214119144Y-89998473D01*
X214109734Y-90000527D01*
X214078323Y-90010967D01*
X214049667Y-90025164D01*
X214020645Y-90043908D01*
X214007630Y-90053698D01*
X214055889Y-90117201D01*
X214083296Y-90099200D01*
X214111270Y-90085200D01*
X214130931Y-90078559D01*
X214162148Y-90074461D01*
X214193888Y-90077553D01*
X214206801Y-90080511D01*
X214237811Y-90091404D01*
X214267918Y-90107530D01*
X214287487Y-90121188D01*
X214311743Y-90141555D01*
X214334323Y-90165076D01*
X214353845Y-90192034D01*
X214356796Y-90197058D01*
X214371144Y-90227183D01*
X214380348Y-90259530D01*
X214382573Y-90276822D01*
X214382775Y-90308281D01*
X214378223Y-90341270D01*
X214375398Y-90352829D01*
X214365110Y-90384057D01*
X214351587Y-90414433D01*
X214334827Y-90443956D01*
X214314832Y-90472628D01*
X214294659Y-90497272D01*
X214270565Y-90522411D01*
X214245868Y-90543660D01*
X214216905Y-90563181D01*
X214202128Y-90571036D01*
X214172242Y-90582888D01*
X214138184Y-90590180D01*
X214103663Y-90591077D01*
X214080392Y-90588122D01*
X214049902Y-90580552D01*
X214017363Y-90568002D01*
X213986692Y-90551181D01*
X213967281Y-90537594D01*
X213941232Y-90515009D01*
X213918181Y-90489412D01*
X213899997Y-90463798D01*
X213894475Y-90454718D01*
X213878597Y-90425243D01*
X213866109Y-90395832D01*
X213858838Y-90369574D01*
X213934841Y-90270249D01*
X214085319Y-90385393D01*
G37*
G36*
X213617274Y-90348512D02*
G01*
X214012490Y-89832021D01*
X213943087Y-89778913D01*
X213363880Y-89978630D01*
X213674163Y-89573135D01*
X213609229Y-89523448D01*
X213214013Y-90039939D01*
X213283417Y-90093047D01*
X213862908Y-89892957D01*
X213552340Y-90298825D01*
X213617274Y-90348512D01*
G37*
G36*
X213160493Y-89222370D02*
G01*
X213192779Y-89229258D01*
X213225100Y-89241325D01*
X213237249Y-89247219D01*
X213264859Y-89263271D01*
X213293484Y-89282580D01*
X213321931Y-89303609D01*
X213498357Y-89438609D01*
X213103141Y-89955101D01*
X212918396Y-89813735D01*
X212912660Y-89809291D01*
X212888531Y-89789231D01*
X212864954Y-89766822D01*
X212842950Y-89742027D01*
X212831008Y-89726153D01*
X212814282Y-89698913D01*
X212801501Y-89669366D01*
X212796816Y-89652935D01*
X212791615Y-89620001D01*
X212791023Y-89594181D01*
X212873519Y-89594181D01*
X212874229Y-89627574D01*
X212874777Y-89631390D01*
X212884127Y-89662229D01*
X212899551Y-89689668D01*
X212900922Y-89691650D01*
X212921824Y-89716525D01*
X212945509Y-89738793D01*
X212971696Y-89760030D01*
X213080953Y-89843634D01*
X213384966Y-89446332D01*
X213277446Y-89364059D01*
X213266330Y-89355701D01*
X213238843Y-89336521D01*
X213211672Y-89320342D01*
X213181621Y-89307664D01*
X213169168Y-89304757D01*
X213136570Y-89302639D01*
X213105442Y-89307024D01*
X213072620Y-89317368D01*
X213050070Y-89328215D01*
X213023528Y-89346045D01*
X212996736Y-89369447D01*
X212973570Y-89393941D01*
X212950220Y-89422530D01*
X212934280Y-89444348D01*
X212915972Y-89472655D01*
X212899398Y-89503433D01*
X212887085Y-89533080D01*
X212878699Y-89561418D01*
X212873519Y-89594181D01*
X212791023Y-89594181D01*
X212790854Y-89586808D01*
X212791112Y-89581003D01*
X212795295Y-89547727D01*
X212803157Y-89515495D01*
X212813538Y-89484873D01*
X212827307Y-89453200D01*
X212842722Y-89424653D01*
X212861127Y-89395737D01*
X212879684Y-89370131D01*
X212893020Y-89353354D01*
X212916984Y-89326310D01*
X212941746Y-89302212D01*
X212967305Y-89281060D01*
X212993662Y-89262855D01*
X213024592Y-89245811D01*
X213056259Y-89233145D01*
X213088660Y-89224855D01*
X213121798Y-89220942D01*
X213128244Y-89220662D01*
X213160493Y-89222370D01*
G37*
G36*
X186211980Y-84343941D02*
G01*
X186244266Y-84350829D01*
X186276587Y-84362896D01*
X186288736Y-84368790D01*
X186316346Y-84384842D01*
X186344971Y-84404150D01*
X186373418Y-84425179D01*
X186549844Y-84560180D01*
X186154628Y-85076672D01*
X185969883Y-84935306D01*
X185964147Y-84930862D01*
X185940018Y-84910802D01*
X185916441Y-84888393D01*
X185894437Y-84863598D01*
X185882495Y-84847724D01*
X185865768Y-84820484D01*
X185852988Y-84790937D01*
X185848303Y-84774506D01*
X185843102Y-84741571D01*
X185842510Y-84715752D01*
X185925006Y-84715752D01*
X185925715Y-84749145D01*
X185926264Y-84752961D01*
X185935614Y-84783800D01*
X185951038Y-84811238D01*
X185952409Y-84813220D01*
X185973311Y-84838096D01*
X185996996Y-84860364D01*
X186023183Y-84881601D01*
X186132440Y-84965204D01*
X186436453Y-84567903D01*
X186328933Y-84485630D01*
X186317817Y-84477272D01*
X186290330Y-84458091D01*
X186263159Y-84441913D01*
X186233108Y-84429234D01*
X186220655Y-84426327D01*
X186188057Y-84424210D01*
X186156929Y-84428594D01*
X186124107Y-84438938D01*
X186101557Y-84449786D01*
X186075015Y-84467615D01*
X186048223Y-84491018D01*
X186025057Y-84515512D01*
X186001707Y-84544101D01*
X185985767Y-84565918D01*
X185967459Y-84594226D01*
X185950885Y-84625004D01*
X185938572Y-84654651D01*
X185930186Y-84682989D01*
X185925006Y-84715752D01*
X185842510Y-84715752D01*
X185842341Y-84708379D01*
X185842599Y-84702574D01*
X185846782Y-84669298D01*
X185854644Y-84637066D01*
X185865025Y-84606444D01*
X185878794Y-84574771D01*
X185894209Y-84546224D01*
X185912614Y-84517307D01*
X185931171Y-84491702D01*
X185944507Y-84474925D01*
X185968471Y-84447881D01*
X185993233Y-84423783D01*
X186018792Y-84402631D01*
X186045149Y-84384426D01*
X186076079Y-84367382D01*
X186107746Y-84354715D01*
X186140147Y-84346425D01*
X186173285Y-84342512D01*
X186179730Y-84342232D01*
X186211980Y-84343941D01*
G37*
G36*
X185807883Y-84022987D02*
G01*
X185840761Y-84031172D01*
X185871718Y-84044676D01*
X185900753Y-84063499D01*
X185917109Y-84077196D01*
X185941243Y-84103414D01*
X185959664Y-84132495D01*
X185972371Y-84164438D01*
X185979365Y-84199244D01*
X185980190Y-84235255D01*
X185974392Y-84270812D01*
X185964149Y-84300930D01*
X185949040Y-84330715D01*
X185929064Y-84360166D01*
X185910431Y-84382294D01*
X185886689Y-84404784D01*
X185857085Y-84425417D01*
X185825430Y-84440017D01*
X185791724Y-84448581D01*
X185772117Y-84450741D01*
X185738997Y-84449927D01*
X185707394Y-84443265D01*
X185677308Y-84430756D01*
X185648738Y-84412399D01*
X185626832Y-84392907D01*
X185606983Y-84368410D01*
X185591584Y-84340711D01*
X185583375Y-84319395D01*
X185576205Y-84287389D01*
X185575443Y-84262864D01*
X185625167Y-84262864D01*
X185625463Y-84266143D01*
X185632676Y-84296853D01*
X185649540Y-84326277D01*
X185672989Y-84349064D01*
X185675699Y-84351090D01*
X185703908Y-84366862D01*
X185737258Y-84374796D01*
X185769686Y-84373449D01*
X185779581Y-84371459D01*
X185810637Y-84359574D01*
X185838724Y-84339611D01*
X185861462Y-84314737D01*
X185875810Y-84293726D01*
X185889809Y-84265382D01*
X185898550Y-84233044D01*
X185899871Y-84200228D01*
X185899178Y-84192975D01*
X185891306Y-84159846D01*
X185876091Y-84131940D01*
X185853534Y-84109258D01*
X185824145Y-84092865D01*
X185791632Y-84086269D01*
X185759364Y-84088775D01*
X185739626Y-84094286D01*
X185711512Y-84108470D01*
X185685190Y-84129756D01*
X185663296Y-84154637D01*
X185653432Y-84168441D01*
X185636563Y-84199213D01*
X185627068Y-84229585D01*
X185625167Y-84262864D01*
X185575443Y-84262864D01*
X185575210Y-84255347D01*
X185565337Y-84267477D01*
X185548004Y-84292039D01*
X185531280Y-84320406D01*
X185517011Y-84350185D01*
X185511480Y-84363755D01*
X185501450Y-84393982D01*
X185495350Y-84427115D01*
X185496279Y-84458830D01*
X185504506Y-84489240D01*
X185505265Y-84491093D01*
X185521937Y-84518706D01*
X185545310Y-84541133D01*
X185553830Y-84547163D01*
X185584372Y-84561119D01*
X185616038Y-84563954D01*
X185639461Y-84558482D01*
X185668679Y-84542969D01*
X185693952Y-84522588D01*
X185750046Y-84574566D01*
X185746617Y-84577989D01*
X185722103Y-84599186D01*
X185692997Y-84617478D01*
X185662729Y-84629443D01*
X185631298Y-84635081D01*
X185627299Y-84635327D01*
X185595582Y-84633729D01*
X185564361Y-84625793D01*
X185533634Y-84611518D01*
X185507155Y-84593827D01*
X185481264Y-84571002D01*
X185460083Y-84545751D01*
X185443612Y-84518076D01*
X185431850Y-84487976D01*
X185430721Y-84484043D01*
X185424654Y-84451742D01*
X185423855Y-84417961D01*
X185428323Y-84382698D01*
X185436553Y-84350628D01*
X185445102Y-84326709D01*
X185458708Y-84296482D01*
X185475967Y-84264594D01*
X185493139Y-84236751D01*
X185512848Y-84207753D01*
X185535093Y-84177601D01*
X185544092Y-84166014D01*
X185566156Y-84139136D01*
X185587599Y-84115243D01*
X185612510Y-84090511D01*
X185640442Y-84067089D01*
X185667157Y-84049519D01*
X185689614Y-84038307D01*
X185719807Y-84027534D01*
X185754116Y-84021116D01*
X185788787Y-84020738D01*
X185807883Y-84022987D01*
G37*
G36*
X187640633Y-69694722D02*
G01*
X187672919Y-69701610D01*
X187705240Y-69713677D01*
X187717389Y-69719571D01*
X187744999Y-69735623D01*
X187773624Y-69754931D01*
X187802071Y-69775960D01*
X187978497Y-69910961D01*
X187583281Y-70427453D01*
X187398536Y-70286087D01*
X187392800Y-70281643D01*
X187368671Y-70261583D01*
X187345094Y-70239174D01*
X187323090Y-70214379D01*
X187311148Y-70198505D01*
X187294421Y-70171265D01*
X187281641Y-70141718D01*
X187276956Y-70125287D01*
X187271755Y-70092352D01*
X187271163Y-70066533D01*
X187353659Y-70066533D01*
X187354368Y-70099926D01*
X187354917Y-70103742D01*
X187364267Y-70134581D01*
X187379691Y-70162019D01*
X187381062Y-70164001D01*
X187401964Y-70188877D01*
X187425649Y-70211145D01*
X187451836Y-70232382D01*
X187561093Y-70315985D01*
X187865106Y-69918684D01*
X187757586Y-69836411D01*
X187746470Y-69828053D01*
X187718983Y-69808872D01*
X187691812Y-69792694D01*
X187661761Y-69780015D01*
X187649308Y-69777108D01*
X187616710Y-69774991D01*
X187585582Y-69779375D01*
X187552760Y-69789719D01*
X187530210Y-69800567D01*
X187503668Y-69818396D01*
X187476876Y-69841799D01*
X187453710Y-69866293D01*
X187430360Y-69894882D01*
X187414420Y-69916699D01*
X187396112Y-69945007D01*
X187379538Y-69975785D01*
X187367225Y-70005432D01*
X187358839Y-70033770D01*
X187353659Y-70066533D01*
X187271163Y-70066533D01*
X187270994Y-70059160D01*
X187271252Y-70053355D01*
X187275435Y-70020079D01*
X187283297Y-69987847D01*
X187293678Y-69957225D01*
X187307447Y-69925552D01*
X187322862Y-69897005D01*
X187341267Y-69868088D01*
X187359824Y-69842483D01*
X187373160Y-69825706D01*
X187397124Y-69798662D01*
X187421886Y-69774564D01*
X187447445Y-69753412D01*
X187473802Y-69735207D01*
X187504732Y-69718163D01*
X187536399Y-69705496D01*
X187568800Y-69697206D01*
X187601938Y-69693293D01*
X187608383Y-69693013D01*
X187640633Y-69694722D01*
G37*
G36*
X186858454Y-69872820D02*
G01*
X186921278Y-69920892D01*
X187229280Y-69518376D01*
X187235700Y-69549420D01*
X187245081Y-69580553D01*
X187255244Y-69607929D01*
X187267917Y-69637589D01*
X187282035Y-69666442D01*
X187296339Y-69691344D01*
X187344981Y-69627775D01*
X187331138Y-69599349D01*
X187317799Y-69566845D01*
X187307106Y-69534324D01*
X187299059Y-69501785D01*
X187298239Y-69497716D01*
X187293189Y-69466403D01*
X187290716Y-69434131D01*
X187291954Y-69401944D01*
X187294146Y-69387299D01*
X187253671Y-69356328D01*
X186858454Y-69872820D01*
G37*
G36*
X186802022Y-69616249D02*
G01*
X186745659Y-69559734D01*
X186720530Y-69579421D01*
X186693361Y-69595441D01*
X186661738Y-69606209D01*
X186650671Y-69607721D01*
X186618701Y-69605690D01*
X186588551Y-69594698D01*
X186569461Y-69582391D01*
X186545340Y-69559166D01*
X186528536Y-69532006D01*
X186519050Y-69500910D01*
X186518031Y-69494218D01*
X186517745Y-69461219D01*
X186525614Y-69429922D01*
X186541638Y-69400329D01*
X186545821Y-69394615D01*
X186568167Y-69371140D01*
X186596498Y-69353649D01*
X186628756Y-69344886D01*
X186662301Y-69345113D01*
X186694357Y-69354762D01*
X186722209Y-69371710D01*
X186745874Y-69394124D01*
X186761337Y-69412674D01*
X186799577Y-69348036D01*
X186789045Y-69340961D01*
X186764221Y-69318105D01*
X186745060Y-69291859D01*
X186732556Y-69265059D01*
X186727112Y-69234240D01*
X186734448Y-69201227D01*
X186749042Y-69176885D01*
X186772591Y-69154134D01*
X186803317Y-69140569D01*
X186815639Y-69138473D01*
X186847930Y-69140240D01*
X186879085Y-69152833D01*
X186893080Y-69162297D01*
X186916380Y-69185220D01*
X186932213Y-69214349D01*
X186936684Y-69231884D01*
X186936998Y-69264383D01*
X186928641Y-69296509D01*
X186915654Y-69324454D01*
X186987028Y-69361352D01*
X187000617Y-69330320D01*
X187009318Y-69299843D01*
X187013275Y-69265690D01*
X187010846Y-69232261D01*
X187009241Y-69224017D01*
X186999122Y-69192332D01*
X186983204Y-69163050D01*
X186961486Y-69136170D01*
X186937724Y-69114621D01*
X186933967Y-69111693D01*
X186907124Y-69093920D01*
X186875994Y-69079540D01*
X186843186Y-69070574D01*
X186810315Y-69067375D01*
X186778995Y-69070296D01*
X186751870Y-69078260D01*
X186722290Y-69093246D01*
X186697154Y-69113349D01*
X186682865Y-69129593D01*
X186666000Y-69157706D01*
X186656468Y-69188376D01*
X186654543Y-69203395D01*
X186656384Y-69236780D01*
X186665617Y-69268229D01*
X186674343Y-69286854D01*
X186644475Y-69276261D01*
X186611841Y-69271598D01*
X186579788Y-69274415D01*
X186570286Y-69276719D01*
X186539829Y-69288982D01*
X186511790Y-69308285D01*
X186488622Y-69331678D01*
X186481334Y-69340742D01*
X186461814Y-69371102D01*
X186448476Y-69403084D01*
X186441319Y-69436688D01*
X186440345Y-69471914D01*
X186442563Y-69492770D01*
X186449607Y-69523448D01*
X186463299Y-69556815D01*
X186482888Y-69587573D01*
X186504372Y-69611861D01*
X186530188Y-69634231D01*
X186560040Y-69654068D01*
X186590606Y-69668443D01*
X186621886Y-69677353D01*
X186653880Y-69680801D01*
X186672483Y-69680318D01*
X186704265Y-69675298D01*
X186734118Y-69665240D01*
X186762041Y-69650146D01*
X186788034Y-69630014D01*
X186802022Y-69616249D01*
G37*
G36*
X206053339Y-83741707D02*
G01*
X205854663Y-84408589D01*
X205782776Y-84353582D01*
X205848138Y-84151625D01*
X205634092Y-83987838D01*
X205452768Y-84101062D01*
X205375666Y-84042064D01*
X205534874Y-83948272D01*
X205697636Y-83948272D01*
X205871207Y-84081087D01*
X205930014Y-83887697D01*
X205940196Y-83856929D01*
X205951473Y-83826852D01*
X205963846Y-83797466D01*
X205977314Y-83768770D01*
X205971728Y-83772882D01*
X205943670Y-83792690D01*
X205914716Y-83812089D01*
X205886285Y-83830448D01*
X205859613Y-83847212D01*
X205697636Y-83948272D01*
X205534874Y-83948272D01*
X205980335Y-83685844D01*
X206053339Y-83741707D01*
G37*
G36*
X205474780Y-83327369D02*
G01*
X205506357Y-83335227D01*
X205537368Y-83349517D01*
X205564038Y-83367296D01*
X205573866Y-83375181D01*
X205599681Y-83400402D01*
X205619990Y-83427970D01*
X205634792Y-83457886D01*
X205644089Y-83490149D01*
X205647881Y-83524760D01*
X205645957Y-83559958D01*
X205638326Y-83597075D01*
X205628112Y-83628150D01*
X205614245Y-83660453D01*
X205596726Y-83693984D01*
X205575554Y-83728744D01*
X205557278Y-83755620D01*
X205536947Y-83783186D01*
X205511610Y-83814694D01*
X205486521Y-83842670D01*
X205461680Y-83867115D01*
X205437087Y-83888027D01*
X205406695Y-83909201D01*
X205376691Y-83924855D01*
X205341197Y-83936357D01*
X205329519Y-83938553D01*
X205295202Y-83941381D01*
X205261961Y-83938569D01*
X205229798Y-83930117D01*
X205198711Y-83916026D01*
X205168701Y-83896294D01*
X205163047Y-83891832D01*
X205137898Y-83867824D01*
X205117949Y-83840991D01*
X205103201Y-83811331D01*
X205099818Y-83801903D01*
X205092411Y-83769537D01*
X205092012Y-83760280D01*
X205165886Y-83760280D01*
X205171664Y-83792107D01*
X205186171Y-83821630D01*
X205209216Y-83845405D01*
X205212667Y-83847948D01*
X205240942Y-83862626D01*
X205273427Y-83869539D01*
X205284950Y-83869925D01*
X205317241Y-83865093D01*
X205347257Y-83852804D01*
X205360710Y-83844927D01*
X205387062Y-83824627D01*
X205409585Y-83799905D01*
X205416461Y-83790379D01*
X205432386Y-83761461D01*
X205441807Y-83728734D01*
X205442520Y-83695380D01*
X205442119Y-83692034D01*
X205434170Y-83660859D01*
X205417133Y-83631369D01*
X205394106Y-83608924D01*
X205391412Y-83606911D01*
X205363486Y-83591332D01*
X205330692Y-83583754D01*
X205298994Y-83585555D01*
X205282958Y-83589614D01*
X205252458Y-83604270D01*
X205226801Y-83624913D01*
X205205419Y-83649190D01*
X205193081Y-83666765D01*
X205178087Y-83694717D01*
X205168200Y-83725918D01*
X205165886Y-83760280D01*
X205092012Y-83760280D01*
X205090954Y-83735726D01*
X205094731Y-83704061D01*
X205098793Y-83686301D01*
X205109302Y-83655473D01*
X205123923Y-83626110D01*
X205142655Y-83598211D01*
X205160802Y-83576731D01*
X205184086Y-83554888D01*
X205213330Y-83534827D01*
X205244812Y-83520604D01*
X205278534Y-83512221D01*
X205298175Y-83509995D01*
X205331295Y-83510677D01*
X205362820Y-83517185D01*
X205392751Y-83529519D01*
X205421088Y-83547680D01*
X205438082Y-83562258D01*
X205460026Y-83587317D01*
X205477710Y-83616204D01*
X205488411Y-83642632D01*
X205494999Y-83673776D01*
X205496157Y-83707092D01*
X205503140Y-83697641D01*
X205522076Y-83670342D01*
X205540349Y-83640486D01*
X205556199Y-83608996D01*
X205567611Y-83576923D01*
X205573807Y-83544100D01*
X205574407Y-83510256D01*
X205568496Y-83478780D01*
X205566430Y-83472520D01*
X205550835Y-83444095D01*
X205528365Y-83421890D01*
X205509094Y-83409900D01*
X205477994Y-83400571D01*
X205444261Y-83401629D01*
X205433183Y-83404650D01*
X205404872Y-83418857D01*
X205377861Y-83439011D01*
X205319210Y-83386258D01*
X205322617Y-83382865D01*
X205347050Y-83361854D01*
X205376225Y-83343712D01*
X205406734Y-83331834D01*
X205438579Y-83326218D01*
X205442637Y-83325944D01*
X205474780Y-83327369D01*
G37*
G36*
X180094662Y-79663009D02*
G01*
X180126948Y-79669897D01*
X180159269Y-79681964D01*
X180171418Y-79687858D01*
X180199028Y-79703910D01*
X180227653Y-79723218D01*
X180256100Y-79744247D01*
X180432526Y-79879248D01*
X180037310Y-80395740D01*
X179852565Y-80254374D01*
X179846829Y-80249930D01*
X179822700Y-80229870D01*
X179799123Y-80207461D01*
X179777119Y-80182666D01*
X179765177Y-80166792D01*
X179748450Y-80139552D01*
X179735670Y-80110005D01*
X179730985Y-80093574D01*
X179725784Y-80060639D01*
X179725192Y-80034820D01*
X179807688Y-80034820D01*
X179808397Y-80068213D01*
X179808946Y-80072029D01*
X179818296Y-80102868D01*
X179833720Y-80130306D01*
X179835091Y-80132288D01*
X179855993Y-80157164D01*
X179879678Y-80179432D01*
X179905865Y-80200669D01*
X180015122Y-80284272D01*
X180319135Y-79886971D01*
X180211615Y-79804698D01*
X180200499Y-79796340D01*
X180173012Y-79777159D01*
X180145841Y-79760981D01*
X180115790Y-79748302D01*
X180103337Y-79745395D01*
X180070739Y-79743278D01*
X180039611Y-79747662D01*
X180006789Y-79758006D01*
X179984239Y-79768854D01*
X179957697Y-79786683D01*
X179930905Y-79810086D01*
X179907739Y-79834580D01*
X179884389Y-79863169D01*
X179868449Y-79884986D01*
X179850141Y-79913294D01*
X179833567Y-79944072D01*
X179821254Y-79973719D01*
X179812868Y-80002057D01*
X179807688Y-80034820D01*
X179725192Y-80034820D01*
X179725023Y-80027447D01*
X179725281Y-80021642D01*
X179729464Y-79988366D01*
X179737326Y-79956134D01*
X179747707Y-79925512D01*
X179761476Y-79893839D01*
X179776891Y-79865292D01*
X179795296Y-79836375D01*
X179813853Y-79810770D01*
X179827189Y-79793993D01*
X179851153Y-79766949D01*
X179875915Y-79742851D01*
X179901474Y-79721699D01*
X179927831Y-79703494D01*
X179958761Y-79686450D01*
X179990428Y-79673783D01*
X180022829Y-79665493D01*
X180055967Y-79661580D01*
X180062412Y-79661300D01*
X180094662Y-79663009D01*
G37*
G36*
X179312483Y-79841107D02*
G01*
X179375307Y-79889179D01*
X179683309Y-79486663D01*
X179689729Y-79517707D01*
X179699110Y-79548840D01*
X179709273Y-79576216D01*
X179721946Y-79605876D01*
X179736064Y-79634729D01*
X179750368Y-79659631D01*
X179799010Y-79596062D01*
X179785167Y-79567636D01*
X179771828Y-79535132D01*
X179761135Y-79502611D01*
X179753088Y-79470072D01*
X179752268Y-79466003D01*
X179747218Y-79434690D01*
X179744745Y-79402418D01*
X179745983Y-79370231D01*
X179748175Y-79355586D01*
X179707700Y-79324615D01*
X179312483Y-79841107D01*
G37*
G36*
X178868660Y-79407006D02*
G01*
X178823058Y-79466601D01*
X179161509Y-79725582D01*
X179178635Y-79699031D01*
X179187625Y-79676274D01*
X179194965Y-79644341D01*
X179198306Y-79613124D01*
X179198472Y-79579825D01*
X179198314Y-79576380D01*
X179195431Y-79542858D01*
X179190564Y-79509102D01*
X179184527Y-79476509D01*
X179176830Y-79441062D01*
X179175595Y-79435766D01*
X179168445Y-79403643D01*
X179160922Y-79366569D01*
X179154971Y-79332919D01*
X179149904Y-79297057D01*
X179146852Y-79261448D01*
X179146559Y-79240120D01*
X179149440Y-79206882D01*
X179157483Y-79174935D01*
X179172219Y-79145853D01*
X179175561Y-79141248D01*
X179199711Y-79117502D01*
X179228838Y-79102880D01*
X179251021Y-79098200D01*
X179282585Y-79098929D01*
X179313271Y-79108709D01*
X179340405Y-79125454D01*
X179364911Y-79148608D01*
X179382870Y-79177362D01*
X179391405Y-79209558D01*
X179389985Y-79243581D01*
X179379746Y-79274809D01*
X179363244Y-79303157D01*
X179358640Y-79309488D01*
X179428426Y-79352062D01*
X179445020Y-79322587D01*
X179457125Y-79293623D01*
X179465576Y-79260476D01*
X179467918Y-79228025D01*
X179465064Y-79200764D01*
X179456311Y-79169981D01*
X179441863Y-79140756D01*
X179421720Y-79113089D01*
X179399922Y-79090614D01*
X179378561Y-79072760D01*
X179350924Y-79053903D01*
X179318612Y-79037641D01*
X179286225Y-79027557D01*
X179253764Y-79023653D01*
X179230531Y-79024647D01*
X179199317Y-79030757D01*
X179166918Y-79043890D01*
X179138012Y-79063585D01*
X179115586Y-79086200D01*
X179109670Y-79093584D01*
X179092644Y-79120122D01*
X179080009Y-79149500D01*
X179075658Y-79164016D01*
X179069954Y-79195805D01*
X179068226Y-79228888D01*
X179069302Y-79258761D01*
X179073066Y-79294178D01*
X179078159Y-79327645D01*
X179084032Y-79360454D01*
X179091298Y-79397069D01*
X179096916Y-79423593D01*
X179103726Y-79455649D01*
X179110187Y-79487556D01*
X179116146Y-79519891D01*
X179119670Y-79544353D01*
X179121111Y-79576141D01*
X179119705Y-79599104D01*
X178868660Y-79407006D01*
G37*
G36*
X199981587Y-79095650D02*
G01*
X199782911Y-79762532D01*
X199711024Y-79707525D01*
X199776386Y-79505568D01*
X199562340Y-79341781D01*
X199381016Y-79455005D01*
X199303914Y-79396007D01*
X199463122Y-79302215D01*
X199625884Y-79302215D01*
X199799455Y-79435030D01*
X199858262Y-79241640D01*
X199868444Y-79210872D01*
X199879721Y-79180795D01*
X199892094Y-79151409D01*
X199905562Y-79122713D01*
X199899976Y-79126825D01*
X199871918Y-79146633D01*
X199842964Y-79166032D01*
X199814533Y-79184391D01*
X199787861Y-79201155D01*
X199625884Y-79302215D01*
X199463122Y-79302215D01*
X199908583Y-79039787D01*
X199981587Y-79095650D01*
G37*
G36*
X199380578Y-79241281D02*
G01*
X199324215Y-79184766D01*
X199299086Y-79204453D01*
X199271917Y-79220473D01*
X199240294Y-79231241D01*
X199229227Y-79232753D01*
X199197257Y-79230722D01*
X199167107Y-79219730D01*
X199148017Y-79207423D01*
X199123896Y-79184198D01*
X199107092Y-79157038D01*
X199097606Y-79125941D01*
X199096587Y-79119250D01*
X199096301Y-79086250D01*
X199104170Y-79054954D01*
X199120194Y-79025361D01*
X199124377Y-79019647D01*
X199146723Y-78996172D01*
X199175054Y-78978681D01*
X199207312Y-78969918D01*
X199240856Y-78970144D01*
X199272913Y-78979793D01*
X199300765Y-78996741D01*
X199324430Y-79019156D01*
X199339893Y-79037705D01*
X199378133Y-78973068D01*
X199367601Y-78965993D01*
X199342777Y-78943136D01*
X199323616Y-78916891D01*
X199311112Y-78890091D01*
X199305667Y-78859272D01*
X199313004Y-78826259D01*
X199327598Y-78801917D01*
X199351147Y-78779166D01*
X199381873Y-78765601D01*
X199394195Y-78763505D01*
X199426486Y-78765272D01*
X199457640Y-78777865D01*
X199471636Y-78787329D01*
X199494936Y-78810252D01*
X199510769Y-78839380D01*
X199515240Y-78856916D01*
X199515554Y-78889415D01*
X199507197Y-78921540D01*
X199494210Y-78949486D01*
X199565583Y-78986384D01*
X199579173Y-78955352D01*
X199587874Y-78924874D01*
X199591830Y-78890721D01*
X199589402Y-78857293D01*
X199587797Y-78849048D01*
X199577678Y-78817364D01*
X199561760Y-78788082D01*
X199540042Y-78761202D01*
X199516280Y-78739653D01*
X199512523Y-78736725D01*
X199485679Y-78718952D01*
X199454549Y-78704571D01*
X199421742Y-78695606D01*
X199388870Y-78692407D01*
X199357551Y-78695327D01*
X199330426Y-78703292D01*
X199300845Y-78718278D01*
X199275709Y-78738380D01*
X199261421Y-78754625D01*
X199244556Y-78782738D01*
X199235024Y-78813408D01*
X199233099Y-78828427D01*
X199234940Y-78861812D01*
X199244173Y-78893261D01*
X199252899Y-78911886D01*
X199223031Y-78901293D01*
X199190397Y-78896629D01*
X199158344Y-78899447D01*
X199148842Y-78901751D01*
X199118385Y-78914014D01*
X199090346Y-78933317D01*
X199067178Y-78956709D01*
X199059890Y-78965774D01*
X199040370Y-78996134D01*
X199027032Y-79028116D01*
X199019875Y-79061720D01*
X199018901Y-79096945D01*
X199021119Y-79117802D01*
X199028163Y-79148480D01*
X199041855Y-79181847D01*
X199061444Y-79212605D01*
X199082928Y-79236892D01*
X199108744Y-79259262D01*
X199138596Y-79279100D01*
X199169162Y-79293474D01*
X199200442Y-79302385D01*
X199232436Y-79305833D01*
X199251039Y-79305350D01*
X199282821Y-79300329D01*
X199312674Y-79290272D01*
X199340597Y-79275177D01*
X199366590Y-79255046D01*
X199380578Y-79241281D01*
G37*
G36*
X193869488Y-74418716D02*
G01*
X193670812Y-75085598D01*
X193598925Y-75030591D01*
X193664287Y-74828634D01*
X193450241Y-74664847D01*
X193268917Y-74778071D01*
X193191815Y-74719073D01*
X193351023Y-74625281D01*
X193513785Y-74625281D01*
X193687356Y-74758096D01*
X193746163Y-74564706D01*
X193756345Y-74533938D01*
X193767622Y-74503861D01*
X193779995Y-74474475D01*
X193793463Y-74445779D01*
X193787877Y-74449891D01*
X193759819Y-74469699D01*
X193730865Y-74489098D01*
X193702434Y-74507457D01*
X193675762Y-74524221D01*
X193513785Y-74625281D01*
X193351023Y-74625281D01*
X193796484Y-74362853D01*
X193869488Y-74418716D01*
G37*
G36*
X193309227Y-74016385D02*
G01*
X193336334Y-74023217D01*
X193365576Y-74036242D01*
X193394217Y-74055041D01*
X193413689Y-74071622D01*
X193435048Y-74095441D01*
X193452791Y-74124573D01*
X193463876Y-74156179D01*
X193468407Y-74186000D01*
X193468242Y-74217296D01*
X193463380Y-74250067D01*
X193453821Y-74284313D01*
X193448948Y-74297578D01*
X193434447Y-74329982D01*
X193418529Y-74359377D01*
X193399391Y-74390266D01*
X193380984Y-74417148D01*
X193360340Y-74445069D01*
X193339667Y-74471163D01*
X193319189Y-74495156D01*
X193292189Y-74523882D01*
X193265536Y-74548874D01*
X193239229Y-74570132D01*
X193213270Y-74587658D01*
X193181308Y-74604315D01*
X193149887Y-74615139D01*
X193119089Y-74620272D01*
X193083955Y-74619366D01*
X193049680Y-74611035D01*
X193020984Y-74597984D01*
X192992920Y-74579478D01*
X192973325Y-74562795D01*
X192951852Y-74538859D01*
X192934052Y-74509619D01*
X192922983Y-74477931D01*
X192918490Y-74447979D01*
X192918532Y-74441827D01*
X192991674Y-74441827D01*
X192996242Y-74474062D01*
X193009851Y-74504026D01*
X193032442Y-74527829D01*
X193040705Y-74533567D01*
X193070593Y-74546041D01*
X193104084Y-74548277D01*
X193137309Y-74541536D01*
X193145154Y-74538698D01*
X193174781Y-74522163D01*
X193202859Y-74499818D01*
X193228151Y-74475435D01*
X193249624Y-74452157D01*
X193272198Y-74425526D01*
X193295873Y-74395543D01*
X193301839Y-74387681D01*
X193323875Y-74357303D01*
X193342992Y-74328634D01*
X193362782Y-74295201D01*
X193378010Y-74264439D01*
X193390263Y-74231050D01*
X193396255Y-74196956D01*
X193396360Y-74193440D01*
X193392496Y-74160794D01*
X193377932Y-74130180D01*
X193355316Y-74107165D01*
X193346920Y-74101323D01*
X193316698Y-74088563D01*
X193283036Y-74086128D01*
X193249799Y-74092763D01*
X193241975Y-74095573D01*
X193212396Y-74112046D01*
X193184322Y-74134385D01*
X193159008Y-74158796D01*
X193137501Y-74182119D01*
X193114878Y-74208814D01*
X193091139Y-74238881D01*
X193085186Y-74246720D01*
X193063212Y-74276872D01*
X193044177Y-74305096D01*
X193024517Y-74337666D01*
X193009450Y-74367222D01*
X192997431Y-74398714D01*
X192991768Y-74429973D01*
X192991674Y-74441827D01*
X192918532Y-74441827D01*
X192918705Y-74416635D01*
X192923627Y-74383897D01*
X192933257Y-74349767D01*
X192938165Y-74336503D01*
X192952701Y-74304143D01*
X192968595Y-74274837D01*
X192987660Y-74244082D01*
X193005970Y-74217346D01*
X193026483Y-74189603D01*
X193037328Y-74175640D01*
X193058360Y-74149836D01*
X193081788Y-74123309D01*
X193107098Y-74097708D01*
X193130848Y-74077138D01*
X193136595Y-74072688D01*
X193162276Y-74054641D01*
X193190468Y-74038380D01*
X193221059Y-74025102D01*
X193243172Y-74018585D01*
X193276253Y-74014232D01*
X193309227Y-74016385D01*
G37*
G36*
X212043686Y-88347745D02*
G01*
X212074819Y-88359837D01*
X212102825Y-88375011D01*
X212129590Y-88392298D01*
X212158465Y-88413329D01*
X212385423Y-88586996D01*
X211990207Y-89103488D01*
X211922541Y-89051710D01*
X212097348Y-88823262D01*
X212018757Y-88763125D01*
X212006456Y-88753958D01*
X211979114Y-88736727D01*
X211969511Y-88733021D01*
X211937748Y-88726728D01*
X211909333Y-88728119D01*
X211877041Y-88734803D01*
X211867104Y-88737482D01*
X211835419Y-88747065D01*
X211804740Y-88757322D01*
X211773876Y-88768265D01*
X211624317Y-88823511D01*
X211539021Y-88758243D01*
X211735235Y-88686532D01*
X211746009Y-88682784D01*
X211777580Y-88673230D01*
X211811337Y-88665584D01*
X211843701Y-88661063D01*
X211872519Y-88661767D01*
X211904120Y-88666743D01*
X211892315Y-88654265D01*
X211871837Y-88629408D01*
X211853220Y-88600580D01*
X211838900Y-88567858D01*
X211832001Y-88535376D01*
X211831874Y-88527045D01*
X211914755Y-88527045D01*
X211917344Y-88558455D01*
X211930668Y-88588828D01*
X211946797Y-88610024D01*
X211969482Y-88632561D01*
X211995795Y-88654214D01*
X212141430Y-88765654D01*
X212273676Y-88592827D01*
X212111651Y-88468847D01*
X212101074Y-88461088D01*
X212073929Y-88444472D01*
X212042165Y-88432039D01*
X212010006Y-88429062D01*
X211988687Y-88432950D01*
X211960545Y-88446610D01*
X211937009Y-88469663D01*
X211922467Y-88494886D01*
X211914755Y-88527045D01*
X211831874Y-88527045D01*
X211831575Y-88507464D01*
X211837857Y-88472927D01*
X211849890Y-88443502D01*
X211867993Y-88415277D01*
X211872140Y-88410031D01*
X211894719Y-88386573D01*
X211920374Y-88367737D01*
X211949106Y-88353524D01*
X211979099Y-88344736D01*
X212011633Y-88342400D01*
X212043686Y-88347745D01*
G37*
G36*
X211630176Y-88559881D02*
G01*
X211570730Y-88505338D01*
X211546369Y-88527712D01*
X211519551Y-88545780D01*
X211499271Y-88554990D01*
X211468002Y-88561604D01*
X211435990Y-88560745D01*
X211415920Y-88557156D01*
X211383968Y-88546940D01*
X211355637Y-88533074D01*
X211327991Y-88514849D01*
X211325263Y-88512786D01*
X211300747Y-88491863D01*
X211278826Y-88467795D01*
X211265688Y-88448892D01*
X211251631Y-88419345D01*
X211245855Y-88387083D01*
X211245905Y-88383163D01*
X211251902Y-88351839D01*
X211265295Y-88327723D01*
X211289102Y-88305808D01*
X211311721Y-88296121D01*
X211343015Y-88293492D01*
X211376012Y-88299364D01*
X211381154Y-88300825D01*
X211412283Y-88311910D01*
X211444807Y-88325240D01*
X211476311Y-88338807D01*
X211491476Y-88345479D01*
X211521300Y-88358224D01*
X211552209Y-88370399D01*
X211582408Y-88380761D01*
X211615005Y-88388821D01*
X211649070Y-88391918D01*
X211680396Y-88389476D01*
X211706496Y-88382450D01*
X211734674Y-88368357D01*
X211759285Y-88348433D01*
X211773711Y-88331912D01*
X211791217Y-88303654D01*
X211802586Y-88272654D01*
X211807597Y-88242093D01*
X211806865Y-88210359D01*
X211799756Y-88178820D01*
X211786268Y-88147477D01*
X211782806Y-88141231D01*
X211764826Y-88113961D01*
X211743199Y-88088322D01*
X211717926Y-88064315D01*
X211702310Y-88051683D01*
X211673831Y-88031725D01*
X211645259Y-88015361D01*
X211616594Y-88002593D01*
X211587835Y-87993419D01*
X211556014Y-87987654D01*
X211521904Y-87987351D01*
X211489106Y-87993474D01*
X211479522Y-87996564D01*
X211449113Y-88010312D01*
X211421537Y-88029151D01*
X211396795Y-88053080D01*
X211392186Y-88058476D01*
X211453320Y-88113130D01*
X211477941Y-88091141D01*
X211506532Y-88074740D01*
X211539481Y-88066461D01*
X211545641Y-88066055D01*
X211577430Y-88069411D01*
X211607646Y-88080299D01*
X211635781Y-88096236D01*
X211653976Y-88109188D01*
X211678440Y-88129631D01*
X211700461Y-88152674D01*
X211719083Y-88180995D01*
X211726232Y-88200502D01*
X211729347Y-88231860D01*
X211720441Y-88264166D01*
X211712489Y-88276602D01*
X211688111Y-88298106D01*
X211657539Y-88306996D01*
X211623682Y-88302571D01*
X211591138Y-88292235D01*
X211561493Y-88280606D01*
X211527361Y-88265653D01*
X211498426Y-88252623D01*
X211467268Y-88239246D01*
X211435831Y-88226750D01*
X211403186Y-88215610D01*
X211388830Y-88211816D01*
X211355951Y-88206535D01*
X211322204Y-88206049D01*
X211288468Y-88212058D01*
X211282716Y-88213887D01*
X211252961Y-88227579D01*
X211226502Y-88247422D01*
X211205309Y-88270799D01*
X211188299Y-88297776D01*
X211176577Y-88327339D01*
X211170144Y-88359488D01*
X211169492Y-88366228D01*
X211169889Y-88400082D01*
X211176700Y-88433845D01*
X211188313Y-88464154D01*
X211193339Y-88474241D01*
X211211370Y-88503549D01*
X211230906Y-88528023D01*
X211253743Y-88551013D01*
X211276433Y-88569911D01*
X211302274Y-88588529D01*
X211331834Y-88606878D01*
X211360762Y-88621598D01*
X211393049Y-88633975D01*
X211408882Y-88638386D01*
X211440007Y-88643711D01*
X211474370Y-88644290D01*
X211508041Y-88639138D01*
X211530104Y-88632521D01*
X211561679Y-88618217D01*
X211590570Y-88599119D01*
X211613998Y-88578118D01*
X211630176Y-88559881D01*
G37*
G36*
X210873293Y-88248832D02*
G01*
X211222908Y-87791936D01*
X211391513Y-87920951D01*
X211437114Y-87861356D01*
X211031371Y-87550883D01*
X210985769Y-87610478D01*
X211155118Y-87740064D01*
X210805504Y-88196960D01*
X210873293Y-88248832D01*
G37*
G36*
X188209003Y-85872062D02*
G01*
X188241289Y-85878950D01*
X188273610Y-85891017D01*
X188285759Y-85896911D01*
X188313369Y-85912963D01*
X188341994Y-85932271D01*
X188370441Y-85953300D01*
X188546867Y-86088301D01*
X188151651Y-86604793D01*
X187966906Y-86463427D01*
X187961170Y-86458983D01*
X187937041Y-86438923D01*
X187913464Y-86416514D01*
X187891460Y-86391719D01*
X187879518Y-86375845D01*
X187862791Y-86348605D01*
X187850011Y-86319058D01*
X187845326Y-86302627D01*
X187840125Y-86269692D01*
X187839533Y-86243873D01*
X187922029Y-86243873D01*
X187922738Y-86277266D01*
X187923287Y-86281082D01*
X187932637Y-86311921D01*
X187948061Y-86339359D01*
X187949432Y-86341341D01*
X187970334Y-86366217D01*
X187994019Y-86388485D01*
X188020206Y-86409722D01*
X188129463Y-86493325D01*
X188433476Y-86096024D01*
X188325956Y-86013751D01*
X188314840Y-86005393D01*
X188287353Y-85986212D01*
X188260182Y-85970034D01*
X188230131Y-85957355D01*
X188217678Y-85954448D01*
X188185080Y-85952331D01*
X188153952Y-85956715D01*
X188121130Y-85967059D01*
X188098580Y-85977907D01*
X188072038Y-85995736D01*
X188045246Y-86019139D01*
X188022080Y-86043633D01*
X187998730Y-86072222D01*
X187982790Y-86094039D01*
X187964482Y-86122347D01*
X187947908Y-86153125D01*
X187935595Y-86182772D01*
X187927209Y-86211110D01*
X187922029Y-86243873D01*
X187839533Y-86243873D01*
X187839364Y-86236500D01*
X187839622Y-86230695D01*
X187843805Y-86197419D01*
X187851667Y-86165187D01*
X187862048Y-86134565D01*
X187875817Y-86102892D01*
X187891232Y-86074345D01*
X187909637Y-86045428D01*
X187928194Y-86019823D01*
X187941530Y-86003046D01*
X187965494Y-85976002D01*
X187990256Y-85951904D01*
X188015815Y-85930752D01*
X188042172Y-85912547D01*
X188073102Y-85895503D01*
X188104769Y-85882836D01*
X188137170Y-85874546D01*
X188170308Y-85870633D01*
X188176753Y-85870353D01*
X188209003Y-85872062D01*
G37*
G36*
X187802257Y-85545404D02*
G01*
X187832527Y-85553636D01*
X187862421Y-85567553D01*
X187891941Y-85587155D01*
X187900057Y-85593604D01*
X187925023Y-85617296D01*
X187944639Y-85642736D01*
X187960507Y-85673948D01*
X187969389Y-85707442D01*
X187971389Y-85741183D01*
X187966642Y-85773353D01*
X187955148Y-85803954D01*
X187936908Y-85832984D01*
X187923881Y-85848138D01*
X187899144Y-85868551D01*
X187868919Y-85882733D01*
X187845912Y-85887488D01*
X187812592Y-85886962D01*
X187779397Y-85879586D01*
X187786094Y-85888627D01*
X187802188Y-85916283D01*
X187813034Y-85947947D01*
X187816476Y-85980597D01*
X187815782Y-85993803D01*
X187808898Y-86026375D01*
X187796410Y-86055149D01*
X187777961Y-86083411D01*
X187764698Y-86099241D01*
X187739267Y-86122609D01*
X187711011Y-86140461D01*
X187679930Y-86152799D01*
X187646023Y-86159620D01*
X187615914Y-86160665D01*
X187581234Y-86155928D01*
X187547035Y-86144777D01*
X187518105Y-86130114D01*
X187489527Y-86110738D01*
X187467408Y-86092087D01*
X187444951Y-86068278D01*
X187424387Y-86038533D01*
X187409891Y-86006667D01*
X187401463Y-85972682D01*
X187399358Y-85952883D01*
X187399704Y-85941420D01*
X187475586Y-85941420D01*
X187476099Y-85972902D01*
X187476590Y-85976087D01*
X187486843Y-86008954D01*
X187503893Y-86035380D01*
X187528304Y-86058519D01*
X187531961Y-86061233D01*
X187561035Y-86077453D01*
X187593011Y-86086378D01*
X187597450Y-86086974D01*
X187629833Y-86086283D01*
X187660615Y-86076493D01*
X187662594Y-86075521D01*
X187689612Y-86058278D01*
X187712895Y-86034410D01*
X187714952Y-86031664D01*
X187731194Y-86003383D01*
X187739977Y-85970565D01*
X187739705Y-85939175D01*
X187738713Y-85932791D01*
X187729338Y-85902932D01*
X187712600Y-85876515D01*
X187688501Y-85853537D01*
X187682807Y-85849363D01*
X187653463Y-85833315D01*
X187622662Y-85825302D01*
X187590403Y-85825324D01*
X187583861Y-85826272D01*
X187553301Y-85835560D01*
X187526319Y-85852431D01*
X187502916Y-85876885D01*
X187500825Y-85879678D01*
X187484359Y-85908341D01*
X187475586Y-85941420D01*
X187399704Y-85941420D01*
X187400372Y-85919330D01*
X187407366Y-85887169D01*
X187420342Y-85856400D01*
X187439297Y-85827023D01*
X187446229Y-85818413D01*
X187468543Y-85795966D01*
X187496013Y-85776980D01*
X187526298Y-85764263D01*
X187539102Y-85760995D01*
X187572229Y-85757769D01*
X187603405Y-85760905D01*
X187635872Y-85769761D01*
X187625396Y-85750832D01*
X187618507Y-85731834D01*
X187684579Y-85731834D01*
X187688438Y-85749130D01*
X187703426Y-85777890D01*
X187726284Y-85800558D01*
X187742823Y-85811443D01*
X187772057Y-85822536D01*
X187804982Y-85823768D01*
X187822386Y-85819868D01*
X187851412Y-85804654D01*
X187874400Y-85781413D01*
X187881455Y-85770993D01*
X187893199Y-85739523D01*
X187893533Y-85707273D01*
X187889529Y-85689789D01*
X187874438Y-85660858D01*
X187851674Y-85638234D01*
X187838082Y-85629169D01*
X187807054Y-85617485D01*
X187773868Y-85616690D01*
X187756141Y-85620509D01*
X187727134Y-85635095D01*
X187704874Y-85657204D01*
X187696316Y-85670080D01*
X187685298Y-85699746D01*
X187684579Y-85731834D01*
X187618507Y-85731834D01*
X187613850Y-85718993D01*
X187610484Y-85685373D01*
X187612456Y-85667659D01*
X187622688Y-85636040D01*
X187639713Y-85608328D01*
X187663062Y-85583120D01*
X187689881Y-85563989D01*
X187720172Y-85550934D01*
X187753933Y-85543955D01*
X187767204Y-85542958D01*
X187802257Y-85545404D01*
G37*
G36*
X198335324Y-93620639D02*
G01*
X198367610Y-93627527D01*
X198399931Y-93639594D01*
X198412080Y-93645488D01*
X198439690Y-93661540D01*
X198468315Y-93680848D01*
X198496762Y-93701877D01*
X198673188Y-93836878D01*
X198277972Y-94353370D01*
X198093227Y-94212004D01*
X198087491Y-94207560D01*
X198063362Y-94187500D01*
X198039785Y-94165091D01*
X198017781Y-94140296D01*
X198005839Y-94124422D01*
X197989112Y-94097182D01*
X197976332Y-94067635D01*
X197971647Y-94051204D01*
X197966446Y-94018269D01*
X197965854Y-93992450D01*
X198048350Y-93992450D01*
X198049059Y-94025843D01*
X198049608Y-94029659D01*
X198058958Y-94060498D01*
X198074382Y-94087936D01*
X198075753Y-94089918D01*
X198096655Y-94114794D01*
X198120340Y-94137062D01*
X198146527Y-94158299D01*
X198255784Y-94241902D01*
X198559797Y-93844601D01*
X198452277Y-93762328D01*
X198441161Y-93753970D01*
X198413674Y-93734789D01*
X198386503Y-93718611D01*
X198356452Y-93705932D01*
X198343999Y-93703025D01*
X198311401Y-93700908D01*
X198280273Y-93705292D01*
X198247451Y-93715636D01*
X198224901Y-93726484D01*
X198198359Y-93744313D01*
X198171567Y-93767716D01*
X198148401Y-93792210D01*
X198125051Y-93820799D01*
X198109111Y-93842616D01*
X198090803Y-93870924D01*
X198074229Y-93901702D01*
X198061916Y-93931349D01*
X198053530Y-93959687D01*
X198048350Y-93992450D01*
X197965854Y-93992450D01*
X197965685Y-93985077D01*
X197965943Y-93979272D01*
X197970126Y-93945996D01*
X197977988Y-93913764D01*
X197988369Y-93883142D01*
X198002138Y-93851469D01*
X198017553Y-93822922D01*
X198035958Y-93794005D01*
X198054515Y-93768400D01*
X198067851Y-93751623D01*
X198091815Y-93724579D01*
X198116577Y-93700481D01*
X198142136Y-93679329D01*
X198168493Y-93661124D01*
X198199423Y-93644080D01*
X198231090Y-93631413D01*
X198263491Y-93623123D01*
X198296629Y-93619210D01*
X198303074Y-93618930D01*
X198335324Y-93620639D01*
G37*
G36*
X197892524Y-93845038D02*
G01*
X197836161Y-93788524D01*
X197811032Y-93808211D01*
X197783864Y-93824231D01*
X197752241Y-93834998D01*
X197741173Y-93836511D01*
X197709204Y-93834480D01*
X197679053Y-93823488D01*
X197659963Y-93811181D01*
X197635842Y-93787956D01*
X197619039Y-93760795D01*
X197609553Y-93729699D01*
X197608534Y-93723008D01*
X197608248Y-93690008D01*
X197616117Y-93658712D01*
X197632140Y-93629119D01*
X197636324Y-93623405D01*
X197658670Y-93599930D01*
X197687000Y-93582438D01*
X197719259Y-93573675D01*
X197752803Y-93573902D01*
X197784860Y-93583551D01*
X197812711Y-93600499D01*
X197836376Y-93622913D01*
X197851839Y-93641463D01*
X197890079Y-93576825D01*
X197879547Y-93569751D01*
X197854723Y-93546894D01*
X197835563Y-93520649D01*
X197823059Y-93493848D01*
X197817614Y-93463029D01*
X197824950Y-93430017D01*
X197839544Y-93405674D01*
X197863093Y-93382923D01*
X197893820Y-93369359D01*
X197906142Y-93367263D01*
X197938433Y-93369030D01*
X197969587Y-93381623D01*
X197983582Y-93391087D01*
X198006883Y-93414009D01*
X198022715Y-93443138D01*
X198027187Y-93460673D01*
X198027500Y-93493173D01*
X198019144Y-93525298D01*
X198006156Y-93553244D01*
X198077530Y-93590142D01*
X198091120Y-93559110D01*
X198099820Y-93528632D01*
X198103777Y-93494479D01*
X198101348Y-93461050D01*
X198099743Y-93452806D01*
X198089625Y-93421122D01*
X198073707Y-93391839D01*
X198051988Y-93364960D01*
X198028227Y-93343411D01*
X198024470Y-93340482D01*
X197997626Y-93322710D01*
X197966496Y-93308329D01*
X197933688Y-93299364D01*
X197900817Y-93296165D01*
X197869498Y-93299085D01*
X197842372Y-93307050D01*
X197812792Y-93322035D01*
X197787656Y-93342138D01*
X197773368Y-93358383D01*
X197756502Y-93386495D01*
X197746971Y-93417166D01*
X197745045Y-93432184D01*
X197746887Y-93465570D01*
X197756120Y-93497018D01*
X197764845Y-93515643D01*
X197734978Y-93505050D01*
X197702344Y-93500387D01*
X197670291Y-93503205D01*
X197660788Y-93505509D01*
X197630331Y-93517771D01*
X197602292Y-93537075D01*
X197579124Y-93560467D01*
X197571837Y-93569532D01*
X197552317Y-93599892D01*
X197538978Y-93631874D01*
X197531822Y-93665478D01*
X197530847Y-93700703D01*
X197533066Y-93721560D01*
X197540109Y-93752237D01*
X197553802Y-93785605D01*
X197573391Y-93816363D01*
X197594874Y-93840650D01*
X197620690Y-93863020D01*
X197650542Y-93882858D01*
X197681108Y-93897232D01*
X197712388Y-93906143D01*
X197744383Y-93909591D01*
X197762986Y-93909108D01*
X197794768Y-93904087D01*
X197824620Y-93894030D01*
X197852543Y-93878935D01*
X197878537Y-93858804D01*
X197892524Y-93845038D01*
G37*
G36*
X192223222Y-88943710D02*
G01*
X192255508Y-88950598D01*
X192287829Y-88962665D01*
X192299978Y-88968559D01*
X192327588Y-88984611D01*
X192356213Y-89003919D01*
X192384660Y-89024948D01*
X192561086Y-89159949D01*
X192165870Y-89676441D01*
X191981125Y-89535075D01*
X191975389Y-89530631D01*
X191951260Y-89510571D01*
X191927683Y-89488162D01*
X191905679Y-89463367D01*
X191893737Y-89447493D01*
X191877010Y-89420253D01*
X191864230Y-89390706D01*
X191859545Y-89374275D01*
X191854344Y-89341340D01*
X191853752Y-89315521D01*
X191936248Y-89315521D01*
X191936957Y-89348914D01*
X191937506Y-89352730D01*
X191946856Y-89383569D01*
X191962280Y-89411007D01*
X191963651Y-89412989D01*
X191984553Y-89437865D01*
X192008238Y-89460133D01*
X192034425Y-89481370D01*
X192143682Y-89564973D01*
X192447695Y-89167672D01*
X192340175Y-89085399D01*
X192329059Y-89077041D01*
X192301572Y-89057860D01*
X192274401Y-89041682D01*
X192244350Y-89029003D01*
X192231897Y-89026096D01*
X192199299Y-89023979D01*
X192168171Y-89028363D01*
X192135349Y-89038707D01*
X192112799Y-89049555D01*
X192086257Y-89067384D01*
X192059465Y-89090787D01*
X192036299Y-89115281D01*
X192012949Y-89143870D01*
X191997009Y-89165687D01*
X191978701Y-89193995D01*
X191962127Y-89224773D01*
X191949814Y-89254420D01*
X191941428Y-89282758D01*
X191936248Y-89315521D01*
X191853752Y-89315521D01*
X191853583Y-89308148D01*
X191853841Y-89302343D01*
X191858024Y-89269067D01*
X191865886Y-89236835D01*
X191876267Y-89206213D01*
X191890036Y-89174540D01*
X191905451Y-89145993D01*
X191923856Y-89117076D01*
X191942413Y-89091471D01*
X191955749Y-89074694D01*
X191979713Y-89047650D01*
X192004475Y-89023552D01*
X192030034Y-89002400D01*
X192056391Y-88984195D01*
X192087321Y-88967151D01*
X192118988Y-88954484D01*
X192151389Y-88946194D01*
X192184527Y-88942281D01*
X192190972Y-88942001D01*
X192223222Y-88943710D01*
G37*
G36*
X191802873Y-88608141D02*
G01*
X191834450Y-88615999D01*
X191865460Y-88630288D01*
X191892130Y-88648068D01*
X191901959Y-88655953D01*
X191927773Y-88681173D01*
X191948082Y-88708742D01*
X191962885Y-88738657D01*
X191972182Y-88770921D01*
X191975973Y-88805532D01*
X191974049Y-88840730D01*
X191966418Y-88877847D01*
X191956204Y-88908922D01*
X191942338Y-88941225D01*
X191924818Y-88974756D01*
X191903646Y-89009516D01*
X191885370Y-89036392D01*
X191865039Y-89063958D01*
X191839702Y-89095466D01*
X191814613Y-89123442D01*
X191789773Y-89147886D01*
X191765180Y-89168799D01*
X191734788Y-89189972D01*
X191704783Y-89205627D01*
X191669290Y-89217129D01*
X191657611Y-89219325D01*
X191623294Y-89222153D01*
X191590054Y-89219341D01*
X191557890Y-89210889D01*
X191526803Y-89196797D01*
X191496793Y-89177066D01*
X191491139Y-89172603D01*
X191465991Y-89148596D01*
X191446042Y-89121762D01*
X191431293Y-89092102D01*
X191427911Y-89082674D01*
X191420504Y-89050308D01*
X191420105Y-89041052D01*
X191493979Y-89041052D01*
X191499757Y-89072879D01*
X191514263Y-89102402D01*
X191537308Y-89126177D01*
X191540760Y-89128720D01*
X191569034Y-89143397D01*
X191601519Y-89150310D01*
X191613043Y-89150696D01*
X191645333Y-89145864D01*
X191675349Y-89133575D01*
X191688803Y-89125698D01*
X191715154Y-89105399D01*
X191737678Y-89080677D01*
X191744554Y-89071150D01*
X191760479Y-89042233D01*
X191769900Y-89009506D01*
X191770612Y-88976151D01*
X191770212Y-88972805D01*
X191762262Y-88941631D01*
X191745225Y-88912141D01*
X191722199Y-88889696D01*
X191719505Y-88887683D01*
X191691578Y-88872104D01*
X191658785Y-88864526D01*
X191627087Y-88866327D01*
X191611051Y-88870386D01*
X191580551Y-88885042D01*
X191554893Y-88905685D01*
X191533511Y-88929962D01*
X191521174Y-88947536D01*
X191506179Y-88975489D01*
X191496293Y-89006689D01*
X191493979Y-89041052D01*
X191420105Y-89041052D01*
X191419047Y-89016498D01*
X191422823Y-88984832D01*
X191426885Y-88967073D01*
X191437394Y-88936245D01*
X191452015Y-88906882D01*
X191470748Y-88878982D01*
X191488894Y-88857503D01*
X191512178Y-88835660D01*
X191541422Y-88815598D01*
X191572905Y-88801376D01*
X191606626Y-88792993D01*
X191626268Y-88790767D01*
X191659387Y-88791449D01*
X191690913Y-88797957D01*
X191720844Y-88810291D01*
X191749181Y-88828451D01*
X191766175Y-88843030D01*
X191788118Y-88868089D01*
X191805803Y-88896976D01*
X191816504Y-88923404D01*
X191823092Y-88954548D01*
X191824249Y-88987863D01*
X191831233Y-88978413D01*
X191850168Y-88951113D01*
X191868442Y-88921258D01*
X191884292Y-88889768D01*
X191895704Y-88857695D01*
X191901899Y-88824872D01*
X191902499Y-88791028D01*
X191896589Y-88759552D01*
X191894522Y-88753292D01*
X191878927Y-88724867D01*
X191856458Y-88702662D01*
X191837187Y-88690672D01*
X191806087Y-88681343D01*
X191772353Y-88682401D01*
X191761276Y-88685422D01*
X191732965Y-88699629D01*
X191705954Y-88719783D01*
X191647303Y-88667029D01*
X191650710Y-88663636D01*
X191675143Y-88642625D01*
X191704317Y-88624484D01*
X191734827Y-88612605D01*
X191766671Y-88606989D01*
X191770729Y-88606715D01*
X191802873Y-88608141D01*
G37*
G36*
X203995802Y-82167310D02*
G01*
X203797126Y-82834192D01*
X203725239Y-82779185D01*
X203790601Y-82577228D01*
X203576555Y-82413441D01*
X203395231Y-82526665D01*
X203318129Y-82467667D01*
X203477337Y-82373875D01*
X203640099Y-82373875D01*
X203813670Y-82506690D01*
X203872477Y-82313300D01*
X203882659Y-82282532D01*
X203893936Y-82252455D01*
X203906309Y-82223069D01*
X203919777Y-82194373D01*
X203914191Y-82198485D01*
X203886133Y-82218293D01*
X203857179Y-82237692D01*
X203828748Y-82256051D01*
X203802076Y-82272815D01*
X203640099Y-82373875D01*
X203477337Y-82373875D01*
X203922798Y-82111447D01*
X203995802Y-82167310D01*
G37*
G36*
X203395545Y-82312729D02*
G01*
X203333769Y-82256600D01*
X203308779Y-82277546D01*
X203280820Y-82293624D01*
X203249833Y-82302560D01*
X203244173Y-82303200D01*
X203211251Y-82301521D01*
X203180460Y-82290619D01*
X203161115Y-82278228D01*
X203136766Y-82254175D01*
X203120365Y-82225362D01*
X203111913Y-82191789D01*
X203111177Y-82184504D01*
X203112378Y-82151347D01*
X203121318Y-82118414D01*
X203135763Y-82089327D01*
X203150609Y-82067628D01*
X203172435Y-82043027D01*
X203198862Y-82022283D01*
X203227271Y-82008880D01*
X203247311Y-82004023D01*
X203280824Y-82003091D01*
X203313248Y-82011170D01*
X203341499Y-82026143D01*
X203350720Y-82032756D01*
X203374001Y-82054942D01*
X203391785Y-82082933D01*
X203394452Y-82089055D01*
X203403387Y-82120143D01*
X203404816Y-82151543D01*
X203404440Y-82155753D01*
X203469304Y-82193183D01*
X203620604Y-81892809D01*
X203365959Y-81697956D01*
X203320357Y-81757551D01*
X203524719Y-81913927D01*
X203447017Y-82072584D01*
X203433794Y-82041452D01*
X203417130Y-82013691D01*
X203397026Y-81989301D01*
X203373480Y-81968282D01*
X203343443Y-81948839D01*
X203311995Y-81935401D01*
X203279137Y-81927967D01*
X203244868Y-81926537D01*
X203224652Y-81928416D01*
X203190087Y-81936298D01*
X203157978Y-81950129D01*
X203128326Y-81969908D01*
X203104865Y-81991597D01*
X203086692Y-82013010D01*
X203068604Y-82039597D01*
X203052390Y-82071679D01*
X203041440Y-82104908D01*
X203035756Y-82139282D01*
X203034918Y-82164537D01*
X203038423Y-82200870D01*
X203047811Y-82234742D01*
X203063083Y-82266153D01*
X203084236Y-82295104D01*
X203106359Y-82317350D01*
X203121593Y-82329877D01*
X203147954Y-82347869D01*
X203179084Y-82363635D01*
X203210619Y-82373777D01*
X203242558Y-82378294D01*
X203265619Y-82378077D01*
X203297162Y-82373067D01*
X203326957Y-82362858D01*
X203355004Y-82347449D01*
X203381302Y-82326840D01*
X203395545Y-82312729D01*
G37*
G36*
X208091341Y-103703446D02*
G01*
X208126080Y-103622546D01*
X208094859Y-103610554D01*
X208064332Y-103601725D01*
X208028613Y-103595308D01*
X207993893Y-103593447D01*
X207960171Y-103596142D01*
X207938245Y-103600471D01*
X207906621Y-103610499D01*
X207876793Y-103624657D01*
X207848761Y-103642943D01*
X207822525Y-103665357D01*
X207798085Y-103691901D01*
X207790337Y-103701666D01*
X207771940Y-103727423D01*
X207753573Y-103758011D01*
X207739252Y-103788249D01*
X207728977Y-103818137D01*
X207722105Y-103852563D01*
X207721153Y-103862312D01*
X207721004Y-103896237D01*
X207725563Y-103930015D01*
X207734832Y-103963648D01*
X207748808Y-103997135D01*
X207758909Y-104016204D01*
X207776320Y-104044111D01*
X207795850Y-104070622D01*
X207817500Y-104095738D01*
X207841270Y-104119458D01*
X207867160Y-104141783D01*
X207876260Y-104148915D01*
X207906528Y-104170373D01*
X207936989Y-104188574D01*
X207967644Y-104203519D01*
X207998494Y-104215208D01*
X208029537Y-104223640D01*
X208039928Y-104225727D01*
X208075902Y-104230108D01*
X208111010Y-104229908D01*
X208145253Y-104225128D01*
X208178630Y-104215766D01*
X208197314Y-104208360D01*
X208228777Y-104192402D01*
X208258077Y-104173092D01*
X208285212Y-104150431D01*
X208310183Y-104124419D01*
X208323481Y-104108049D01*
X208343483Y-104079024D01*
X208359385Y-104049587D01*
X208371186Y-104019740D01*
X208379771Y-103984398D01*
X208382774Y-103948496D01*
X208380278Y-103912654D01*
X208372365Y-103877489D01*
X208361271Y-103847887D01*
X208346197Y-103818784D01*
X208327144Y-103790178D01*
X208260264Y-103844909D01*
X208277230Y-103871432D01*
X208291536Y-103900852D01*
X208301147Y-103932813D01*
X208303927Y-103960211D01*
X208300168Y-103993614D01*
X208288718Y-104026514D01*
X208271838Y-104055696D01*
X208264827Y-104065333D01*
X208244423Y-104089168D01*
X208219482Y-104111592D01*
X208192813Y-104128879D01*
X208160743Y-104142187D01*
X208127512Y-104149138D01*
X208094037Y-104150017D01*
X208060319Y-104144824D01*
X208041482Y-104139316D01*
X208011902Y-104127791D01*
X207983466Y-104113968D01*
X207956173Y-104097845D01*
X207930025Y-104079424D01*
X207902680Y-104057058D01*
X207878329Y-104034102D01*
X207856974Y-104010555D01*
X207836236Y-103982921D01*
X207829467Y-103972359D01*
X207814810Y-103943906D01*
X207804410Y-103911586D01*
X207800459Y-103878937D01*
X207801408Y-103856989D01*
X207807357Y-103824840D01*
X207817953Y-103794595D01*
X207833195Y-103766256D01*
X207843671Y-103751335D01*
X207866691Y-103725592D01*
X207892238Y-103705229D01*
X207920313Y-103690245D01*
X207950916Y-103680640D01*
X207983593Y-103676879D01*
X208017889Y-103679426D01*
X208049227Y-103686830D01*
X208081806Y-103699064D01*
X208091341Y-103703446D01*
G37*
G36*
X208021543Y-103415978D02*
G01*
X208538034Y-103811194D01*
X208591141Y-103741791D01*
X208391424Y-103162585D01*
X208796920Y-103472867D01*
X208846607Y-103407933D01*
X208330115Y-103012717D01*
X208277008Y-103082121D01*
X208477098Y-103661612D01*
X208071230Y-103351044D01*
X208021543Y-103415978D01*
G37*
G36*
X208530349Y-103029909D02*
G01*
X208586863Y-102973546D01*
X208567176Y-102948418D01*
X208551157Y-102921249D01*
X208540389Y-102889626D01*
X208538877Y-102878558D01*
X208540907Y-102846589D01*
X208551900Y-102816438D01*
X208564206Y-102797349D01*
X208587431Y-102773227D01*
X208614592Y-102756424D01*
X208645688Y-102746938D01*
X208652380Y-102745919D01*
X208685379Y-102745633D01*
X208716675Y-102753502D01*
X208746268Y-102769525D01*
X208751983Y-102773709D01*
X208775458Y-102796055D01*
X208792949Y-102824385D01*
X208801712Y-102856644D01*
X208801485Y-102890188D01*
X208791836Y-102922245D01*
X208774888Y-102950096D01*
X208752474Y-102973761D01*
X208733924Y-102989224D01*
X208798562Y-103027464D01*
X208805636Y-103016932D01*
X208828493Y-102992108D01*
X208854738Y-102972948D01*
X208881539Y-102960444D01*
X208912358Y-102954999D01*
X208945370Y-102962336D01*
X208969713Y-102976929D01*
X208992464Y-103000478D01*
X209006028Y-103031205D01*
X209008124Y-103043527D01*
X209006357Y-103075818D01*
X208993764Y-103106972D01*
X208984301Y-103120968D01*
X208961378Y-103144268D01*
X208932249Y-103160100D01*
X208914714Y-103164572D01*
X208882215Y-103164886D01*
X208850089Y-103156529D01*
X208822143Y-103143541D01*
X208785246Y-103214915D01*
X208816277Y-103228505D01*
X208846755Y-103237205D01*
X208880908Y-103241162D01*
X208914337Y-103238733D01*
X208922581Y-103237128D01*
X208954266Y-103227010D01*
X208983548Y-103211092D01*
X209010428Y-103189373D01*
X209031977Y-103165612D01*
X209034905Y-103161855D01*
X209052677Y-103135011D01*
X209067058Y-103103881D01*
X209076024Y-103071073D01*
X209079222Y-103038202D01*
X209076302Y-103006883D01*
X209068338Y-102979758D01*
X209053352Y-102950177D01*
X209033249Y-102925041D01*
X209017004Y-102910753D01*
X208988892Y-102893887D01*
X208958221Y-102884356D01*
X208943203Y-102882430D01*
X208909818Y-102884272D01*
X208878369Y-102893505D01*
X208859744Y-102902231D01*
X208870337Y-102872363D01*
X208875000Y-102839729D01*
X208872183Y-102807676D01*
X208869879Y-102798173D01*
X208857616Y-102767716D01*
X208838313Y-102739677D01*
X208814920Y-102716509D01*
X208805855Y-102709222D01*
X208775495Y-102689702D01*
X208743513Y-102676363D01*
X208709910Y-102669207D01*
X208674684Y-102668232D01*
X208653827Y-102670451D01*
X208623150Y-102677494D01*
X208589782Y-102691187D01*
X208559024Y-102710776D01*
X208534737Y-102732259D01*
X208512367Y-102758075D01*
X208492529Y-102787927D01*
X208478155Y-102818493D01*
X208469244Y-102849773D01*
X208465797Y-102881768D01*
X208466280Y-102900371D01*
X208471300Y-102932153D01*
X208481358Y-102962005D01*
X208496452Y-102989928D01*
X208516584Y-103015922D01*
X208530349Y-103029909D01*
G37*
G36*
X200231474Y-95071575D02*
G01*
X200263760Y-95078463D01*
X200296081Y-95090530D01*
X200308230Y-95096424D01*
X200335840Y-95112476D01*
X200364465Y-95131784D01*
X200392912Y-95152813D01*
X200569338Y-95287814D01*
X200174122Y-95804306D01*
X199989377Y-95662940D01*
X199983641Y-95658496D01*
X199959512Y-95638436D01*
X199935935Y-95616027D01*
X199913931Y-95591232D01*
X199901989Y-95575358D01*
X199885262Y-95548118D01*
X199872482Y-95518571D01*
X199867797Y-95502140D01*
X199862596Y-95469205D01*
X199862004Y-95443386D01*
X199944500Y-95443386D01*
X199945209Y-95476779D01*
X199945758Y-95480595D01*
X199955108Y-95511434D01*
X199970532Y-95538872D01*
X199971903Y-95540854D01*
X199992805Y-95565730D01*
X200016490Y-95587998D01*
X200042677Y-95609235D01*
X200151934Y-95692838D01*
X200455947Y-95295537D01*
X200348427Y-95213264D01*
X200337311Y-95204906D01*
X200309824Y-95185725D01*
X200282653Y-95169547D01*
X200252602Y-95156868D01*
X200240149Y-95153961D01*
X200207551Y-95151844D01*
X200176423Y-95156228D01*
X200143601Y-95166572D01*
X200121051Y-95177420D01*
X200094509Y-95195249D01*
X200067717Y-95218652D01*
X200044551Y-95243146D01*
X200021201Y-95271735D01*
X200005261Y-95293552D01*
X199986953Y-95321860D01*
X199970379Y-95352638D01*
X199958066Y-95382285D01*
X199949680Y-95410623D01*
X199944500Y-95443386D01*
X199862004Y-95443386D01*
X199861835Y-95436013D01*
X199862093Y-95430208D01*
X199866276Y-95396932D01*
X199874138Y-95364700D01*
X199884519Y-95334078D01*
X199898288Y-95302405D01*
X199913703Y-95273858D01*
X199932108Y-95244941D01*
X199950665Y-95219336D01*
X199964001Y-95202559D01*
X199987965Y-95175515D01*
X200012727Y-95151417D01*
X200038286Y-95130265D01*
X200064643Y-95112060D01*
X200095573Y-95095016D01*
X200127240Y-95082349D01*
X200159641Y-95074059D01*
X200192779Y-95070146D01*
X200199224Y-95069866D01*
X200231474Y-95071575D01*
G37*
G36*
X199401283Y-95118445D02*
G01*
X199355681Y-95178040D01*
X199694132Y-95437020D01*
X199711258Y-95410470D01*
X199720249Y-95387712D01*
X199727589Y-95355779D01*
X199730929Y-95324563D01*
X199731095Y-95291263D01*
X199730937Y-95287819D01*
X199728054Y-95254297D01*
X199723188Y-95220541D01*
X199717151Y-95187947D01*
X199709453Y-95152501D01*
X199708218Y-95147204D01*
X199701068Y-95115081D01*
X199693545Y-95078008D01*
X199687594Y-95044358D01*
X199682527Y-95008496D01*
X199679476Y-94972886D01*
X199679182Y-94951559D01*
X199682063Y-94918321D01*
X199690107Y-94886374D01*
X199704843Y-94857292D01*
X199708185Y-94852686D01*
X199732334Y-94828940D01*
X199761461Y-94814318D01*
X199783644Y-94809639D01*
X199815208Y-94810368D01*
X199845894Y-94820147D01*
X199873028Y-94836892D01*
X199897534Y-94860047D01*
X199915494Y-94888801D01*
X199924028Y-94920997D01*
X199922608Y-94955019D01*
X199912369Y-94986248D01*
X199895868Y-95014596D01*
X199891263Y-95020927D01*
X199961050Y-95063500D01*
X199977643Y-95034025D01*
X199989748Y-95005061D01*
X199998199Y-94971915D01*
X200000542Y-94939464D01*
X199997687Y-94912202D01*
X199988934Y-94881419D01*
X199974486Y-94852194D01*
X199954343Y-94824527D01*
X199932545Y-94802053D01*
X199911184Y-94784198D01*
X199883547Y-94765341D01*
X199851235Y-94749079D01*
X199818848Y-94738996D01*
X199786387Y-94735091D01*
X199763155Y-94736085D01*
X199731940Y-94742195D01*
X199699541Y-94755329D01*
X199670636Y-94775023D01*
X199648209Y-94797638D01*
X199642293Y-94805022D01*
X199625268Y-94831561D01*
X199612632Y-94860938D01*
X199608281Y-94875455D01*
X199602577Y-94907244D01*
X199600849Y-94940326D01*
X199601926Y-94970199D01*
X199605689Y-95005616D01*
X199610782Y-95039083D01*
X199616656Y-95071892D01*
X199623922Y-95108507D01*
X199629539Y-95135032D01*
X199636349Y-95167088D01*
X199642810Y-95198995D01*
X199648770Y-95231329D01*
X199652294Y-95255791D01*
X199653735Y-95287580D01*
X199652328Y-95310543D01*
X199401283Y-95118445D01*
G37*
G36*
X208030193Y-85254396D02*
G01*
X207831517Y-85921278D01*
X207759630Y-85866271D01*
X207824992Y-85664314D01*
X207610946Y-85500527D01*
X207429622Y-85613751D01*
X207352520Y-85554753D01*
X207511728Y-85460961D01*
X207674490Y-85460961D01*
X207848061Y-85593776D01*
X207906868Y-85400386D01*
X207917050Y-85369618D01*
X207928327Y-85339541D01*
X207940700Y-85310155D01*
X207954168Y-85281459D01*
X207948582Y-85285571D01*
X207920524Y-85305379D01*
X207891570Y-85324778D01*
X207863139Y-85343137D01*
X207836467Y-85359901D01*
X207674490Y-85460961D01*
X207511728Y-85460961D01*
X207957189Y-85198533D01*
X208030193Y-85254396D01*
G37*
G36*
X207665885Y-85082717D02*
G01*
X207711486Y-85023122D01*
X207380112Y-84769556D01*
X207342681Y-84818474D01*
X207345032Y-84853349D01*
X207345464Y-84890603D01*
X207344359Y-84923467D01*
X207341923Y-84957984D01*
X207338154Y-84994153D01*
X207333053Y-85031976D01*
X207326651Y-85070274D01*
X207318999Y-85108010D01*
X207310095Y-85145182D01*
X207299940Y-85181791D01*
X207288534Y-85217837D01*
X207275877Y-85253319D01*
X207270464Y-85267355D01*
X207258168Y-85297092D01*
X207244252Y-85326958D01*
X207228713Y-85356954D01*
X207211553Y-85387079D01*
X207192771Y-85417334D01*
X207186151Y-85427448D01*
X207250836Y-85476945D01*
X207270655Y-85447902D01*
X207287483Y-85419827D01*
X207304163Y-85388815D01*
X207317950Y-85360729D01*
X207331635Y-85330604D01*
X207339797Y-85311550D01*
X207352760Y-85278898D01*
X207364522Y-85245819D01*
X207375084Y-85212310D01*
X207384446Y-85178374D01*
X207392606Y-85144009D01*
X207399567Y-85109216D01*
X207402015Y-85095178D01*
X207407323Y-85060476D01*
X207411430Y-85026805D01*
X207414333Y-84994166D01*
X207416035Y-84962557D01*
X207416489Y-84925988D01*
X207415212Y-84890904D01*
X207665885Y-85082717D01*
G37*
G36*
X195947199Y-76008567D02*
G01*
X195748523Y-76675449D01*
X195676636Y-76620442D01*
X195741998Y-76418485D01*
X195527952Y-76254698D01*
X195346628Y-76367922D01*
X195269526Y-76308924D01*
X195428734Y-76215132D01*
X195591496Y-76215132D01*
X195765067Y-76347947D01*
X195823874Y-76154557D01*
X195834056Y-76123789D01*
X195845333Y-76093712D01*
X195857706Y-76064326D01*
X195871174Y-76035630D01*
X195865588Y-76039742D01*
X195837530Y-76059550D01*
X195808576Y-76078949D01*
X195780145Y-76097308D01*
X195753473Y-76114072D01*
X195591496Y-76215132D01*
X195428734Y-76215132D01*
X195874195Y-75952704D01*
X195947199Y-76008567D01*
G37*
G36*
X195006811Y-76107896D02*
G01*
X195069634Y-76155968D01*
X195377637Y-75753452D01*
X195384056Y-75784496D01*
X195393437Y-75815629D01*
X195403601Y-75843005D01*
X195416274Y-75872665D01*
X195430392Y-75901518D01*
X195444695Y-75926420D01*
X195493337Y-75862852D01*
X195479495Y-75834425D01*
X195466155Y-75801921D01*
X195455462Y-75769400D01*
X195447416Y-75736861D01*
X195446596Y-75732793D01*
X195441545Y-75701479D01*
X195439073Y-75669208D01*
X195440310Y-75637020D01*
X195442502Y-75622376D01*
X195402027Y-75591404D01*
X195006811Y-76107896D01*
G37*
G36*
X182298616Y-81349464D02*
G01*
X182330902Y-81356352D01*
X182363223Y-81368419D01*
X182375372Y-81374313D01*
X182402982Y-81390365D01*
X182431607Y-81409673D01*
X182460054Y-81430702D01*
X182636480Y-81565703D01*
X182241264Y-82082195D01*
X182056519Y-81940829D01*
X182050783Y-81936385D01*
X182026654Y-81916325D01*
X182003077Y-81893916D01*
X181981073Y-81869121D01*
X181969131Y-81853247D01*
X181952404Y-81826007D01*
X181939624Y-81796460D01*
X181934939Y-81780029D01*
X181929738Y-81747094D01*
X181929146Y-81721275D01*
X182011642Y-81721275D01*
X182012351Y-81754668D01*
X182012900Y-81758484D01*
X182022250Y-81789323D01*
X182037674Y-81816761D01*
X182039045Y-81818743D01*
X182059947Y-81843619D01*
X182083632Y-81865887D01*
X182109819Y-81887124D01*
X182219076Y-81970727D01*
X182523089Y-81573426D01*
X182415569Y-81491153D01*
X182404453Y-81482795D01*
X182376966Y-81463614D01*
X182349795Y-81447436D01*
X182319744Y-81434757D01*
X182307291Y-81431850D01*
X182274693Y-81429733D01*
X182243565Y-81434117D01*
X182210743Y-81444461D01*
X182188193Y-81455309D01*
X182161651Y-81473138D01*
X182134859Y-81496541D01*
X182111693Y-81521035D01*
X182088343Y-81549624D01*
X182072403Y-81571441D01*
X182054095Y-81599749D01*
X182037521Y-81630527D01*
X182025208Y-81660174D01*
X182016822Y-81688512D01*
X182011642Y-81721275D01*
X181929146Y-81721275D01*
X181928977Y-81713902D01*
X181929235Y-81708097D01*
X181933418Y-81674821D01*
X181941280Y-81642589D01*
X181951661Y-81611967D01*
X181965430Y-81580294D01*
X181980845Y-81551747D01*
X181999250Y-81522830D01*
X182017807Y-81497225D01*
X182031143Y-81480448D01*
X182055107Y-81453404D01*
X182079869Y-81429306D01*
X182105428Y-81408154D01*
X182131785Y-81389949D01*
X182162715Y-81372905D01*
X182194382Y-81360238D01*
X182226783Y-81351948D01*
X182259921Y-81348035D01*
X182266366Y-81347755D01*
X182298616Y-81349464D01*
G37*
G36*
X181516437Y-81527562D02*
G01*
X181579261Y-81575634D01*
X181887263Y-81173118D01*
X181893683Y-81204162D01*
X181903064Y-81235295D01*
X181913227Y-81262671D01*
X181925900Y-81292331D01*
X181940018Y-81321184D01*
X181954322Y-81346086D01*
X182002964Y-81282517D01*
X181989121Y-81254091D01*
X181975782Y-81221587D01*
X181965089Y-81189066D01*
X181957042Y-81156527D01*
X181956222Y-81152458D01*
X181951172Y-81121145D01*
X181948699Y-81088873D01*
X181949937Y-81056686D01*
X181952129Y-81042041D01*
X181911654Y-81011070D01*
X181516437Y-81527562D01*
G37*
G36*
X181173765Y-81265351D02*
G01*
X181236588Y-81313423D01*
X181544591Y-80910907D01*
X181551010Y-80941951D01*
X181560391Y-80973084D01*
X181570555Y-81000460D01*
X181583228Y-81030120D01*
X181597346Y-81058973D01*
X181611649Y-81083875D01*
X181660291Y-81020307D01*
X181646449Y-80991880D01*
X181633109Y-80959376D01*
X181622416Y-80926855D01*
X181614370Y-80894316D01*
X181613550Y-80890248D01*
X181608499Y-80858934D01*
X181606027Y-80826663D01*
X181607265Y-80794475D01*
X181609457Y-80779831D01*
X181568981Y-80748859D01*
X181173765Y-81265351D01*
G37*
G36*
X194260589Y-90502684D02*
G01*
X194292875Y-90509572D01*
X194325196Y-90521639D01*
X194337345Y-90527533D01*
X194364955Y-90543585D01*
X194393580Y-90562893D01*
X194422027Y-90583922D01*
X194598453Y-90718923D01*
X194203237Y-91235415D01*
X194018492Y-91094049D01*
X194012756Y-91089605D01*
X193988627Y-91069545D01*
X193965050Y-91047136D01*
X193943046Y-91022341D01*
X193931104Y-91006467D01*
X193914377Y-90979227D01*
X193901597Y-90949680D01*
X193896912Y-90933249D01*
X193891711Y-90900314D01*
X193891119Y-90874495D01*
X193973615Y-90874495D01*
X193974324Y-90907888D01*
X193974873Y-90911704D01*
X193984223Y-90942543D01*
X193999647Y-90969981D01*
X194001018Y-90971963D01*
X194021920Y-90996839D01*
X194045605Y-91019107D01*
X194071792Y-91040344D01*
X194181049Y-91123947D01*
X194485062Y-90726646D01*
X194377542Y-90644373D01*
X194366426Y-90636015D01*
X194338939Y-90616834D01*
X194311768Y-90600656D01*
X194281717Y-90587977D01*
X194269264Y-90585070D01*
X194236666Y-90582953D01*
X194205538Y-90587337D01*
X194172716Y-90597681D01*
X194150166Y-90608529D01*
X194123624Y-90626358D01*
X194096832Y-90649761D01*
X194073666Y-90674255D01*
X194050316Y-90702844D01*
X194034376Y-90724661D01*
X194016068Y-90752969D01*
X193999494Y-90783747D01*
X193987181Y-90813394D01*
X193978795Y-90841732D01*
X193973615Y-90874495D01*
X193891119Y-90874495D01*
X193890950Y-90867122D01*
X193891208Y-90861317D01*
X193895391Y-90828041D01*
X193903253Y-90795809D01*
X193913634Y-90765187D01*
X193927403Y-90733514D01*
X193942818Y-90704967D01*
X193961223Y-90676050D01*
X193979780Y-90650445D01*
X193993116Y-90633668D01*
X194017080Y-90606624D01*
X194041842Y-90582526D01*
X194067401Y-90561374D01*
X194093758Y-90543169D01*
X194124688Y-90526125D01*
X194156355Y-90513458D01*
X194188756Y-90505168D01*
X194221894Y-90501255D01*
X194228339Y-90500975D01*
X194260589Y-90502684D01*
G37*
G36*
X193818542Y-90726872D02*
G01*
X193756765Y-90670743D01*
X193731775Y-90691689D01*
X193703817Y-90707767D01*
X193672829Y-90716703D01*
X193667169Y-90717343D01*
X193634248Y-90715664D01*
X193603456Y-90704762D01*
X193584111Y-90692371D01*
X193559762Y-90668318D01*
X193543362Y-90639505D01*
X193534910Y-90605932D01*
X193534173Y-90598646D01*
X193535374Y-90565490D01*
X193544315Y-90532556D01*
X193558759Y-90503470D01*
X193573605Y-90481770D01*
X193595432Y-90457169D01*
X193621859Y-90436426D01*
X193650267Y-90423023D01*
X193670307Y-90418166D01*
X193703820Y-90417234D01*
X193736244Y-90425312D01*
X193764495Y-90440286D01*
X193773716Y-90446899D01*
X193796997Y-90469084D01*
X193814781Y-90497076D01*
X193817449Y-90503198D01*
X193826384Y-90534286D01*
X193827813Y-90565686D01*
X193827436Y-90569896D01*
X193892301Y-90607325D01*
X194043601Y-90306952D01*
X193788955Y-90112099D01*
X193743354Y-90171694D01*
X193947715Y-90328070D01*
X193870014Y-90486727D01*
X193856791Y-90455594D01*
X193840127Y-90427833D01*
X193820022Y-90403443D01*
X193796477Y-90382424D01*
X193766439Y-90362982D01*
X193734992Y-90349544D01*
X193702133Y-90342110D01*
X193667864Y-90340680D01*
X193647649Y-90342559D01*
X193613084Y-90350441D01*
X193580975Y-90364272D01*
X193551322Y-90384051D01*
X193527861Y-90405740D01*
X193509688Y-90427153D01*
X193491600Y-90453740D01*
X193475386Y-90485822D01*
X193464437Y-90519051D01*
X193458752Y-90553425D01*
X193457915Y-90578680D01*
X193461420Y-90615012D01*
X193470808Y-90648884D01*
X193486079Y-90680296D01*
X193507233Y-90709247D01*
X193529355Y-90731493D01*
X193544589Y-90744020D01*
X193570951Y-90762011D01*
X193602081Y-90777778D01*
X193633615Y-90787920D01*
X193665554Y-90792437D01*
X193688616Y-90792219D01*
X193720159Y-90787210D01*
X193749954Y-90777001D01*
X193778000Y-90761592D01*
X193804299Y-90740983D01*
X193818542Y-90726872D01*
G37*
G36*
X190118578Y-87149848D02*
G01*
X190150864Y-87156736D01*
X190183185Y-87168803D01*
X190195334Y-87174697D01*
X190222944Y-87190749D01*
X190251569Y-87210057D01*
X190280016Y-87231086D01*
X190456442Y-87366087D01*
X190061226Y-87882579D01*
X189876481Y-87741213D01*
X189870745Y-87736769D01*
X189846616Y-87716709D01*
X189823039Y-87694300D01*
X189801035Y-87669505D01*
X189789093Y-87653631D01*
X189772366Y-87626391D01*
X189759586Y-87596844D01*
X189754901Y-87580413D01*
X189749700Y-87547478D01*
X189749108Y-87521659D01*
X189831604Y-87521659D01*
X189832313Y-87555052D01*
X189832862Y-87558868D01*
X189842212Y-87589707D01*
X189857636Y-87617145D01*
X189859007Y-87619127D01*
X189879909Y-87644003D01*
X189903594Y-87666271D01*
X189929781Y-87687508D01*
X190039038Y-87771111D01*
X190343051Y-87373810D01*
X190235531Y-87291537D01*
X190224415Y-87283179D01*
X190196928Y-87263998D01*
X190169757Y-87247820D01*
X190139706Y-87235141D01*
X190127253Y-87232234D01*
X190094655Y-87230117D01*
X190063527Y-87234501D01*
X190030705Y-87244845D01*
X190008155Y-87255693D01*
X189981613Y-87273522D01*
X189954821Y-87296925D01*
X189931655Y-87321419D01*
X189908305Y-87350008D01*
X189892365Y-87371825D01*
X189874057Y-87400133D01*
X189857483Y-87430911D01*
X189845170Y-87460558D01*
X189836784Y-87488896D01*
X189831604Y-87521659D01*
X189749108Y-87521659D01*
X189748939Y-87514286D01*
X189749197Y-87508481D01*
X189753380Y-87475205D01*
X189761242Y-87442973D01*
X189771623Y-87412351D01*
X189785392Y-87380678D01*
X189800807Y-87352131D01*
X189819212Y-87323214D01*
X189837769Y-87297609D01*
X189851105Y-87280832D01*
X189875069Y-87253788D01*
X189899831Y-87229690D01*
X189925390Y-87208538D01*
X189951747Y-87190333D01*
X189982677Y-87173289D01*
X190014344Y-87160622D01*
X190046745Y-87152332D01*
X190079883Y-87148419D01*
X190086328Y-87148139D01*
X190118578Y-87149848D01*
G37*
G36*
X189912479Y-87056938D02*
G01*
X189958081Y-86997342D01*
X189626707Y-86743777D01*
X189589275Y-86792695D01*
X189591626Y-86827569D01*
X189592059Y-86864824D01*
X189590954Y-86897688D01*
X189588517Y-86932205D01*
X189584748Y-86968374D01*
X189579647Y-87006197D01*
X189573246Y-87044495D01*
X189565593Y-87082231D01*
X189556689Y-87119403D01*
X189546534Y-87156012D01*
X189535128Y-87192058D01*
X189522471Y-87227540D01*
X189517058Y-87241575D01*
X189504763Y-87271312D01*
X189490846Y-87301179D01*
X189475308Y-87331175D01*
X189458148Y-87361300D01*
X189439366Y-87391555D01*
X189432745Y-87401669D01*
X189497431Y-87451166D01*
X189517249Y-87422123D01*
X189534077Y-87394048D01*
X189550757Y-87363036D01*
X189564545Y-87334950D01*
X189578230Y-87304824D01*
X189586391Y-87285770D01*
X189599354Y-87253119D01*
X189611117Y-87220039D01*
X189621679Y-87186531D01*
X189631040Y-87152595D01*
X189639201Y-87118230D01*
X189646161Y-87083436D01*
X189648609Y-87069399D01*
X189653918Y-87034697D01*
X189658024Y-87001026D01*
X189660928Y-86968386D01*
X189662629Y-86936778D01*
X189663084Y-86900209D01*
X189661807Y-86865125D01*
X189912479Y-87056938D01*
G37*
G36*
X217438541Y-91409846D02*
G01*
X217473280Y-91328946D01*
X217442059Y-91316954D01*
X217411532Y-91308125D01*
X217375813Y-91301708D01*
X217341093Y-91299847D01*
X217307371Y-91302542D01*
X217285445Y-91306871D01*
X217253821Y-91316899D01*
X217223993Y-91331057D01*
X217195961Y-91349343D01*
X217169725Y-91371757D01*
X217145285Y-91398301D01*
X217137537Y-91408066D01*
X217119140Y-91433823D01*
X217100773Y-91464411D01*
X217086452Y-91494649D01*
X217076177Y-91524537D01*
X217069305Y-91558963D01*
X217068353Y-91568712D01*
X217068204Y-91602637D01*
X217072763Y-91636415D01*
X217082032Y-91670048D01*
X217096008Y-91703535D01*
X217106109Y-91722604D01*
X217123520Y-91750511D01*
X217143050Y-91777022D01*
X217164700Y-91802138D01*
X217188470Y-91825858D01*
X217214360Y-91848183D01*
X217223460Y-91855315D01*
X217253728Y-91876773D01*
X217284189Y-91894974D01*
X217314844Y-91909919D01*
X217345694Y-91921608D01*
X217376737Y-91930040D01*
X217387128Y-91932127D01*
X217423102Y-91936508D01*
X217458210Y-91936308D01*
X217492453Y-91931528D01*
X217525830Y-91922166D01*
X217544514Y-91914760D01*
X217575977Y-91898802D01*
X217605277Y-91879492D01*
X217632412Y-91856831D01*
X217657383Y-91830819D01*
X217670681Y-91814449D01*
X217690683Y-91785424D01*
X217706585Y-91755987D01*
X217718386Y-91726140D01*
X217726971Y-91690798D01*
X217729974Y-91654896D01*
X217727478Y-91619054D01*
X217719565Y-91583889D01*
X217708471Y-91554287D01*
X217693397Y-91525184D01*
X217674344Y-91496578D01*
X217607464Y-91551309D01*
X217624430Y-91577832D01*
X217638736Y-91607252D01*
X217648347Y-91639213D01*
X217651127Y-91666611D01*
X217647368Y-91700014D01*
X217635918Y-91732914D01*
X217619038Y-91762096D01*
X217612027Y-91771733D01*
X217591623Y-91795568D01*
X217566682Y-91817992D01*
X217540013Y-91835279D01*
X217507943Y-91848587D01*
X217474712Y-91855538D01*
X217441237Y-91856417D01*
X217407519Y-91851224D01*
X217388682Y-91845716D01*
X217359102Y-91834191D01*
X217330666Y-91820368D01*
X217303373Y-91804245D01*
X217277225Y-91785824D01*
X217249880Y-91763458D01*
X217225529Y-91740502D01*
X217204174Y-91716955D01*
X217183436Y-91689321D01*
X217176667Y-91678759D01*
X217162010Y-91650306D01*
X217151610Y-91617986D01*
X217147659Y-91585337D01*
X217148608Y-91563389D01*
X217154557Y-91531240D01*
X217165153Y-91500995D01*
X217180395Y-91472656D01*
X217190871Y-91457735D01*
X217213891Y-91431992D01*
X217239438Y-91411629D01*
X217267513Y-91396645D01*
X217298116Y-91387040D01*
X217330793Y-91383279D01*
X217365089Y-91385826D01*
X217396427Y-91393230D01*
X217429006Y-91405464D01*
X217438541Y-91409846D01*
G37*
G36*
X217368743Y-91122378D02*
G01*
X217885234Y-91517594D01*
X217938341Y-91448191D01*
X217738624Y-90868985D01*
X218144120Y-91179267D01*
X218193807Y-91114333D01*
X217677315Y-90719117D01*
X217624208Y-90788521D01*
X217824298Y-91368012D01*
X217418430Y-91057444D01*
X217368743Y-91122378D01*
G37*
G36*
X218070091Y-90465132D02*
G01*
X218123008Y-90395977D01*
X218180617Y-90440058D01*
X218127700Y-90509214D01*
X218461433Y-90764584D01*
X218422196Y-90815861D01*
X217909666Y-90794153D01*
X217852057Y-90750071D01*
X217865638Y-90732323D01*
X217956978Y-90732323D01*
X218311801Y-90749694D01*
X218079628Y-90572037D01*
X217956978Y-90732323D01*
X217865638Y-90732323D01*
X218022019Y-90527955D01*
X217896869Y-90432191D01*
X217944941Y-90369368D01*
X218070091Y-90465132D01*
G37*
G36*
X209739874Y-87167355D02*
G01*
X209678098Y-87111226D01*
X209653108Y-87132172D01*
X209625150Y-87148250D01*
X209594162Y-87157186D01*
X209588502Y-87157826D01*
X209555581Y-87156147D01*
X209524789Y-87145245D01*
X209505444Y-87132854D01*
X209481095Y-87108801D01*
X209464695Y-87079988D01*
X209456243Y-87046415D01*
X209455506Y-87039130D01*
X209456707Y-87005973D01*
X209465648Y-86973040D01*
X209480092Y-86943953D01*
X209494938Y-86922253D01*
X209516765Y-86897653D01*
X209543191Y-86876909D01*
X209571600Y-86863506D01*
X209591640Y-86858649D01*
X209625153Y-86857717D01*
X209657577Y-86865796D01*
X209685828Y-86880769D01*
X209695049Y-86887382D01*
X209718330Y-86909568D01*
X209736114Y-86937559D01*
X209738782Y-86943681D01*
X209747717Y-86974769D01*
X209749146Y-87006169D01*
X209748769Y-87010379D01*
X209813634Y-87047809D01*
X209964934Y-86747435D01*
X209710288Y-86552582D01*
X209664686Y-86612177D01*
X209869048Y-86768553D01*
X209791347Y-86927210D01*
X209778124Y-86896078D01*
X209761460Y-86868317D01*
X209741355Y-86843927D01*
X209717810Y-86822908D01*
X209687772Y-86803465D01*
X209656324Y-86790027D01*
X209623466Y-86782593D01*
X209589197Y-86781163D01*
X209568981Y-86783042D01*
X209534417Y-86790924D01*
X209502308Y-86804755D01*
X209472655Y-86824534D01*
X209449194Y-86846223D01*
X209431021Y-86867636D01*
X209412933Y-86894223D01*
X209396719Y-86926305D01*
X209385770Y-86959534D01*
X209380085Y-86993908D01*
X209379248Y-87019163D01*
X209382753Y-87055496D01*
X209392141Y-87089368D01*
X209407412Y-87120779D01*
X209428566Y-87149730D01*
X209450688Y-87171976D01*
X209465922Y-87184503D01*
X209492283Y-87202495D01*
X209523414Y-87218261D01*
X209554948Y-87228403D01*
X209586887Y-87232920D01*
X209609949Y-87232703D01*
X209641492Y-87227693D01*
X209671287Y-87217484D01*
X209699333Y-87202075D01*
X209725632Y-87181466D01*
X209739874Y-87167355D01*
G37*
G36*
X209068866Y-86868080D02*
G01*
X209662485Y-86503404D01*
X209589108Y-86447257D01*
X209168625Y-86720986D01*
X209140922Y-86739378D01*
X209114736Y-86757497D01*
X209087418Y-86777309D01*
X209077015Y-86785140D01*
X209089449Y-86752701D01*
X209100018Y-86723030D01*
X209109998Y-86692907D01*
X209114245Y-86679375D01*
X209263321Y-86197966D01*
X209194166Y-86145049D01*
X208999338Y-86814877D01*
X209068866Y-86868080D01*
G37*
G36*
X206898911Y-100109492D02*
G01*
X206931197Y-100116380D01*
X206963518Y-100128447D01*
X206975667Y-100134341D01*
X207003277Y-100150393D01*
X207031902Y-100169701D01*
X207060349Y-100190730D01*
X207236775Y-100325731D01*
X206841559Y-100842223D01*
X206656814Y-100700857D01*
X206651078Y-100696413D01*
X206626949Y-100676353D01*
X206603372Y-100653944D01*
X206581368Y-100629149D01*
X206569426Y-100613275D01*
X206552699Y-100586035D01*
X206539919Y-100556488D01*
X206535234Y-100540057D01*
X206530033Y-100507122D01*
X206529441Y-100481303D01*
X206611937Y-100481303D01*
X206612646Y-100514696D01*
X206613195Y-100518512D01*
X206622545Y-100549351D01*
X206637969Y-100576789D01*
X206639340Y-100578771D01*
X206660242Y-100603647D01*
X206683927Y-100625915D01*
X206710114Y-100647152D01*
X206819371Y-100730755D01*
X207123384Y-100333454D01*
X207015864Y-100251181D01*
X207004748Y-100242823D01*
X206977261Y-100223642D01*
X206950090Y-100207464D01*
X206920039Y-100194785D01*
X206907586Y-100191878D01*
X206874988Y-100189761D01*
X206843860Y-100194145D01*
X206811038Y-100204489D01*
X206788488Y-100215337D01*
X206761946Y-100233166D01*
X206735154Y-100256569D01*
X206711988Y-100281063D01*
X206688638Y-100309652D01*
X206672698Y-100331469D01*
X206654390Y-100359777D01*
X206637816Y-100390555D01*
X206625503Y-100420202D01*
X206617117Y-100448540D01*
X206611937Y-100481303D01*
X206529441Y-100481303D01*
X206529272Y-100473930D01*
X206529530Y-100468125D01*
X206533713Y-100434849D01*
X206541575Y-100402617D01*
X206551956Y-100371995D01*
X206565725Y-100340322D01*
X206581140Y-100311775D01*
X206599545Y-100282858D01*
X206618102Y-100257253D01*
X206631438Y-100240476D01*
X206655402Y-100213432D01*
X206680164Y-100189334D01*
X206705723Y-100168182D01*
X206732080Y-100149977D01*
X206763010Y-100132933D01*
X206794677Y-100120266D01*
X206827078Y-100111976D01*
X206860216Y-100108063D01*
X206866661Y-100107783D01*
X206898911Y-100109492D01*
G37*
G36*
X206496859Y-99785930D02*
G01*
X206523966Y-99792762D01*
X206553209Y-99805787D01*
X206581849Y-99824585D01*
X206601321Y-99841167D01*
X206622681Y-99864986D01*
X206640423Y-99894118D01*
X206651508Y-99925723D01*
X206656039Y-99955544D01*
X206655874Y-99986841D01*
X206651012Y-100019612D01*
X206641453Y-100053858D01*
X206636580Y-100067123D01*
X206622079Y-100099527D01*
X206606161Y-100128921D01*
X206587024Y-100159810D01*
X206568616Y-100186693D01*
X206547972Y-100214614D01*
X206527300Y-100240707D01*
X206506822Y-100264701D01*
X206479822Y-100293426D01*
X206453168Y-100318418D01*
X206426862Y-100339677D01*
X206400902Y-100357203D01*
X206368940Y-100373860D01*
X206337520Y-100384683D01*
X206306721Y-100389817D01*
X206271587Y-100388911D01*
X206237312Y-100380579D01*
X206208617Y-100367529D01*
X206180552Y-100349023D01*
X206160957Y-100332340D01*
X206139484Y-100308404D01*
X206121684Y-100279164D01*
X206110616Y-100247476D01*
X206106123Y-100217524D01*
X206106165Y-100211371D01*
X206179306Y-100211371D01*
X206183875Y-100243607D01*
X206197483Y-100273571D01*
X206220074Y-100297374D01*
X206228337Y-100303112D01*
X206258225Y-100315586D01*
X206291717Y-100317822D01*
X206324941Y-100311081D01*
X206332786Y-100308243D01*
X206362413Y-100291708D01*
X206390492Y-100269363D01*
X206415784Y-100244980D01*
X206437257Y-100221702D01*
X206459830Y-100195071D01*
X206483506Y-100165087D01*
X206489471Y-100157226D01*
X206511507Y-100126848D01*
X206530624Y-100098179D01*
X206550414Y-100064746D01*
X206565643Y-100033984D01*
X206577895Y-100000595D01*
X206583887Y-99966501D01*
X206583992Y-99962984D01*
X206580129Y-99930339D01*
X206565565Y-99899725D01*
X206542948Y-99876709D01*
X206534552Y-99870868D01*
X206504331Y-99858108D01*
X206470668Y-99855673D01*
X206437431Y-99862308D01*
X206429608Y-99865118D01*
X206400029Y-99881590D01*
X206371954Y-99903929D01*
X206346640Y-99928341D01*
X206325134Y-99951664D01*
X206302511Y-99978359D01*
X206278771Y-100008426D01*
X206272819Y-100016265D01*
X206250845Y-100046417D01*
X206231810Y-100074641D01*
X206212150Y-100107210D01*
X206197082Y-100136767D01*
X206185064Y-100168259D01*
X206179400Y-100199517D01*
X206179306Y-100211371D01*
X206106165Y-100211371D01*
X206106338Y-100186180D01*
X206111260Y-100153442D01*
X206120890Y-100119312D01*
X206125798Y-100106047D01*
X206140333Y-100073688D01*
X206156227Y-100044382D01*
X206175293Y-100013627D01*
X206193603Y-99986891D01*
X206214115Y-99959148D01*
X206224960Y-99945185D01*
X206245993Y-99919381D01*
X206269420Y-99892853D01*
X206294731Y-99867252D01*
X206318480Y-99846682D01*
X206324227Y-99842233D01*
X206349909Y-99824186D01*
X206378100Y-99807925D01*
X206408692Y-99794647D01*
X206430805Y-99788130D01*
X206463886Y-99783777D01*
X206496859Y-99785930D01*
G37*
G36*
X205981281Y-100196542D02*
G01*
X206240291Y-99550628D01*
X206190007Y-99512152D01*
X205930625Y-100157780D01*
X205981281Y-100196542D01*
G37*
G36*
X205786940Y-99238570D02*
G01*
X205818073Y-99250662D01*
X205846079Y-99265836D01*
X205872844Y-99283123D01*
X205901719Y-99304154D01*
X206128677Y-99477821D01*
X205733461Y-99994313D01*
X205665796Y-99942535D01*
X205840603Y-99714087D01*
X205762012Y-99653950D01*
X205749710Y-99644783D01*
X205722368Y-99627552D01*
X205712765Y-99623846D01*
X205681002Y-99617553D01*
X205652587Y-99618944D01*
X205620295Y-99625628D01*
X205610358Y-99628307D01*
X205578674Y-99637890D01*
X205547994Y-99648147D01*
X205517130Y-99659090D01*
X205367571Y-99714336D01*
X205282276Y-99649068D01*
X205478490Y-99577357D01*
X205489264Y-99573609D01*
X205520835Y-99564055D01*
X205554591Y-99556409D01*
X205586956Y-99551888D01*
X205615774Y-99552592D01*
X205647374Y-99557568D01*
X205635569Y-99545090D01*
X205615091Y-99520233D01*
X205596474Y-99491405D01*
X205582155Y-99458683D01*
X205575255Y-99426201D01*
X205575128Y-99417870D01*
X205658009Y-99417870D01*
X205660598Y-99449280D01*
X205673922Y-99479653D01*
X205690051Y-99500849D01*
X205712736Y-99523386D01*
X205739049Y-99545039D01*
X205884685Y-99656479D01*
X206016930Y-99483652D01*
X205854906Y-99359672D01*
X205844329Y-99351913D01*
X205817184Y-99335297D01*
X205785419Y-99322864D01*
X205753261Y-99319887D01*
X205731941Y-99323775D01*
X205703800Y-99337435D01*
X205680263Y-99360488D01*
X205665721Y-99385711D01*
X205658009Y-99417870D01*
X205575128Y-99417870D01*
X205574829Y-99398289D01*
X205581111Y-99363752D01*
X205593144Y-99334327D01*
X205611247Y-99306102D01*
X205615394Y-99300856D01*
X205637973Y-99277398D01*
X205663628Y-99258562D01*
X205692360Y-99244349D01*
X205722353Y-99235560D01*
X205754887Y-99233225D01*
X205786940Y-99238570D01*
G37*
G36*
X205273088Y-99642038D02*
G01*
X205281027Y-99221335D01*
X205644839Y-99107591D01*
X205564261Y-99045933D01*
X205370849Y-99106009D01*
X205339455Y-99116066D01*
X205307769Y-99127085D01*
X205281586Y-99137510D01*
X205284144Y-99105695D01*
X205285456Y-99071819D01*
X205285638Y-99048090D01*
X205286647Y-98833504D01*
X205212898Y-98777072D01*
X205206498Y-99158204D01*
X204803776Y-99282923D01*
X204887582Y-99347051D01*
X205156083Y-99262936D01*
X205185832Y-99252758D01*
X205204652Y-99245769D01*
X205201609Y-99276920D01*
X205199660Y-99302973D01*
X205191641Y-99579715D01*
X205273088Y-99642038D01*
G37*
D14*
%TO.C,UNK1A1*%
X207449599Y-66144153D02*
X209011985Y-63827823D01*
X208781593Y-67348973D02*
X207518139Y-66496762D01*
X210628049Y-64611492D02*
X209364595Y-63759281D01*
X210696589Y-64964101D02*
X209134203Y-67280431D01*
X207518139Y-66496762D02*
G75*
G02*
X207449600Y-66144153I142034J210574D01*
G01*
X209011986Y-63827824D02*
G75*
G02*
X209364594Y-63759283I210574J-142033D01*
G01*
X209134202Y-67280431D02*
G75*
G02*
X208781594Y-67348972I-210577J142047D01*
G01*
X210628049Y-64611492D02*
G75*
G02*
X210696589Y-64964101I-142036J-210575D01*
G01*
D15*
%TO.C,R6*%
X209405577Y-61296572D02*
X210070753Y-61741028D01*
D14*
%TO.C,UNK0.5A1*%
X205600577Y-64708789D02*
X207130468Y-62370869D01*
X206949263Y-65894894D02*
X205674034Y-65060408D01*
X208757316Y-63131898D02*
X207482087Y-62297412D01*
X208830773Y-63483517D02*
X207300882Y-65821437D01*
X205674034Y-65060408D02*
G75*
G02*
X205600578Y-64708789I139082J212538D01*
G01*
X207130469Y-62370869D02*
G75*
G02*
X207482087Y-62297413I212537J-139081D01*
G01*
X207300881Y-65821437D02*
G75*
G02*
X206949263Y-65894893I-212537J139081D01*
G01*
X208757316Y-63131899D02*
G75*
G02*
X208830772Y-63483517I-139081J-212537D01*
G01*
%TO.C,-SYS1*%
X236033687Y-69597562D02*
X236435772Y-68794584D01*
X236434584Y-70802628D02*
X236033687Y-69597562D01*
X236435772Y-68794584D02*
X237640838Y-68393687D01*
X237237562Y-71204713D02*
X236434584Y-70802628D01*
X237640838Y-68393687D02*
X238443816Y-68795772D01*
X238442628Y-70803816D02*
X237237562Y-71204713D01*
X238443816Y-68795772D02*
X238844713Y-70000838D01*
X238844713Y-70000838D02*
X238442628Y-70803816D01*
D16*
%TO.C,R5*%
X210753158Y-62143664D02*
X210558705Y-62434678D01*
X211792495Y-62838122D02*
X211598042Y-63129136D01*
D17*
%TO.C,SW1*%
X180913362Y-102839960D02*
X190331342Y-110093046D01*
X182540658Y-100726954D02*
X180913362Y-102839960D01*
X190331342Y-110093046D02*
X191958638Y-107980040D01*
X191958638Y-107980040D02*
X182540658Y-100726954D01*
D14*
%TO.C,SJ1*%
X199261588Y-60894752D02*
X198453987Y-62187184D01*
X199611590Y-60813949D02*
X203058054Y-62967536D01*
X201981258Y-64690775D02*
X198534794Y-62537188D01*
X203138861Y-63317540D02*
X202331260Y-64609972D01*
X198534794Y-62537188D02*
G75*
G02*
X198453983Y-62187182I134598J215409D01*
G01*
X199261588Y-60894752D02*
G75*
G02*
X199611589Y-60813951I215401J-134601D01*
G01*
X202331259Y-64609972D02*
G75*
G02*
X201981259Y-64690774I-215404J134611D01*
G01*
X203058054Y-62967537D02*
G75*
G02*
X203138861Y-63317540I-134584J-215402D01*
G01*
%TO.C,THERM1*%
X206394423Y-60765304D02*
X207989000Y-58471011D01*
X206458035Y-61118832D02*
X207709468Y-61988602D01*
X208342532Y-58407398D02*
X209593965Y-59277168D01*
X209657577Y-59630696D02*
X208063000Y-61924989D01*
X206458035Y-61118831D02*
G75*
G02*
X206394425Y-60765305I144962J208569D01*
G01*
X207989000Y-58471011D02*
G75*
G02*
X208342532Y-58407398I208572J-144958D01*
G01*
X208063000Y-61924989D02*
G75*
G02*
X207709470Y-61988600I-208571J144960D01*
G01*
X209593965Y-59277169D02*
G75*
G02*
X209657577Y-59630696I-144962J-208570D01*
G01*
%TO.C,SJ2*%
X200421422Y-58942764D02*
X199613821Y-60235196D01*
X200771424Y-58861961D02*
X204217888Y-61015548D01*
X203141092Y-62738787D02*
X199694628Y-60585200D01*
X204298695Y-61365552D02*
X203491094Y-62657984D01*
X199694628Y-60585200D02*
G75*
G02*
X199613817Y-60235194I134598J215409D01*
G01*
X200421422Y-58942764D02*
G75*
G02*
X200771423Y-58861963I215401J-134601D01*
G01*
X203491093Y-62657984D02*
G75*
G02*
X203141093Y-62738786I-215404J134611D01*
G01*
X204217888Y-61015548D02*
G75*
G02*
X204298695Y-61365552I-134587J-215403D01*
G01*
%TO.C,+SYS1*%
X236846154Y-72587956D02*
X237248239Y-71784978D01*
X237247051Y-73793022D02*
X236846154Y-72587956D01*
X237248239Y-71784978D02*
X238453305Y-71384081D01*
X238050029Y-74195107D02*
X237247051Y-73793022D01*
X238453305Y-71384081D02*
X239256283Y-71786166D01*
X239255095Y-73794210D02*
X238050029Y-74195107D01*
X239256283Y-71786166D02*
X239657180Y-72991232D01*
X239657180Y-72991232D02*
X239255095Y-73794210D01*
%TO.C,UNK1.5A1*%
X209467613Y-67487926D02*
X210964713Y-65128874D01*
X210832728Y-68655085D02*
X209545972Y-67838485D01*
X212602028Y-65867115D02*
X211315272Y-65050515D01*
X212680387Y-66217674D02*
X211183287Y-68576726D01*
X209545972Y-67838485D02*
G75*
G02*
X209467613Y-67487926I136099J214459D01*
G01*
X210964714Y-65128874D02*
G75*
G02*
X211315272Y-65050516I214458J-136100D01*
G01*
X211183286Y-68576726D02*
G75*
G02*
X210832728Y-68655084I-214458J136100D01*
G01*
X212602028Y-65867116D02*
G75*
G02*
X212680386Y-66217674I-136100J-214458D01*
G01*
D16*
%TO.C,R4*%
X212431848Y-63285662D02*
X212242954Y-63568360D01*
X213562646Y-64041240D02*
X213373752Y-64323938D01*
D12*
%TO.C,J1*%
X224668743Y-94503159D02*
X213400876Y-109228669D01*
X224668743Y-94503159D02*
X184728307Y-63940980D01*
X222721355Y-98908164D02*
X219594699Y-96515671D01*
X222721355Y-98908164D02*
X217130545Y-106214534D01*
X219594699Y-96515671D02*
X219351621Y-96833340D01*
X219351621Y-96833340D02*
X217543048Y-95449446D01*
X217545605Y-95451380D02*
X212440968Y-102122421D01*
X217130545Y-106214534D02*
X216227592Y-105523590D01*
X216227592Y-105523590D02*
X214003896Y-103822051D01*
X214247004Y-103504371D02*
X214003896Y-103822051D01*
X214247004Y-103504371D02*
X212438424Y-102120476D01*
X184728307Y-63940980D02*
X173460435Y-78666491D01*
X173460435Y-78666491D02*
X213400876Y-109228669D01*
%TD*%
M02*
