%TF.GenerationSoftware,KiCad,Pcbnew,8.0.1*%
%TF.CreationDate,2025-11-28T14:34:22-07:00*%
%TF.ProjectId,F-UVC-Solar-WB_RevA1.1_PCB,462d5556-432d-4536-9f6c-61722d57425f,rev?*%
%TF.SameCoordinates,Original*%
%TF.FileFunction,Copper,L4,Bot*%
%TF.FilePolarity,Positive*%
%FSLAX46Y46*%
G04 Gerber Fmt 4.6, Leading zero omitted, Abs format (unit mm)*
G04 Created by KiCad (PCBNEW 8.0.1) date 2025-11-28 14:34:22*
%MOMM*%
%LPD*%
G01*
G04 APERTURE LIST*
G04 Aperture macros list*
%AMRoundRect*
0 Rectangle with rounded corners*
0 $1 Rounding radius*
0 $2 $3 $4 $5 $6 $7 $8 $9 X,Y pos of 4 corners*
0 Add a 4 corners polygon primitive as box body*
4,1,4,$2,$3,$4,$5,$6,$7,$8,$9,$2,$3,0*
0 Add four circle primitives for the rounded corners*
1,1,$1+$1,$2,$3*
1,1,$1+$1,$4,$5*
1,1,$1+$1,$6,$7*
1,1,$1+$1,$8,$9*
0 Add four rect primitives between the rounded corners*
20,1,$1+$1,$2,$3,$4,$5,0*
20,1,$1+$1,$4,$5,$6,$7,0*
20,1,$1+$1,$6,$7,$8,$9,0*
20,1,$1+$1,$8,$9,$2,$3,0*%
%AMHorizOval*
0 Thick line with rounded ends*
0 $1 width*
0 $2 $3 position (X,Y) of the first rounded end (center of the circle)*
0 $4 $5 position (X,Y) of the second rounded end (center of the circle)*
0 Add line between two ends*
20,1,$1,$2,$3,$4,$5,0*
0 Add two circle primitives to create the rounded ends*
1,1,$1,$2,$3*
1,1,$1,$4,$5*%
%AMRotRect*
0 Rectangle, with rotation*
0 The origin of the aperture is its center*
0 $1 length*
0 $2 width*
0 $3 Rotation angle, in degrees counterclockwise*
0 Add horizontal line*
21,1,$1,$2,0,0,$3*%
G04 Aperture macros list end*
%TA.AperFunction,EtchedComponent*%
%ADD10C,0.000000*%
%TD*%
%TA.AperFunction,ComponentPad*%
%ADD11C,1.508000*%
%TD*%
%TA.AperFunction,ComponentPad*%
%ADD12RotRect,1.508000X1.508000X323.000000*%
%TD*%
%TA.AperFunction,ComponentPad*%
%ADD13C,1.879600*%
%TD*%
%TA.AperFunction,ComponentPad*%
%ADD14C,1.778000*%
%TD*%
%TA.AperFunction,ComponentPad*%
%ADD15O,1.000000X2.000000*%
%TD*%
%TA.AperFunction,ComponentPad*%
%ADD16HorizOval,1.676400X0.697141X0.465375X-0.697141X-0.465375X0*%
%TD*%
%TA.AperFunction,SMDPad,CuDef*%
%ADD17RotRect,1.200000X1.420000X236.000000*%
%TD*%
%TA.AperFunction,SMDPad,CuDef*%
%ADD18RotRect,1.168400X1.600200X56.000000*%
%TD*%
%TA.AperFunction,SMDPad,CuDef*%
%ADD19RotRect,0.635000X0.203200X236.000000*%
%TD*%
%TA.AperFunction,SMDPad,CuDef*%
%ADD20RotRect,1.075000X1.000000X56.250000*%
%TD*%
%TA.AperFunction,SMDPad,CuDef*%
%ADD21RoundRect,0.190500X0.373900X-0.472336X0.582522X-0.153529X-0.373900X0.472336X-0.582522X0.153529X0*%
%TD*%
%TA.AperFunction,SMDPad,CuDef*%
%ADD22RoundRect,0.115000X0.286423X-0.606310X0.669767X-0.032596X-0.286423X0.606310X-0.669767X0.032596X0*%
%TD*%
%TA.AperFunction,SMDPad,CuDef*%
%ADD23RotRect,1.200000X1.420000X146.400000*%
%TD*%
%TA.AperFunction,SMDPad,CuDef*%
%ADD24RotRect,1.854200X0.762000X142.399000*%
%TD*%
%TA.AperFunction,SMDPad,CuDef*%
%ADD25RotRect,1.168400X1.600200X148.000000*%
%TD*%
%TA.AperFunction,SMDPad,CuDef*%
%ADD26RotRect,1.168400X1.600200X235.200000*%
%TD*%
%TA.AperFunction,SMDPad,CuDef*%
%ADD27RotRect,0.635000X0.203200X55.200000*%
%TD*%
%TA.AperFunction,SMDPad,CuDef*%
%ADD28RoundRect,0.190500X0.380458X-0.467069X0.584608X-0.145381X-0.380458X0.467069X-0.584608X0.145381X0*%
%TD*%
%TA.AperFunction,SMDPad,CuDef*%
%ADD29RotRect,0.920000X1.380000X56.250000*%
%TD*%
%TA.AperFunction,ComponentPad*%
%ADD30C,1.500000*%
%TD*%
%TA.AperFunction,ComponentPad*%
%ADD31RotRect,1.500000X1.500000X232.577000*%
%TD*%
%TA.AperFunction,ComponentPad*%
%ADD32C,1.650000*%
%TD*%
%TA.AperFunction,ComponentPad*%
%ADD33RotRect,1.500000X1.500000X142.577000*%
%TD*%
%TA.AperFunction,ViaPad*%
%ADD34C,0.906400*%
%TD*%
%TA.AperFunction,ViaPad*%
%ADD35C,0.800100*%
%TD*%
%TA.AperFunction,ViaPad*%
%ADD36C,0.600000*%
%TD*%
%TA.AperFunction,Conductor*%
%ADD37C,0.254000*%
%TD*%
%TA.AperFunction,Conductor*%
%ADD38C,0.250000*%
%TD*%
%TA.AperFunction,Conductor*%
%ADD39C,1.016000*%
%TD*%
G04 APERTURE END LIST*
D10*
%TA.AperFunction,EtchedComponent*%
%TO.C,UNK0.5A1*%
G36*
X207531808Y-65052519D02*
G01*
X207111581Y-65694694D01*
X205792505Y-64831515D01*
X206184114Y-64233075D01*
X207271555Y-64005897D01*
X207531808Y-65052519D01*
G37*
%TD.AperFunction*%
%TA.AperFunction,EtchedComponent*%
G36*
X208638845Y-63360791D02*
G01*
X207702241Y-64792070D01*
X207458327Y-63725343D01*
X206383166Y-63928892D01*
X207319769Y-62497612D01*
X208638845Y-63360791D01*
G37*
%TD.AperFunction*%
%TA.AperFunction,EtchedComponent*%
%TO.C,UNK1.5A1*%
G36*
X211403455Y-67804659D02*
G01*
X210992235Y-68452638D01*
X209661237Y-67607961D01*
X210044451Y-67004111D01*
X211128614Y-66761772D01*
X211403455Y-67804659D01*
G37*
%TD.AperFunction*%
%TA.AperFunction,EtchedComponent*%
G36*
X212486763Y-66097639D02*
G01*
X211570235Y-67541856D01*
X211311451Y-66478638D01*
X210239237Y-66697179D01*
X211155765Y-65252962D01*
X212486763Y-66097639D01*
G37*
%TD.AperFunction*%
%TD*%
D11*
%TO.P,SW2,4*%
%TO.N,/PA12*%
X201020365Y-90601898D03*
%TO.P,SW2,3*%
X195829235Y-86690102D03*
%TO.P,SW2,2*%
%TO.N,GND*%
X203728533Y-87008038D03*
D12*
%TO.P,SW2,1*%
X198537403Y-83096242D03*
%TD*%
D13*
%TO.P,-UVC1,1,1*%
%TO.N,GND*%
X239674400Y-85859320D03*
%TD*%
D14*
%TO.P,JP1,1,1*%
%TO.N,/D+*%
X202539600Y-53340000D03*
%TO.P,JP1,2,2*%
%TO.N,/D-*%
X202539600Y-55880000D03*
%TD*%
D13*
%TO.P,+BATT1,1,1*%
%TO.N,VLIPO*%
X192735200Y-47498000D03*
%TD*%
D15*
%TO.P,X2,M1*%
%TO.N,N/C*%
X207621599Y-50163196D03*
%TO.P,X2,M2*%
X198981603Y-50163199D03*
%TO.P,X2,M3*%
X207621597Y-45983201D03*
%TO.P,X2,M4*%
X198981600Y-45983201D03*
%TD*%
D13*
%TO.P,+UVC1,1,1*%
%TO.N,VLOAD*%
X239834257Y-82133986D03*
%TD*%
D16*
%TO.P,JP3,1,1*%
%TO.N,GND*%
X233233919Y-64216822D03*
%TD*%
%TO.P,JP2,1,1*%
%TO.N,VBUS*%
X231104419Y-60935285D03*
%TD*%
D13*
%TO.P,-BATT1,1,1*%
%TO.N,GND*%
X189613503Y-48621136D03*
%TD*%
D17*
%TO.P,R12,1*%
%TO.N,GND*%
X206724651Y-58254707D03*
%TO.P,R12,2*%
%TO.N,Net-(R12-Pad2)*%
X205790799Y-59639199D03*
%TD*%
D18*
%TO.P,UNK1A1,1,1*%
%TO.N,GND*%
X208646988Y-66185854D03*
%TO.P,UNK1A1,2,2*%
%TO.N,Net-(R5-Pad1)*%
X209499200Y-64922400D03*
D19*
%TO.P,UNK1A1,WIRE*%
%TO.N,N/C*%
X209073094Y-65554127D03*
%TD*%
D20*
%TO.P,R6,1*%
%TO.N,Net-(R6-Pad1)*%
X209265930Y-62225549D03*
%TO.P,R6,2*%
%TO.N,/ISET*%
X210210400Y-60812051D03*
%TD*%
D21*
%TO.P,UNK0.5A1,1,1*%
%TO.N,GND*%
X206659352Y-64946306D03*
%TO.P,UNK0.5A1,2,2*%
%TO.N,Net-(R6-Pad1)*%
X207771998Y-63246000D03*
%TD*%
D13*
%TO.P,-SYS1,1,1*%
%TO.N,GND*%
X237439200Y-69799200D03*
%TD*%
D22*
%TO.P,R5,1*%
%TO.N,Net-(R5-Pad1)*%
X210645030Y-63430454D03*
%TO.P,R5,2*%
%TO.N,/ISET*%
X211706170Y-61842346D03*
%TD*%
D23*
%TO.P,R10,1*%
%TO.N,Net-(D3-PadC)*%
X218322689Y-71886882D03*
%TO.P,R10,2*%
%TO.N,/~{PGOOD}*%
X216931711Y-70962718D03*
%TD*%
D24*
%TO.P,SW1,1,1*%
%TO.N,/PA9*%
X192473166Y-110059412D03*
%TO.P,SW1,2,2*%
%TO.N,GND*%
X180398834Y-100760588D03*
%TD*%
D23*
%TO.P,R11,1*%
%TO.N,Net-(D4-PadC)*%
X219999089Y-70413682D03*
%TO.P,R11,2*%
%TO.N,/~{CHG}*%
X218608111Y-69489518D03*
%TD*%
D25*
%TO.P,SJ1,1,1*%
%TO.N,/OUT*%
X201981150Y-63492660D03*
%TO.P,SJ1,2,2*%
%TO.N,/EN1*%
X200796424Y-62752362D03*
%TO.P,SJ1,3,3*%
%TO.N,GND*%
X199611698Y-62012064D03*
%TD*%
D26*
%TO.P,THERM1,1,1*%
%TO.N,/THERM*%
X208460885Y-59572284D03*
%TO.P,THERM1,2,2*%
%TO.N,Net-(R12-Pad2)*%
X207591115Y-60823716D03*
D27*
%TO.P,THERM1,WIRE*%
%TO.N,N/C*%
X208026000Y-60198000D03*
%TD*%
D25*
%TO.P,SJ2,1,1*%
%TO.N,/OUT*%
X203140984Y-61540672D03*
%TO.P,SJ2,2,2*%
%TO.N,/EN2*%
X201956258Y-60800374D03*
%TO.P,SJ2,3,3*%
%TO.N,GND*%
X200771532Y-60060076D03*
%TD*%
D13*
%TO.P,+SYS1,1,1*%
%TO.N,/OUT*%
X238251667Y-72789594D03*
%TD*%
D28*
%TO.P,UNK1.5A1,1,1*%
%TO.N,GND*%
X210529600Y-67710637D03*
%TO.P,UNK1.5A1,2,2*%
%TO.N,Net-(R4-Pad1)*%
X211618400Y-65994963D03*
%TD*%
D29*
%TO.P,R4,1*%
%TO.N,Net-(R4-Pad1)*%
X212372230Y-64598854D03*
%TO.P,R4,2*%
%TO.N,/ISET*%
X213433370Y-63010746D03*
%TD*%
D30*
%TO.P,J1,35,GND*%
%TO.N,unconnected-(J1-GND-Pad35)*%
X217493217Y-93682017D03*
%TO.P,J1,34,+3V3_ST_LINK*%
%TO.N,/+3V3_ST_LINK*%
X219510413Y-95225545D03*
D31*
%TO.P,J1,33,SWDIO*%
%TO.N,/STM_JTMS*%
X219036767Y-91664819D03*
D30*
%TO.P,J1,32,SWCLK*%
%TO.N,/STM_JTCK*%
X221053964Y-93208367D03*
%TO.P,J1,31,31*%
%TO.N,unconnected-(J1-Pad31)*%
X223071146Y-94751917D03*
%TO.P,J1,30,GRN_LD3*%
%TO.N,/PB3*%
X188364556Y-68802297D03*
%TO.P,J1,29,29*%
%TO.N,+3V3*%
X190381742Y-70345852D03*
%TO.P,J1,28,28*%
%TO.N,/AVDD*%
X192398945Y-71889393D03*
%TO.P,J1,27,TriLED_B*%
%TO.N,/PA0*%
X194416136Y-73432929D03*
%TO.P,J1,26,TriLED_G*%
%TO.N,/PA1*%
X196433331Y-74976490D03*
%TO.P,J1,25,TriLED_R*%
%TO.N,/PA3*%
X198450516Y-76520042D03*
%TO.P,J1,24,24*%
%TO.N,/PA4*%
X200467719Y-78063566D03*
%TO.P,J1,23,23*%
%TO.N,/PA5*%
X202484903Y-79607117D03*
%TO.P,J1,22,22*%
%TO.N,/PA6*%
X204502102Y-81150663D03*
%TO.P,J1,21,21*%
%TO.N,/PA7*%
X206519295Y-82694204D03*
%TO.P,J1,20,20*%
%TO.N,/PA2*%
X208536504Y-84237744D03*
%TO.P,J1,19,19*%
%TO.N,/+5V*%
X210553684Y-85781298D03*
%TO.P,J1,18,18*%
%TO.N,/NRST*%
X212570884Y-87324832D03*
D32*
%TO.P,J1,17,17*%
%TO.N,GND*%
X214588073Y-88868384D03*
D33*
%TO.P,J1,16,16*%
%TO.N,/VIN*%
X216605266Y-90411945D03*
D30*
%TO.P,J1,15,15*%
%TO.N,/PB4*%
X179103284Y-80905470D03*
%TO.P,J1,14,14*%
%TO.N,/PB5*%
X181120484Y-82449017D03*
%TO.P,J1,13,13*%
%TO.N,/PA11*%
X183137674Y-83992569D03*
%TO.P,J1,12,LOAD_SW*%
%TO.N,/PA8*%
X185154870Y-85536099D03*
%TO.P,J1,11,11*%
%TO.N,/PF1*%
X187172061Y-87079656D03*
%TO.P,J1,10,10*%
%TO.N,/PF0*%
X189189254Y-88623197D03*
%TO.P,J1,9,9*%
%TO.N,/PB1*%
X191206454Y-90166741D03*
%TO.P,J1,8,8*%
%TO.N,/PB6*%
X193223639Y-91710277D03*
%TO.P,J1,7,7*%
%TO.N,/PB7*%
X195240834Y-93253820D03*
%TO.P,J1,6,6*%
%TO.N,/PB0*%
X197258010Y-94797379D03*
%TO.P,J1,5,Button*%
%TO.N,/PA12*%
X199275231Y-96340917D03*
%TO.P,J1,4,4*%
%TO.N,GND*%
X201292414Y-97884455D03*
%TO.P,J1,3,3*%
%TO.N,/NRST*%
X203309610Y-99428015D03*
%TO.P,J1,2,2*%
%TO.N,/PA10*%
X205326792Y-100971555D03*
D33*
%TO.P,J1,1,REED_SW*%
%TO.N,/PA9*%
X207344000Y-102515095D03*
%TD*%
D34*
%TO.N,/OUT*%
X220421200Y-73964800D03*
X202488800Y-64871600D03*
%TO.N,Net-(D3-PadC)*%
X236897474Y-77470638D03*
%TO.N,/ISET*%
X214731600Y-63449200D03*
D35*
%TO.N,/~{PGOOD}*%
X214934800Y-69850000D03*
%TO.N,/~{CHG}*%
X216204800Y-69291200D03*
D34*
%TO.N,Net-(D4-PadC)*%
X236731224Y-75846396D03*
D35*
%TO.N,/EN2*%
X201472800Y-61417200D03*
%TO.N,/EN1*%
X200979804Y-62482418D03*
D34*
%TO.N,GND*%
X199339200Y-54343300D03*
X221538800Y-77165200D03*
X205536800Y-63550800D03*
X200101200Y-52019200D03*
X233951065Y-61905717D03*
X218643200Y-60350400D03*
D36*
X214728968Y-67374584D03*
D34*
X213424567Y-47099976D03*
X216822853Y-48961646D03*
X212598000Y-59791600D03*
D36*
X214197158Y-67003836D03*
D34*
X205722484Y-87611070D03*
X202539600Y-57556400D03*
X197160464Y-48697555D03*
X189654116Y-51330430D03*
X230872717Y-65520255D03*
X198323200Y-61010800D03*
X216347111Y-57124227D03*
X223469200Y-69443600D03*
X206146400Y-62433200D03*
X220268800Y-57556400D03*
X214082891Y-54334663D03*
X237695416Y-85852000D03*
D36*
X214531438Y-66453793D03*
D34*
X208330800Y-51866800D03*
X219066256Y-67974058D03*
D36*
X215081482Y-66830618D03*
D34*
X193141600Y-62382400D03*
X216408000Y-76606400D03*
X216408000Y-64363600D03*
X197510400Y-58166000D03*
X232664355Y-68879091D03*
X223119792Y-52274584D03*
X206095600Y-45669200D03*
X216103200Y-75234800D03*
X222910400Y-63550800D03*
X179222400Y-98907600D03*
X194208400Y-53848000D03*
X207467200Y-56083200D03*
X220624400Y-83362800D03*
X200558400Y-45567600D03*
X200507600Y-56324500D03*
%TO.N,Net-(D5-Pad2)*%
X188247284Y-79025870D03*
X184075995Y-50708359D03*
%TO.N,/THERM*%
X210616800Y-59436000D03*
%TO.N,/PA8*%
X212394800Y-77216000D03*
%TD*%
D37*
%TO.N,/PA9*%
X200202800Y-110896400D02*
X207344000Y-102515095D01*
X193751200Y-110998000D02*
X192473166Y-110059412D01*
X200202800Y-110896400D02*
X200101200Y-110998000D01*
X200101200Y-110998000D02*
X193751200Y-110998000D01*
D38*
%TO.N,GND*%
X179222400Y-99584154D02*
X179222400Y-98907600D01*
X180398834Y-100760588D02*
X179222400Y-99584154D01*
D37*
%TO.N,/PA8*%
X207010000Y-84226400D02*
X204924695Y-84381305D01*
X204924695Y-84381305D02*
X195765684Y-77501870D01*
X211378800Y-77927200D02*
X207010000Y-84226400D01*
X212394800Y-77216000D02*
X211378800Y-77927200D01*
%TO.N,Net-(D5-Pad2)*%
X188620400Y-56743600D02*
X184843684Y-68815070D01*
X184962800Y-50698400D02*
X188620400Y-56743600D01*
X184075995Y-50708359D02*
X184962800Y-50698400D01*
%TO.N,Net-(D3-PadC)*%
X233808757Y-74550757D02*
X227677099Y-74550757D01*
X227677099Y-74550757D02*
X218322689Y-71886882D01*
X236728638Y-77470638D02*
X233808757Y-74550757D01*
X236897474Y-77470638D02*
X236728638Y-77470638D01*
%TO.N,Net-(D4-PadC)*%
X228623088Y-72938525D02*
X219999089Y-70413682D01*
X233823353Y-72938525D02*
X228623088Y-72938525D01*
X236731224Y-75846396D02*
X233823353Y-72938525D01*
D39*
%TO.N,/OUT*%
X220421200Y-73964800D02*
X211531200Y-73964800D01*
X211531200Y-73964800D02*
X202387200Y-64820800D01*
X202395766Y-64812234D02*
X202387200Y-64820800D01*
X201981150Y-63492660D02*
X203140984Y-61540672D01*
X202387200Y-64820800D02*
X201981150Y-63492660D01*
D37*
%TO.N,/ISET*%
X213433370Y-63010746D02*
X211706170Y-61842346D01*
X211706170Y-61842346D02*
X210210400Y-60812051D01*
X213871824Y-63449200D02*
X213433370Y-63010746D01*
X214731600Y-63449200D02*
X213871824Y-63449200D01*
%TO.N,/~{PGOOD}*%
X214934800Y-69850000D02*
X216931711Y-70962718D01*
%TO.N,/~{CHG}*%
X216204800Y-69291200D02*
X217424000Y-68783200D01*
X217424000Y-68783200D02*
X218608111Y-69489518D01*
%TO.N,/EN2*%
X201956258Y-60800374D02*
X202996800Y-61569600D01*
%TO.N,GND*%
X205536800Y-63823755D02*
X205536800Y-63550800D01*
X206659351Y-64946306D02*
X205536800Y-63823755D01*
X199611698Y-62012064D02*
X198323200Y-61010800D01*
X206659351Y-64946306D02*
X208646988Y-66185854D01*
X199611698Y-62012064D02*
X200660000Y-62839600D01*
X206724650Y-58254706D02*
X207467200Y-57048400D01*
X210529600Y-67710637D02*
X208646988Y-66185854D01*
X207467200Y-57048400D02*
X207467200Y-56083200D01*
X200771532Y-60060076D02*
X199611698Y-62012064D01*
%TO.N,Net-(D5-Pad2)*%
X183218084Y-75266670D02*
X188196484Y-78924270D01*
X182964084Y-71761470D02*
X183218084Y-75266670D01*
X184843684Y-68815070D02*
X182964084Y-71761470D01*
%TO.N,/THERM*%
X210616800Y-59436000D02*
X209448400Y-59385200D01*
X209448400Y-59385200D02*
X208460885Y-59572284D01*
%TO.N,Net-(R5-Pad1)*%
X210645030Y-63430454D02*
X209499200Y-64922400D01*
%TO.N,Net-(R12-Pad2)*%
X207591115Y-60823716D02*
X205790800Y-59639200D01*
%TO.N,/PA8*%
X195765684Y-77501870D02*
X191701684Y-77349470D01*
X191701684Y-77349470D02*
X185154870Y-85536099D01*
D38*
%TO.N,Net-(R6-Pad1)*%
X209265930Y-62225549D02*
X207771999Y-63246000D01*
D37*
%TO.N,Net-(R4-Pad1)*%
X212372230Y-64598854D02*
X211618400Y-65994963D01*
%TD*%
M02*
