%TF.GenerationSoftware,KiCad,Pcbnew,8.0.1*%
%TF.CreationDate,2025-11-28T14:34:22-07:00*%
%TF.ProjectId,F-UVC-Solar-WB_RevA1.1_PCB,462d5556-432d-4536-9f6c-61722d57425f,rev?*%
%TF.SameCoordinates,Original*%
%TF.FileFunction,Copper,L1,Top*%
%TF.FilePolarity,Positive*%
%FSLAX46Y46*%
G04 Gerber Fmt 4.6, Leading zero omitted, Abs format (unit mm)*
G04 Created by KiCad (PCBNEW 8.0.1) date 2025-11-28 14:34:22*
%MOMM*%
%LPD*%
G01*
G04 APERTURE LIST*
G04 Aperture macros list*
%AMRoundRect*
0 Rectangle with rounded corners*
0 $1 Rounding radius*
0 $2 $3 $4 $5 $6 $7 $8 $9 X,Y pos of 4 corners*
0 Add a 4 corners polygon primitive as box body*
4,1,4,$2,$3,$4,$5,$6,$7,$8,$9,$2,$3,0*
0 Add four circle primitives for the rounded corners*
1,1,$1+$1,$2,$3*
1,1,$1+$1,$4,$5*
1,1,$1+$1,$6,$7*
1,1,$1+$1,$8,$9*
0 Add four rect primitives between the rounded corners*
20,1,$1+$1,$2,$3,$4,$5,0*
20,1,$1+$1,$4,$5,$6,$7,0*
20,1,$1+$1,$6,$7,$8,$9,0*
20,1,$1+$1,$8,$9,$2,$3,0*%
%AMHorizOval*
0 Thick line with rounded ends*
0 $1 width*
0 $2 $3 position (X,Y) of the first rounded end (center of the circle)*
0 $4 $5 position (X,Y) of the second rounded end (center of the circle)*
0 Add line between two ends*
20,1,$1,$2,$3,$4,$5,0*
0 Add two circle primitives to create the rounded ends*
1,1,$1,$2,$3*
1,1,$1,$4,$5*%
%AMRotRect*
0 Rectangle, with rotation*
0 The origin of the aperture is its center*
0 $1 length*
0 $2 width*
0 $3 Rotation angle, in degrees counterclockwise*
0 Add horizontal line*
21,1,$1,$2,0,0,$3*%
G04 Aperture macros list end*
%TA.AperFunction,SMDPad,CuDef*%
%ADD10RotRect,1.200000X1.420000X281.601000*%
%TD*%
%TA.AperFunction,SMDPad,CuDef*%
%ADD11RotRect,1.300000X1.600000X232.000000*%
%TD*%
%TA.AperFunction,SMDPad,CuDef*%
%ADD12R,2.159000X1.778000*%
%TD*%
%TA.AperFunction,ComponentPad*%
%ADD13C,1.508000*%
%TD*%
%TA.AperFunction,ComponentPad*%
%ADD14RotRect,1.508000X1.508000X323.000000*%
%TD*%
%TA.AperFunction,SMDPad,CuDef*%
%ADD15RotRect,0.800000X0.280000X326.250000*%
%TD*%
%TA.AperFunction,SMDPad,CuDef*%
%ADD16RotRect,0.800000X0.280000X56.250000*%
%TD*%
%TA.AperFunction,SMDPad,CuDef*%
%ADD17RotRect,0.800000X0.280000X146.250000*%
%TD*%
%TA.AperFunction,SMDPad,CuDef*%
%ADD18RotRect,0.800000X0.280000X236.250000*%
%TD*%
%TA.AperFunction,SMDPad,CuDef*%
%ADD19RotRect,1.500000X1.500000X326.250000*%
%TD*%
%TA.AperFunction,ComponentPad*%
%ADD20C,1.879600*%
%TD*%
%TA.AperFunction,SMDPad,CuDef*%
%ADD21RoundRect,0.115000X0.575466X0.344222X-0.032917X0.669751X-0.575466X-0.344222X0.032917X-0.669751X0*%
%TD*%
%TA.AperFunction,SMDPad,CuDef*%
%ADD22RotRect,0.855600X1.250000X232.401000*%
%TD*%
%TA.AperFunction,ComponentPad*%
%ADD23C,1.778000*%
%TD*%
%TA.AperFunction,SMDPad,CuDef*%
%ADD24RotRect,0.855600X1.250000X56.000000*%
%TD*%
%TA.AperFunction,SMDPad,CuDef*%
%ADD25RotRect,0.700000X0.400000X214.400000*%
%TD*%
%TA.AperFunction,SMDPad,CuDef*%
%ADD26RoundRect,0.072500X-0.550124X0.168005X0.275192X-0.505106X0.550124X-0.168005X-0.275192X0.505106X0*%
%TD*%
%TA.AperFunction,SMDPad,CuDef*%
%ADD27RotRect,1.305598X1.449997X229.600000*%
%TD*%
%TA.AperFunction,SMDPad,CuDef*%
%ADD28RotRect,0.855600X1.250000X93.599000*%
%TD*%
%TA.AperFunction,SMDPad,CuDef*%
%ADD29RotRect,1.005599X1.199998X231.201000*%
%TD*%
%TA.AperFunction,SMDPad,CuDef*%
%ADD30RotRect,0.855600X1.250000X61.850000*%
%TD*%
%TA.AperFunction,SMDPad,CuDef*%
%ADD31RoundRect,0.635000X0.000010X0.000010X-0.000010X0.000010X-0.000010X-0.000010X0.000010X-0.000010X0*%
%TD*%
%TA.AperFunction,SMDPad,CuDef*%
%ADD32R,0.575000X1.119996*%
%TD*%
%TA.AperFunction,SMDPad,CuDef*%
%ADD33R,0.575000X1.119998*%
%TD*%
%TA.AperFunction,SMDPad,CuDef*%
%ADD34R,0.275000X1.150000*%
%TD*%
%TA.AperFunction,SMDPad,CuDef*%
%ADD35R,0.575000X1.120004*%
%TD*%
%TA.AperFunction,ComponentPad*%
%ADD36O,1.000000X2.000000*%
%TD*%
%TA.AperFunction,SMDPad,CuDef*%
%ADD37RoundRect,0.131250X0.660791X0.174918X0.057539X0.681124X-0.660791X-0.174918X-0.057539X-0.681124X0*%
%TD*%
%TA.AperFunction,SMDPad,CuDef*%
%ADD38RotRect,0.609600X1.320800X141.200000*%
%TD*%
%TA.AperFunction,SMDPad,CuDef*%
%ADD39RoundRect,0.635000X0.000007X0.000012X-0.000012X0.000007X-0.000007X-0.000012X0.000012X-0.000007X0*%
%TD*%
%TA.AperFunction,SMDPad,CuDef*%
%ADD40RotRect,0.855600X1.250000X231.201000*%
%TD*%
%TA.AperFunction,SMDPad,CuDef*%
%ADD41RotRect,2.400000X2.000000X241.850000*%
%TD*%
%TA.AperFunction,SMDPad,CuDef*%
%ADD42RotRect,0.855600X1.250000X51.600000*%
%TD*%
%TA.AperFunction,SMDPad,CuDef*%
%ADD43RotRect,1.200000X1.200000X5.600000*%
%TD*%
%TA.AperFunction,SMDPad,CuDef*%
%ADD44RotRect,0.855600X1.250000X196.400000*%
%TD*%
%TA.AperFunction,ComponentPad*%
%ADD45HorizOval,1.676400X0.697141X0.465375X-0.697141X-0.465375X0*%
%TD*%
%TA.AperFunction,SMDPad,CuDef*%
%ADD46R,1.250000X0.855600*%
%TD*%
%TA.AperFunction,SMDPad,CuDef*%
%ADD47RotRect,1.200000X1.420000X326.250000*%
%TD*%
%TA.AperFunction,SMDPad,CuDef*%
%ADD48RotRect,0.855600X1.250000X17.199000*%
%TD*%
%TA.AperFunction,SMDPad,CuDef*%
%ADD49RotRect,1.778000X2.159000X241.850000*%
%TD*%
%TA.AperFunction,SMDPad,CuDef*%
%ADD50RotRect,1.778000X2.159000X61.850000*%
%TD*%
%TA.AperFunction,SMDPad,CuDef*%
%ADD51R,1.346200X0.812800*%
%TD*%
%TA.AperFunction,ComponentPad*%
%ADD52C,1.500000*%
%TD*%
%TA.AperFunction,ComponentPad*%
%ADD53RotRect,1.500000X1.500000X232.577000*%
%TD*%
%TA.AperFunction,ComponentPad*%
%ADD54C,1.650000*%
%TD*%
%TA.AperFunction,ComponentPad*%
%ADD55RotRect,1.500000X1.500000X142.577000*%
%TD*%
%TA.AperFunction,ViaPad*%
%ADD56C,0.906400*%
%TD*%
%TA.AperFunction,ViaPad*%
%ADD57C,0.800100*%
%TD*%
%TA.AperFunction,ViaPad*%
%ADD58C,0.600000*%
%TD*%
%TA.AperFunction,Conductor*%
%ADD59C,1.016000*%
%TD*%
%TA.AperFunction,Conductor*%
%ADD60C,1.106000*%
%TD*%
%TA.AperFunction,Conductor*%
%ADD61C,0.254000*%
%TD*%
%TA.AperFunction,Conductor*%
%ADD62C,0.609600*%
%TD*%
%TA.AperFunction,Conductor*%
%ADD63C,0.250000*%
%TD*%
%TA.AperFunction,Conductor*%
%ADD64C,0.304800*%
%TD*%
%TA.AperFunction,Conductor*%
%ADD65C,0.508000*%
%TD*%
%TA.AperFunction,Conductor*%
%ADD66C,0.406400*%
%TD*%
G04 APERTURE END LIST*
D10*
%TO.P,R9,1*%
%TO.N,GND*%
X210601286Y-64256858D03*
%TO.P,R9,2*%
%TO.N,/~{CE}*%
X210937114Y-65892742D03*
%TD*%
D11*
%TO.P,R15,2*%
%TO.N,/PA3*%
X196604562Y-78785260D03*
%TO.P,R15,1*%
%TO.N,Net-(D5-Pad2)*%
X195434806Y-80282480D03*
%TD*%
D12*
%TO.P,D2,A,A*%
%TO.N,/VUSB*%
X207467200Y-54051200D03*
%TO.P,D2,C,C*%
%TO.N,VBUS*%
X207467200Y-58115202D03*
%TD*%
D13*
%TO.P,SW2,4*%
%TO.N,/PA12*%
X201020365Y-90601898D03*
%TO.P,SW2,3*%
X195829235Y-86690102D03*
%TO.P,SW2,2*%
%TO.N,GND*%
X203728533Y-87008038D03*
D14*
%TO.P,SW2,1*%
X198537403Y-83096242D03*
%TD*%
D15*
%TO.P,U2,1,TS*%
%TO.N,/THERM*%
X213815721Y-65464375D03*
%TO.P,U2,2,BAT*%
%TO.N,VLIPO*%
X213537939Y-65880106D03*
%TO.P,U2,3,BAT*%
X213260157Y-66295838D03*
%TO.P,U2,4,~{CE}*%
%TO.N,/~{CE}*%
X212982359Y-66711579D03*
D16*
%TO.P,U2,5,EN2*%
%TO.N,/EN2*%
X213189296Y-67751854D03*
%TO.P,U2,6,EN1*%
%TO.N,/EN1*%
X213605027Y-68029636D03*
%TO.P,U2,7,~{PGOOD}*%
%TO.N,/~{PGOOD}*%
X214020759Y-68307418D03*
%TO.P,U2,8,VSS*%
%TO.N,GND*%
X214436500Y-68585216D03*
D17*
%TO.P,U2,9,~{CHG}*%
%TO.N,/~{CHG}*%
X215476775Y-68378279D03*
%TO.P,U2,10,OUT*%
%TO.N,/OUT*%
X215754557Y-67962548D03*
%TO.P,U2,11,OUT*%
X216032339Y-67546816D03*
%TO.P,U2,12,ILIM*%
%TO.N,/ILIM*%
X216310137Y-67131075D03*
D18*
%TO.P,U2,13,IN*%
%TO.N,VBUS*%
X216103200Y-66090800D03*
%TO.P,U2,14,TMR*%
%TO.N,GND*%
X215687469Y-65813018D03*
%TO.P,U2,15,ITERM*%
%TO.N,/ITERM*%
X215271737Y-65535236D03*
%TO.P,U2,16,ISET*%
%TO.N,/ISET*%
X214855996Y-65257438D03*
D19*
%TO.P,U2,THERMAL,VSS*%
%TO.N,GND*%
X214646248Y-66921327D03*
%TD*%
D20*
%TO.P,-UVC1,1,1*%
%TO.N,GND*%
X239674400Y-85859320D03*
%TD*%
D21*
%TO.P,R7,1*%
%TO.N,GND*%
X222380839Y-68776552D03*
%TO.P,R7,2*%
%TO.N,/ILIM*%
X220696761Y-67875448D03*
%TD*%
D22*
%TO.P,C9,1*%
%TO.N,/OUT*%
X195485679Y-61901306D03*
%TO.P,C9,2*%
%TO.N,GND*%
X194353521Y-63371494D03*
%TD*%
D23*
%TO.P,JP1,1,1*%
%TO.N,/D+*%
X202539600Y-53340000D03*
%TO.P,JP1,2,2*%
%TO.N,/D-*%
X202539600Y-55880000D03*
%TD*%
D11*
%TO.P,R14,1*%
%TO.N,Net-(D5-Pad3)*%
X193352006Y-78707680D03*
%TO.P,R14,2*%
%TO.N,/PA1*%
X194521762Y-77210460D03*
%TD*%
D24*
%TO.P,C3,1*%
%TO.N,/OUT*%
X217300762Y-68340362D03*
%TO.P,C3,2*%
%TO.N,GND*%
X218338400Y-66802000D03*
%TD*%
D25*
%TO.P,D5,1*%
%TO.N,+3V3*%
X183391755Y-52010054D03*
%TO.P,D5,2*%
%TO.N,Net-(D5-Pad2)*%
X182973678Y-51399472D03*
%TO.P,D5,3*%
%TO.N,Net-(D5-Pad3)*%
X181983543Y-52077434D03*
%TO.P,D5,4*%
%TO.N,Net-(D5-Pad4)*%
X182401620Y-52688016D03*
%TD*%
D20*
%TO.P,+BATT1,1,1*%
%TO.N,VLIPO*%
X192735200Y-47498000D03*
%TD*%
D26*
%TO.P,U3,1,VIN*%
%TO.N,/OUT*%
X218033600Y-76962000D03*
%TO.P,U3,2,GND*%
%TO.N,GND*%
X217433174Y-77698200D03*
%TO.P,U3,3,ON*%
%TO.N,/PA8*%
X216832745Y-78434396D03*
%TO.P,U3,4,CT*%
%TO.N,Net-(U3-CT)*%
X218777856Y-80020792D03*
%TO.P,U3,5,QOD*%
%TO.N,VLOAD*%
X219378282Y-79284592D03*
%TO.P,U3,6,VOUT*%
X219978711Y-78548396D03*
%TD*%
D11*
%TO.P,R13,1*%
%TO.N,Net-(D5-Pad4)*%
X191370806Y-77183680D03*
%TO.P,R13,2*%
%TO.N,/PA0*%
X192540562Y-75686460D03*
%TD*%
D27*
%TO.P,C11,1*%
%TO.N,Net-(U3-CT)*%
X220472000Y-81127599D03*
%TO.P,C11,2*%
%TO.N,GND*%
X219431380Y-82350327D03*
%TD*%
D28*
%TO.P,C7,1*%
%TO.N,/OUT*%
X234953100Y-71730190D03*
%TO.P,C7,2*%
%TO.N,GND*%
X234836618Y-69878250D03*
%TD*%
D29*
%TO.P,R3,1*%
%TO.N,GND*%
X214656355Y-74671771D03*
%TO.P,R3,2*%
%TO.N,/PA8*%
X213587645Y-76001029D03*
%TD*%
D28*
%TO.P,C5,1*%
%TO.N,/OUT*%
X232875366Y-71875486D03*
%TO.P,C5,2*%
%TO.N,GND*%
X232758884Y-70023546D03*
%TD*%
D30*
%TO.P,C1,1*%
%TO.N,VBUS*%
X218307081Y-63606856D03*
%TO.P,C1,2*%
%TO.N,GND*%
X219182519Y-61970744D03*
%TD*%
D31*
%TO.P,TP3,P$1,1*%
%TO.N,+3V3*%
X191160400Y-57150000D03*
%TD*%
D32*
%TO.P,X2,A1B12,GND*%
%TO.N,GND*%
X206501599Y-50753198D03*
D33*
%TO.P,X2,A4B9,VBUS*%
%TO.N,/VUSB*%
X205701598Y-50753199D03*
D34*
%TO.P,X2,A5,CC1*%
%TO.N,/CC1*%
X204551598Y-50738194D03*
%TO.P,X2,A6,D+*%
%TO.N,/D+*%
X203551597Y-50738194D03*
%TO.P,X2,A7,D-*%
%TO.N,/D-*%
X203051606Y-50738200D03*
%TO.P,X2,A8,SBU1*%
%TO.N,unconnected-(X2-SBU1-PadA8)*%
X202051606Y-50738201D03*
D35*
%TO.P,X2,B1A12,GND*%
%TO.N,GND*%
X200101603Y-50753202D03*
D33*
%TO.P,X2,B4A9,VBUS*%
%TO.N,/VUSB*%
X200901591Y-50753199D03*
D34*
%TO.P,X2,B5,CC2*%
%TO.N,/CC2*%
X201551596Y-50738201D03*
%TO.P,X2,B6,D+*%
%TO.N,/D+*%
X202551599Y-50738193D03*
%TO.P,X2,B7,D-*%
%TO.N,/D-*%
X204051602Y-50738193D03*
%TO.P,X2,B8,SBU2*%
%TO.N,unconnected-(X2-SBU2-PadB8)*%
X205051591Y-50738202D03*
D36*
%TO.P,X2,M1*%
%TO.N,N/C*%
X207621599Y-50163196D03*
%TO.P,X2,M2*%
X198981603Y-50163199D03*
%TO.P,X2,M3*%
X207621597Y-45983201D03*
%TO.P,X2,M4*%
X198981600Y-45983201D03*
%TD*%
D37*
%TO.P,C10,1*%
%TO.N,/OUT*%
X218561438Y-75399207D03*
%TO.P,C10,2*%
%TO.N,GND*%
X217200962Y-74257593D03*
%TD*%
D38*
%TO.P,U1,1,GND*%
%TO.N,GND*%
X196719678Y-59246390D03*
%TO.P,U1,2,VOUT*%
%TO.N,+3V3*%
X195238937Y-58055844D03*
%TO.P,U1,3,VIN*%
%TO.N,/OUT*%
X194707051Y-60233485D03*
%TD*%
D20*
%TO.P,+UVC1,1,1*%
%TO.N,VLOAD*%
X239834257Y-82133986D03*
%TD*%
D39*
%TO.P,TP1,P$1,1*%
%TO.N,/OUT*%
X233591928Y-76214178D03*
%TD*%
D40*
%TO.P,C12,1*%
%TO.N,GND*%
X222707186Y-78130390D03*
%TO.P,C12,2*%
%TO.N,VLOAD*%
X221544486Y-79576550D03*
%TD*%
D41*
%TO.P,X1,1,PWR*%
%TO.N,Net-(D1-PadA)*%
X224949630Y-53225801D03*
%TO.P,X1,1',PWR*%
X222024593Y-58692431D03*
%TO.P,X1,2,GND*%
%TO.N,GND*%
X215250760Y-48036201D03*
%TO.P,X1,3,GNDBREAK*%
X212325712Y-53502838D03*
%TD*%
D42*
%TO.P,C4,1*%
%TO.N,+3V3*%
X193835299Y-56810309D03*
%TO.P,C4,2*%
%TO.N,GND*%
X194987901Y-55356091D03*
%TD*%
D43*
%TO.P,D4,A,A*%
%TO.N,/OUT*%
X240494378Y-76198276D03*
%TO.P,D4,C,C*%
%TO.N,Net-(D4-PadC)*%
X238404400Y-76403200D03*
%TD*%
%TO.P,D3,A,A*%
%TO.N,/OUT*%
X240669000Y-77977097D03*
%TO.P,D3,C,C*%
%TO.N,Net-(D3-PadC)*%
X238579022Y-78182021D03*
%TD*%
D44*
%TO.P,C6,1*%
%TO.N,VLIPO*%
X192769696Y-50318749D03*
%TO.P,C6,2*%
%TO.N,GND*%
X190989594Y-50842661D03*
%TD*%
D45*
%TO.P,JP3,1,1*%
%TO.N,GND*%
X233233919Y-64216822D03*
%TD*%
%TO.P,JP2,1,1*%
%TO.N,VBUS*%
X231104419Y-60935285D03*
%TD*%
D40*
%TO.P,C13,1*%
%TO.N,GND*%
X224180386Y-79298790D03*
%TO.P,C13,2*%
%TO.N,VLOAD*%
X223017686Y-80744950D03*
%TD*%
D46*
%TO.P,C2,1*%
%TO.N,VBUS*%
X204774800Y-58853200D03*
%TO.P,C2,2*%
%TO.N,GND*%
X204774800Y-56997600D03*
%TD*%
D31*
%TO.P,TP2,P$1,1*%
%TO.N,VLIPO*%
X197612000Y-52374800D03*
%TD*%
D47*
%TO.P,R8,1*%
%TO.N,GND*%
X213732523Y-60902499D03*
%TO.P,R8,2*%
%TO.N,/ITERM*%
X215121077Y-61830301D03*
%TD*%
D20*
%TO.P,-BATT1,1,1*%
%TO.N,GND*%
X189613503Y-48621136D03*
%TD*%
D48*
%TO.P,C8,1*%
%TO.N,VLIPO*%
X194314977Y-49858951D03*
%TO.P,C8,2*%
%TO.N,GND*%
X196087601Y-49310267D03*
%TD*%
D49*
%TO.P,D1,A,A*%
%TO.N,Net-(D1-PadA)*%
X223863069Y-61871951D03*
D50*
%TO.P,D1,C,C*%
%TO.N,VBUS*%
X221945746Y-65455238D03*
%TD*%
D51*
%TO.P,R2,1*%
%TO.N,GND*%
X204774800Y-55651400D03*
%TO.P,R2,2*%
%TO.N,/CC1*%
X204774800Y-53848000D03*
%TD*%
D39*
%TO.P,TP4,P$1,1*%
%TO.N,VLOAD*%
X234391200Y-84378800D03*
%TD*%
D51*
%TO.P,R1,1*%
%TO.N,GND*%
X200507600Y-55245000D03*
%TO.P,R1,2*%
%TO.N,/CC2*%
X200507600Y-53441600D03*
%TD*%
D20*
%TO.P,-SYS1,1,1*%
%TO.N,GND*%
X237439200Y-69799200D03*
%TD*%
%TO.P,+SYS1,1,1*%
%TO.N,/OUT*%
X238251667Y-72789594D03*
%TD*%
D52*
%TO.P,J1,35,GND*%
%TO.N,unconnected-(J1-GND-Pad35)*%
X217493217Y-93682017D03*
%TO.P,J1,34,+3V3_ST_LINK*%
%TO.N,/+3V3_ST_LINK*%
X219510413Y-95225545D03*
D53*
%TO.P,J1,33,SWDIO*%
%TO.N,/STM_JTMS*%
X219036767Y-91664819D03*
D52*
%TO.P,J1,32,SWCLK*%
%TO.N,/STM_JTCK*%
X221053964Y-93208367D03*
%TO.P,J1,31,31*%
%TO.N,unconnected-(J1-Pad31)*%
X223071146Y-94751917D03*
%TO.P,J1,30,GRN_LD3*%
%TO.N,/PB3*%
X188364556Y-68802297D03*
%TO.P,J1,29,29*%
%TO.N,+3V3*%
X190381742Y-70345852D03*
%TO.P,J1,28,28*%
%TO.N,/AVDD*%
X192398945Y-71889393D03*
%TO.P,J1,27,TriLED_B*%
%TO.N,/PA0*%
X194416136Y-73432929D03*
%TO.P,J1,26,TriLED_G*%
%TO.N,/PA1*%
X196433331Y-74976490D03*
%TO.P,J1,25,TriLED_R*%
%TO.N,/PA3*%
X198450516Y-76520042D03*
%TO.P,J1,24,24*%
%TO.N,/PA4*%
X200467719Y-78063566D03*
%TO.P,J1,23,23*%
%TO.N,/PA5*%
X202484903Y-79607117D03*
%TO.P,J1,22,22*%
%TO.N,/PA6*%
X204502102Y-81150663D03*
%TO.P,J1,21,21*%
%TO.N,/PA7*%
X206519295Y-82694204D03*
%TO.P,J1,20,20*%
%TO.N,/PA2*%
X208536504Y-84237744D03*
%TO.P,J1,19,19*%
%TO.N,/+5V*%
X210553684Y-85781298D03*
%TO.P,J1,18,18*%
%TO.N,/NRST*%
X212570884Y-87324832D03*
D54*
%TO.P,J1,17,17*%
%TO.N,GND*%
X214588073Y-88868384D03*
D55*
%TO.P,J1,16,16*%
%TO.N,/VIN*%
X216605266Y-90411945D03*
D52*
%TO.P,J1,15,15*%
%TO.N,/PB4*%
X179103284Y-80905470D03*
%TO.P,J1,14,14*%
%TO.N,/PB5*%
X181120484Y-82449017D03*
%TO.P,J1,13,13*%
%TO.N,/PA11*%
X183137674Y-83992569D03*
%TO.P,J1,12,LOAD_SW*%
%TO.N,/PA8*%
X185154870Y-85536099D03*
%TO.P,J1,11,11*%
%TO.N,/PF1*%
X187172061Y-87079656D03*
%TO.P,J1,10,10*%
%TO.N,/PF0*%
X189189254Y-88623197D03*
%TO.P,J1,9,9*%
%TO.N,/PB1*%
X191206454Y-90166741D03*
%TO.P,J1,8,8*%
%TO.N,/PB6*%
X193223639Y-91710277D03*
%TO.P,J1,7,7*%
%TO.N,/PB7*%
X195240834Y-93253820D03*
%TO.P,J1,6,6*%
%TO.N,/PB0*%
X197258010Y-94797379D03*
%TO.P,J1,5,Button*%
%TO.N,/PA12*%
X199275231Y-96340917D03*
%TO.P,J1,4,4*%
%TO.N,GND*%
X201292414Y-97884455D03*
%TO.P,J1,3,3*%
%TO.N,/NRST*%
X203309610Y-99428015D03*
%TO.P,J1,2,2*%
%TO.N,/PA10*%
X205326792Y-100971555D03*
D55*
%TO.P,J1,1,REED_SW*%
%TO.N,/PA9*%
X207344000Y-102515095D03*
%TD*%
D56*
%TO.N,/OUT*%
X220421200Y-73964800D03*
X202488800Y-64871600D03*
%TO.N,Net-(D3-PadC)*%
X236897474Y-77470638D03*
%TO.N,/ISET*%
X214731600Y-63449200D03*
D57*
%TO.N,/~{PGOOD}*%
X214934800Y-69850000D03*
%TO.N,/~{CHG}*%
X216204800Y-69291200D03*
D56*
%TO.N,Net-(D4-PadC)*%
X236731224Y-75846396D03*
D57*
%TO.N,/EN2*%
X201472800Y-61417200D03*
%TO.N,/EN1*%
X200979804Y-62482418D03*
D56*
%TO.N,GND*%
X199339200Y-54343300D03*
X221538800Y-77165200D03*
X205536800Y-63550800D03*
X200101200Y-52019200D03*
X233951065Y-61905717D03*
X218643200Y-60350400D03*
D58*
X214728968Y-67374584D03*
D56*
X213424567Y-47099976D03*
X216822853Y-48961646D03*
X212598000Y-59791600D03*
D58*
X214197158Y-67003836D03*
D56*
X205722484Y-87611070D03*
X202539600Y-57556400D03*
X197160464Y-48697555D03*
X189654116Y-51330430D03*
X230872717Y-65520255D03*
X198323200Y-61010800D03*
X216347111Y-57124227D03*
X223469200Y-69443600D03*
X206146400Y-62433200D03*
X220268800Y-57556400D03*
X214082891Y-54334663D03*
X237695416Y-85852000D03*
D58*
X214531438Y-66453793D03*
D56*
X208330800Y-51866800D03*
X219066256Y-67974058D03*
D58*
X215081482Y-66830618D03*
D56*
X193141600Y-62382400D03*
X216408000Y-76606400D03*
X216408000Y-64363600D03*
X197510400Y-58166000D03*
X232664355Y-68879091D03*
X223119792Y-52274584D03*
X206095600Y-45669200D03*
X216103200Y-75234800D03*
X222910400Y-63550800D03*
X179222400Y-98907600D03*
X194208400Y-53848000D03*
X207467200Y-56083200D03*
X220624400Y-83362800D03*
X200558400Y-45567600D03*
X200507600Y-56324500D03*
%TO.N,Net-(D5-Pad2)*%
X188247284Y-79025870D03*
X184075995Y-50708359D03*
%TO.N,/THERM*%
X210616800Y-59436000D03*
%TO.N,/PA8*%
X212394800Y-77216000D03*
%TD*%
D59*
%TO.N,VBUS*%
X224147540Y-66580860D02*
X231104419Y-60935285D01*
X221945746Y-65455238D02*
X224147540Y-66580860D01*
X220707618Y-64946108D02*
X221843600Y-65532000D01*
X220707618Y-64946108D02*
X218122836Y-63666747D01*
D60*
%TO.N,Net-(D1-PadA)*%
X222024593Y-60778556D02*
X223863069Y-61871951D01*
X222024593Y-58692431D02*
X222024593Y-60778556D01*
D61*
%TO.N,/ILIM*%
X217220800Y-65786000D02*
X216310137Y-67131075D01*
X218135200Y-65430400D02*
X217220800Y-65786000D01*
X219913200Y-66497200D02*
X218135200Y-65430400D01*
X219913200Y-67091887D02*
X219913200Y-66497200D01*
X220696761Y-67875448D02*
X219913200Y-67091887D01*
D62*
%TO.N,+3V3*%
X191770000Y-68275200D02*
X190381742Y-70345852D01*
X190094458Y-60654342D02*
X191770000Y-68275200D01*
D63*
%TO.N,/PA8*%
X212496400Y-77114400D02*
X212394800Y-77216000D01*
D61*
X212394800Y-77193874D02*
X213587645Y-76001029D01*
X212394800Y-77216000D02*
X212394800Y-77193874D01*
D63*
X212496400Y-77063600D02*
X212496400Y-77114400D01*
D61*
%TO.N,Net-(D5-Pad3)*%
X180543200Y-53035200D02*
X183878484Y-74707870D01*
X181983543Y-52077434D02*
X180543200Y-53035200D01*
%TO.N,Net-(D5-Pad4)*%
X181523301Y-53316507D02*
X184589684Y-74199870D01*
%TO.N,+3V3*%
X183391755Y-52010054D02*
X190094458Y-60654342D01*
%TO.N,/OUT*%
X240284000Y-73863200D02*
X240494378Y-76198276D01*
X239435860Y-73424552D02*
X240284000Y-73863200D01*
X239435860Y-73424552D02*
X238251667Y-72789594D01*
D59*
X233033632Y-74365011D02*
X220421200Y-73964800D01*
X226642482Y-72045495D02*
X232880237Y-71941875D01*
X218110754Y-76275246D02*
X218110754Y-76884846D01*
X220421200Y-73964800D02*
X218110754Y-76275246D01*
D62*
X235262905Y-72039995D02*
X235993142Y-72039995D01*
X234953100Y-71730190D02*
X235262905Y-72039995D01*
D61*
%TO.N,GND*%
X237702736Y-85859320D02*
X239674400Y-85859320D01*
X237695416Y-85852000D02*
X237702736Y-85859320D01*
%TO.N,VLOAD*%
X234391200Y-84378800D02*
X234442000Y-81997748D01*
D59*
X234442000Y-81997748D02*
X239834257Y-82133986D01*
X224129600Y-81737200D02*
X234442000Y-81997748D01*
D61*
%TO.N,GND*%
X223469200Y-69443600D02*
X222380839Y-68776552D01*
D59*
%TO.N,VBUS*%
X217119200Y-63144400D02*
X218122836Y-63666747D01*
X217119200Y-61366400D02*
X217119200Y-63144400D01*
X216458800Y-60706000D02*
X217119200Y-61366400D01*
X212571291Y-58115202D02*
X216458800Y-60706000D01*
X207467200Y-58115202D02*
X212571291Y-58115202D01*
D61*
%TO.N,GND*%
X218643200Y-60350400D02*
X218643200Y-61400315D01*
X218643200Y-61400315D02*
X219260251Y-62017366D01*
X211858910Y-53502838D02*
X211801874Y-53559874D01*
X212325712Y-53502838D02*
X211858910Y-53502838D01*
X208330800Y-51866800D02*
X210689674Y-51866800D01*
X210689674Y-51866800D02*
X212325712Y-53502838D01*
D59*
%TO.N,VLIPO*%
X193903600Y-50868273D02*
X193395670Y-50132497D01*
X196089046Y-53542154D02*
X193903600Y-50868273D01*
D64*
%TO.N,VBUS*%
X216103200Y-66090800D02*
X216509600Y-65481200D01*
X216509600Y-65481200D02*
X217220800Y-64973200D01*
D63*
X231140000Y-60756800D02*
X231104419Y-60935285D01*
D62*
X217220800Y-64973200D02*
X218122836Y-64071164D01*
D59*
X204774800Y-58941400D02*
X206641002Y-58941400D01*
D62*
X218122836Y-64071164D02*
X218122836Y-63666747D01*
D59*
X206641002Y-58941400D02*
X207467200Y-58115202D01*
D60*
%TO.N,Net-(D1-PadA)*%
X224949630Y-53225801D02*
X222024593Y-58692431D01*
D59*
%TO.N,/OUT*%
X235993142Y-72039995D02*
X238251667Y-72789594D01*
D62*
X215891058Y-67758258D02*
X216408000Y-68072000D01*
D59*
X197207415Y-61825415D02*
X195561594Y-61825415D01*
D63*
X232875385Y-71875484D02*
X232880237Y-71924977D01*
D59*
X195834000Y-61214000D02*
X194853485Y-60233485D01*
X221600695Y-72045495D02*
X219202000Y-69646800D01*
D63*
X234958305Y-71980977D02*
X235081062Y-71752038D01*
D61*
X233591928Y-76214178D02*
X233033632Y-74365011D01*
D62*
X216408000Y-68072000D02*
X217300762Y-68340362D01*
D59*
X232880237Y-71924977D02*
X233575515Y-71856805D01*
X237461194Y-73028251D02*
X238251667Y-72789594D01*
X200253600Y-64871600D02*
X197207415Y-61825415D01*
X233575515Y-71856805D02*
X233785450Y-72029246D01*
D61*
X240494377Y-76198276D02*
X240669000Y-77977097D01*
X240620133Y-76010423D02*
X240494377Y-76198276D01*
D63*
X216032339Y-67546816D02*
X215891058Y-67758258D01*
D59*
X226642482Y-72045495D02*
X221600695Y-72045495D01*
X202488800Y-64871600D02*
X200253600Y-64871600D01*
X195834000Y-61926409D02*
X195834000Y-61214000D01*
X218084400Y-68884800D02*
X219202000Y-69646800D01*
X194853485Y-60233485D02*
X194707051Y-60233485D01*
X233905695Y-71882857D02*
X234957968Y-71779680D01*
D63*
X215891058Y-67758258D02*
X215754557Y-67962548D01*
D59*
X233033632Y-74365011D02*
X238251667Y-72789594D01*
D62*
X217300762Y-68340362D02*
X218084400Y-68884800D01*
D59*
X233785450Y-72029246D02*
X233905695Y-71882857D01*
D61*
X240473941Y-76181489D02*
X240494377Y-76198276D01*
%TO.N,Net-(D3-PadC)*%
X238084819Y-78279876D02*
X238389983Y-78219451D01*
X236897474Y-77470638D02*
X236900757Y-77487214D01*
D63*
X238389983Y-78219451D02*
X238579022Y-78182022D01*
D61*
X236900757Y-77487214D02*
X238084819Y-78279876D01*
%TO.N,/ISET*%
X214731600Y-63449200D02*
X214855996Y-63573596D01*
X215092925Y-64899497D02*
X214731600Y-63449200D01*
X214855996Y-65257438D02*
X215092925Y-64899497D01*
%TO.N,/ITERM*%
X215544400Y-63347600D02*
X215121080Y-61830297D01*
X215646000Y-64973200D02*
X215544400Y-63347600D01*
X215271737Y-65535235D02*
X215646000Y-64973200D01*
%TO.N,/~{CE}*%
X212982359Y-66711579D02*
X212739538Y-66954400D01*
X212739538Y-66954400D02*
X211998753Y-66954400D01*
X211998753Y-66954400D02*
X210937099Y-65892746D01*
%TO.N,/~{PGOOD}*%
X214020759Y-68307418D02*
X213757987Y-68696292D01*
X213756732Y-69066806D02*
X214833200Y-69799200D01*
X213757987Y-68696292D02*
X213756732Y-69066806D01*
%TO.N,/~{CHG}*%
X215476775Y-68378279D02*
X215476775Y-68867975D01*
X215476775Y-68867975D02*
X215646000Y-69037200D01*
X215646000Y-69037200D02*
X216204800Y-69291200D01*
%TO.N,Net-(D4-PadC)*%
X236734171Y-75861281D02*
X237740148Y-76534725D01*
X237740148Y-76534725D02*
X238315562Y-76420790D01*
D63*
X238315562Y-76420790D02*
X238404398Y-76403200D01*
D61*
X236731224Y-75846396D02*
X236734171Y-75861281D01*
%TO.N,/EN2*%
X202336400Y-62585600D02*
X201472800Y-61417200D01*
X213189296Y-67751854D02*
X212801200Y-68326000D01*
X212801200Y-68326000D02*
X211734400Y-68630800D01*
X211734400Y-68630800D02*
X203860400Y-63550800D01*
X203860400Y-63550800D02*
X202336400Y-62585600D01*
%TO.N,/EN1*%
X211582000Y-69240400D02*
X200979804Y-62482418D01*
X213037482Y-68857020D02*
X211582000Y-69240400D01*
X213605027Y-68029636D02*
X213037482Y-68857020D01*
%TO.N,Net-(D5-Pad3)*%
X183878484Y-74707870D02*
X190228484Y-79381470D01*
X192463684Y-79686270D02*
X193352004Y-78707682D01*
X190228484Y-79381470D02*
X192463684Y-79686270D01*
D63*
%TO.N,GND*%
X194987901Y-54627501D02*
X194208400Y-53848000D01*
D61*
X204331565Y-87611070D02*
X205722484Y-87611070D01*
X204774800Y-57085800D02*
X202539600Y-57556400D01*
X217200952Y-74257601D02*
X216103200Y-75234800D01*
X200101200Y-52019200D02*
X200101603Y-52018797D01*
X213708903Y-60902503D02*
X212598000Y-59791600D01*
X222707200Y-78130400D02*
X224180400Y-79298800D01*
X219431380Y-82350326D02*
X220624400Y-83362800D01*
X212990817Y-53437624D02*
X214082891Y-54334663D01*
X213732520Y-60902503D02*
X213708903Y-60902503D01*
X216103200Y-75234800D02*
X214656367Y-74671780D01*
X196379689Y-49338891D02*
X196087597Y-49310251D01*
X214436500Y-68585216D02*
X214750098Y-68111707D01*
X208330800Y-51866800D02*
X207630202Y-51866800D01*
X230872717Y-65520255D02*
X233233919Y-64216822D01*
X200101603Y-52018797D02*
X200101603Y-50738204D01*
X194353508Y-63371484D02*
X193141600Y-62382400D01*
X198537403Y-83096242D02*
X203728533Y-87008038D01*
X210601301Y-64256854D02*
X209346800Y-62433200D01*
X197510400Y-58455668D02*
X197510400Y-58166000D01*
X216865200Y-77216000D02*
X216408000Y-76606400D01*
X204774800Y-55651400D02*
X204774800Y-57085800D01*
X215250760Y-48036201D02*
X216822853Y-48961646D01*
X219066256Y-67974058D02*
X219066256Y-67529856D01*
X215250760Y-48036201D02*
X213424567Y-47099976D01*
X234836600Y-69878252D02*
X237645652Y-70272573D01*
X207630202Y-51866800D02*
X206501599Y-50738197D01*
X234836600Y-69878252D02*
X232758867Y-70023549D01*
X233233919Y-64216822D02*
X233951065Y-61905717D01*
X196719678Y-59246390D02*
X197510400Y-58455668D01*
X217433174Y-77698200D02*
X216865200Y-77216000D01*
X222707200Y-78130400D02*
X221538800Y-77165200D01*
D63*
X194987901Y-55356090D02*
X194987901Y-54627501D01*
D61*
X203728533Y-87008038D02*
X204331565Y-87611070D01*
X219066256Y-67529856D02*
X218338400Y-66802000D01*
X214646248Y-66921327D02*
X215133145Y-66819653D01*
X232648540Y-68898343D02*
X232758867Y-70023549D01*
X215687469Y-65813018D02*
X216204800Y-65024000D01*
X209346800Y-62433200D02*
X206146400Y-62433200D01*
X197160464Y-48697555D02*
X196379689Y-49338891D01*
X190989593Y-50842662D02*
X189654116Y-51330430D01*
X214750098Y-68111707D02*
X214646248Y-66921327D01*
X200507600Y-55245000D02*
X200507600Y-56324500D01*
X214658870Y-66921327D02*
X214646248Y-66921327D01*
X216204800Y-65024000D02*
X216408000Y-64363600D01*
X215687469Y-65813018D02*
X215169976Y-66576909D01*
%TO.N,Net-(D5-Pad2)*%
X182973678Y-51399472D02*
X183863850Y-50789645D01*
X191803284Y-81464270D02*
X194343284Y-81667470D01*
X188247284Y-79025870D02*
X191803284Y-81464270D01*
X194343284Y-81667470D02*
X195434804Y-80282482D01*
D59*
%TO.N,VLIPO*%
X210464400Y-61163200D02*
X203606400Y-61010800D01*
X193395670Y-50132497D02*
X192735200Y-47498000D01*
D62*
X213382275Y-66113075D02*
X212598000Y-65582800D01*
D61*
X197612000Y-52374800D02*
X196089046Y-53542154D01*
D59*
X197916800Y-55778400D02*
X196089046Y-53542154D01*
X212598000Y-65582800D02*
X212039200Y-62788800D01*
D62*
X192769697Y-50318749D02*
X194314977Y-49858951D01*
D59*
X212039200Y-62788800D02*
X210464400Y-61163200D01*
X203606400Y-61010800D02*
X197916800Y-55778400D01*
D63*
X213260157Y-66295838D02*
X213382275Y-66113075D01*
X213382275Y-66113075D02*
X213537939Y-65880106D01*
D61*
%TO.N,Net-(D5-Pad4)*%
X189517284Y-77908270D02*
X190736484Y-77959070D01*
X184589684Y-74199870D02*
X189517284Y-77908270D01*
X190736484Y-77959070D02*
X191370804Y-77183682D01*
X182401620Y-52688016D02*
X181523301Y-53316507D01*
%TO.N,/CC2*%
X201523602Y-51866798D02*
X200507600Y-52882800D01*
X201523602Y-50611199D02*
X201523602Y-51866798D01*
X200507600Y-52882800D02*
X200507600Y-53441600D01*
%TO.N,/CC1*%
X204774800Y-53848000D02*
X205130400Y-53848000D01*
X204571599Y-50645299D02*
X204571599Y-53644799D01*
X204571599Y-53644799D02*
X204774800Y-53848000D01*
%TO.N,/D+*%
X202555602Y-51717200D02*
X202555602Y-53344198D01*
X203555599Y-50805200D02*
X203555601Y-51709200D01*
X202555601Y-50805200D02*
X202555602Y-51717200D01*
X203555601Y-51709200D02*
X203305599Y-51959199D01*
X202797600Y-51959200D02*
X202555602Y-51717200D01*
X203305599Y-51959199D02*
X202797600Y-51959200D01*
%TO.N,/VUSB*%
X204927200Y-48818800D02*
X201676000Y-48818800D01*
X205701598Y-50202798D02*
X205333600Y-49834800D01*
X201218800Y-49885600D02*
X201218800Y-49326800D01*
D65*
X207467200Y-53543200D02*
X207467200Y-54051200D01*
D61*
X201218800Y-49326800D02*
X201676000Y-48818800D01*
D65*
X205701598Y-51752802D02*
X205689200Y-51765200D01*
D61*
X200901591Y-50202809D02*
X200901591Y-50738198D01*
X201218800Y-49885600D02*
X200901591Y-50202809D01*
D65*
X205689200Y-51765200D02*
X207467200Y-53543200D01*
D61*
X205333600Y-49834800D02*
X205333600Y-49377600D01*
X205701598Y-50738198D02*
X205701598Y-50202798D01*
D65*
X205701598Y-50738198D02*
X205701598Y-51752802D01*
D61*
X205333600Y-49377600D02*
X204927200Y-48818800D01*
%TO.N,/D-*%
X204063600Y-49885600D02*
X204063591Y-50878606D01*
X203766795Y-54754407D02*
X202539598Y-55981602D01*
X203766798Y-53197852D02*
X203766795Y-54754407D01*
X203051598Y-49881602D02*
X203174599Y-49758601D01*
X204051598Y-50890602D02*
X204051599Y-52913057D01*
X203936598Y-49758595D02*
X204063600Y-49885600D01*
X203051598Y-50890602D02*
X203051598Y-49881602D01*
X203174599Y-49758601D02*
X203936598Y-49758595D01*
X204051599Y-52913057D02*
X203766798Y-53197852D01*
%TO.N,/THERM*%
X214223600Y-64871600D02*
X213815721Y-65464375D01*
X210616800Y-59486800D02*
X213614000Y-62484000D01*
X213766400Y-63093600D02*
X214223600Y-64871600D01*
X213614000Y-62484000D02*
X213766400Y-63093600D01*
X210616800Y-59436000D02*
X210616800Y-59486800D01*
%TO.N,/PA12*%
X201709284Y-92792670D02*
X199275231Y-96340917D01*
X201020365Y-90601898D02*
X201709284Y-92792670D01*
X195829235Y-86690102D02*
X201020365Y-90601898D01*
%TO.N,/PA1*%
X194521764Y-77210458D02*
X196433331Y-74976490D01*
%TO.N,/PA0*%
X192540564Y-75686458D02*
X194416136Y-73432929D01*
%TO.N,/PA3*%
X196604564Y-78785258D02*
X198450516Y-76520042D01*
D62*
%TO.N,+3V3*%
X191160400Y-59586809D02*
X192353404Y-58393804D01*
X190094458Y-60654342D02*
X191160400Y-59588400D01*
D61*
X191160400Y-57150000D02*
X192353404Y-58393804D01*
D62*
X193835299Y-56911910D02*
X193835299Y-56810310D01*
X191160400Y-59588400D02*
X191160400Y-59586809D01*
X192353404Y-58393804D02*
X193835299Y-56911910D01*
X193835299Y-56810310D02*
X195238937Y-58055844D01*
D61*
%TO.N,Net-(U3-CT)*%
X218777856Y-80020792D02*
X219506800Y-80619600D01*
X219506800Y-80619600D02*
X220472000Y-81127600D01*
D59*
%TO.N,VLOAD*%
X219978711Y-78548396D02*
X221414636Y-79717070D01*
X221414636Y-79717070D02*
X222951054Y-80811557D01*
X222951054Y-80811557D02*
X224129600Y-81737200D01*
D66*
X219378282Y-79284592D02*
X219978711Y-78548396D01*
D61*
%TO.N,/PA8*%
X216091482Y-77837318D02*
X213587633Y-76001020D01*
X216832745Y-78434396D02*
X216091482Y-77837318D01*
%TD*%
M02*
