%TF.GenerationSoftware,KiCad,Pcbnew,8.0.1*%
%TF.CreationDate,2025-11-28T14:34:22-07:00*%
%TF.ProjectId,F-UVC-Solar-WB_RevA1.1_PCB,462d5556-432d-4536-9f6c-61722d57425f,rev?*%
%TF.SameCoordinates,Original*%
%TF.FileFunction,Soldermask,Top*%
%TF.FilePolarity,Negative*%
%FSLAX46Y46*%
G04 Gerber Fmt 4.6, Leading zero omitted, Abs format (unit mm)*
G04 Created by KiCad (PCBNEW 8.0.1) date 2025-11-28 14:34:22*
%MOMM*%
%LPD*%
G01*
G04 APERTURE LIST*
G04 Aperture macros list*
%AMRoundRect*
0 Rectangle with rounded corners*
0 $1 Rounding radius*
0 $2 $3 $4 $5 $6 $7 $8 $9 X,Y pos of 4 corners*
0 Add a 4 corners polygon primitive as box body*
4,1,4,$2,$3,$4,$5,$6,$7,$8,$9,$2,$3,0*
0 Add four circle primitives for the rounded corners*
1,1,$1+$1,$2,$3*
1,1,$1+$1,$4,$5*
1,1,$1+$1,$6,$7*
1,1,$1+$1,$8,$9*
0 Add four rect primitives between the rounded corners*
20,1,$1+$1,$2,$3,$4,$5,0*
20,1,$1+$1,$4,$5,$6,$7,0*
20,1,$1+$1,$6,$7,$8,$9,0*
20,1,$1+$1,$8,$9,$2,$3,0*%
%AMHorizOval*
0 Thick line with rounded ends*
0 $1 width*
0 $2 $3 position (X,Y) of the first rounded end (center of the circle)*
0 $4 $5 position (X,Y) of the second rounded end (center of the circle)*
0 Add line between two ends*
20,1,$1,$2,$3,$4,$5,0*
0 Add two circle primitives to create the rounded ends*
1,1,$1,$2,$3*
1,1,$1,$4,$5*%
%AMRotRect*
0 Rectangle, with rotation*
0 The origin of the aperture is its center*
0 $1 length*
0 $2 width*
0 $3 Rotation angle, in degrees counterclockwise*
0 Add horizontal line*
21,1,$1,$2,0,0,$3*%
G04 Aperture macros list end*
%ADD10C,0.000000*%
%ADD11C,2.100000*%
%ADD12RoundRect,0.102000X-0.816153X0.444966X-0.574839X-0.730521X0.816153X-0.444966X0.574839X0.730521X0*%
%ADD13RoundRect,0.101600X-0.230229X1.004736X-1.030589X-0.019678X0.230229X-1.004736X1.030589X0.019678X0*%
%ADD14RoundRect,0.050800X-1.079500X0.889000X-1.079500X-0.889000X1.079500X-0.889000X1.079500X0.889000X0*%
%ADD15RoundRect,0.050800X1.079500X-0.889000X1.079500X0.889000X-1.079500X0.889000X-1.079500X-0.889000X0*%
%ADD16C,1.712000*%
%ADD17RoundRect,0.102000X-1.055940X-0.148403X0.148403X-1.055940X1.055940X0.148403X-0.148403X1.055940X0*%
%ADD18RoundRect,0.050800X-1.040280X-0.206925X0.206925X-1.040280X1.040280X0.206925X-0.206925X1.040280X0*%
%ADD19C,2.082800*%
%ADD20RoundRect,0.140500X0.679009X0.375582X-0.064277X0.773294X-0.679009X-0.375582X0.064277X-0.773294X0*%
%ADD21RotRect,0.855600X1.250000X232.401000*%
%ADD22C,1.879600*%
%ADD23RotRect,0.855600X1.250000X56.000000*%
%ADD24RoundRect,0.102000X0.175796X0.362761X-0.401783X-0.032716X-0.175796X-0.362761X0.401783X0.032716X0*%
%ADD25RoundRect,0.098000X-0.657758X0.157072X0.286125X-0.612740X0.657758X-0.157072X-0.286125X0.612740X0*%
%ADD26RotRect,1.305598X1.449997X229.600000*%
%ADD27RotRect,0.855600X1.250000X93.599000*%
%ADD28RotRect,1.005599X1.199998X231.201000*%
%ADD29RotRect,0.855600X1.250000X61.850000*%
%ADD30RoundRect,0.736600X0.000010X0.000010X-0.000010X0.000010X-0.000010X-0.000010X0.000010X-0.000010X0*%
%ADD31C,0.650000*%
%ADD32RoundRect,0.050800X0.287500X0.559998X-0.287500X0.559998X-0.287500X-0.559998X0.287500X-0.559998X0*%
%ADD33RoundRect,0.050800X0.287500X0.559999X-0.287500X0.559999X-0.287500X-0.559999X0.287500X-0.559999X0*%
%ADD34RoundRect,0.050800X0.137500X0.575000X-0.137500X0.575000X-0.137500X-0.575000X0.137500X-0.575000X0*%
%ADD35RoundRect,0.050800X0.287500X0.560002X-0.287500X0.560002X-0.287500X-0.560002X0.287500X-0.560002X0*%
%ADD36O,1.101600X2.101600*%
%ADD37RoundRect,0.156750X0.768566X0.184345X0.048112X0.788900X-0.768566X-0.184345X-0.048112X-0.788900X0*%
%ADD38RotRect,0.609600X1.320800X141.200000*%
%ADD39RoundRect,0.736600X0.000007X0.000012X-0.000012X0.000007X-0.000007X-0.000012X0.000012X-0.000007X0*%
%ADD40RotRect,0.855600X1.250000X231.201000*%
%ADD41C,1.600000*%
%ADD42C,1.800000*%
%ADD43RoundRect,0.050800X-0.315578X1.529840X-1.447853X-0.586277X0.315578X-1.529840X1.447853X0.586277X0*%
%ADD44RotRect,0.855600X1.250000X51.600000*%
%ADD45RoundRect,0.102000X-0.538587X-0.655686X0.655686X-0.538587X0.538587X0.655686X-0.655686X0.538587X0*%
%ADD46RotRect,0.855600X1.250000X196.400000*%
%ADD47HorizOval,1.778000X0.697141X0.465375X-0.697141X-0.465375X0*%
%ADD48R,1.250000X0.855600*%
%ADD49RoundRect,0.102000X-0.893337X-0.257001X0.104427X-0.923686X0.893337X0.257001X-0.104427X0.923686X0*%
%ADD50RotRect,0.855600X1.250000X17.199000*%
%ADD51RoundRect,0.050800X-0.532398X1.293133X-1.371226X-0.274557X0.532398X-1.293133X1.371226X0.274557X0*%
%ADD52RoundRect,0.050800X0.532398X-1.293133X1.371226X0.274557X-0.532398X1.293133X-1.371226X-0.274557X0*%
%ADD53R,1.346200X0.812800*%
%ADD54C,1.500000*%
%ADD55RotRect,1.500000X1.500000X232.577000*%
%ADD56C,1.650000*%
%ADD57RotRect,1.500000X1.500000X142.577000*%
G04 APERTURE END LIST*
D10*
%TO.C,U2*%
G36*
X213445440Y-66810517D02*
G01*
X213250992Y-67101535D01*
X212519297Y-66612639D01*
X212713740Y-66321612D01*
X213445440Y-66810517D01*
G37*
G36*
X213723227Y-66394785D02*
G01*
X213528777Y-66685798D01*
X212797085Y-66196893D01*
X212991528Y-65905880D01*
X213723227Y-66394785D01*
G37*
G36*
X214001009Y-65979039D02*
G01*
X213806550Y-66270060D01*
X213074870Y-65781160D01*
X213269319Y-65490143D01*
X214001009Y-65979039D01*
G37*
G36*
X213579252Y-67483236D02*
G01*
X213090346Y-68214931D01*
X212799335Y-68020480D01*
X213288234Y-67288788D01*
X213579252Y-67483236D01*
G37*
G36*
X214278787Y-65563313D02*
G01*
X214084339Y-65854331D01*
X213352644Y-65365425D01*
X213547095Y-65074414D01*
X214278787Y-65563313D01*
G37*
G36*
X213994981Y-67761025D02*
G01*
X213506081Y-68492705D01*
X213215064Y-68298256D01*
X213703960Y-67566566D01*
X213994981Y-67761025D01*
G37*
G36*
X214410719Y-68038798D02*
G01*
X213921814Y-68770490D01*
X213630801Y-68576047D01*
X214119706Y-67844348D01*
X214410719Y-68038798D01*
G37*
G36*
X214826456Y-68316583D02*
G01*
X214337560Y-69048278D01*
X214046533Y-68853835D01*
X214535438Y-68122135D01*
X214826456Y-68316583D01*
G37*
G36*
X215245963Y-64988819D02*
G01*
X214757058Y-65720519D01*
X214466040Y-65526071D01*
X214954936Y-64794376D01*
X215245963Y-64988819D01*
G37*
G36*
X215661695Y-65266607D02*
G01*
X215172790Y-65998306D01*
X214881777Y-65803856D01*
X215370682Y-65072164D01*
X215661695Y-65266607D01*
G37*
G36*
X216077432Y-65544398D02*
G01*
X215588536Y-66276088D01*
X215297515Y-66081629D01*
X215786415Y-65349949D01*
X216077432Y-65544398D01*
G37*
G36*
X215939852Y-68477229D02*
G01*
X215745401Y-68768240D01*
X215013709Y-68279341D01*
X215208157Y-67988323D01*
X215939852Y-68477229D01*
G37*
G36*
X216493161Y-65822174D02*
G01*
X216004262Y-66553866D01*
X215713244Y-66359418D01*
X216202150Y-65627723D01*
X216493161Y-65822174D01*
G37*
G36*
X216217626Y-68061494D02*
G01*
X216023177Y-68352511D01*
X215291487Y-67863615D01*
X215485946Y-67572594D01*
X216217626Y-68061494D01*
G37*
G36*
X216495411Y-67645761D02*
G01*
X216300968Y-67936774D01*
X215569269Y-67447869D01*
X215763719Y-67156856D01*
X216495411Y-67645761D01*
G37*
G36*
X216773199Y-67230015D02*
G01*
X216578756Y-67521042D01*
X215847056Y-67032137D01*
X216041504Y-66741119D01*
X216773199Y-67230015D01*
G37*
%TD*%
D11*
%TO.C,H4*%
X170840400Y-98044000D03*
%TD*%
%TO.C,H1*%
X235661200Y-98755200D03*
%TD*%
%TO.C,H3*%
X202742800Y-119481600D03*
%TD*%
%TO.C,H2*%
X175818800Y-59944000D03*
%TD*%
D12*
%TO.C,R9*%
X210601286Y-64256858D03*
X210937114Y-65892742D03*
%TD*%
D13*
%TO.C,R15*%
X196604562Y-78785260D03*
X195434806Y-80282480D03*
%TD*%
D14*
%TO.C,D2*%
X207467200Y-54051200D03*
D15*
X207467200Y-58115202D03*
%TD*%
D16*
%TO.C,SW2*%
X201020365Y-90601898D03*
X195829235Y-86690102D03*
X203728533Y-87008038D03*
D17*
X198537403Y-83096242D03*
%TD*%
D18*
%TO.C,U2*%
X214646248Y-66921327D03*
%TD*%
D19*
%TO.C,-UVC1*%
X239674400Y-85859320D03*
%TD*%
D20*
%TO.C,R7*%
X222380839Y-68776552D03*
X220696761Y-67875448D03*
%TD*%
D21*
%TO.C,C9*%
X195485679Y-61901306D03*
X194353521Y-63371494D03*
%TD*%
D22*
%TO.C,JP1*%
X202539600Y-53340000D03*
X202539600Y-55880000D03*
%TD*%
D13*
%TO.C,R14*%
X193352006Y-78707680D03*
X194521762Y-77210460D03*
%TD*%
D23*
%TO.C,C3*%
X217300762Y-68340362D03*
X218338400Y-66802000D03*
%TD*%
D24*
%TO.C,D5*%
X183391755Y-52010054D03*
X182973678Y-51399472D03*
X181983543Y-52077434D03*
X182401620Y-52688016D03*
%TD*%
D19*
%TO.C,+BATT1*%
X192735200Y-47498000D03*
%TD*%
D25*
%TO.C,U3*%
X218033600Y-76962000D03*
X217433174Y-77698200D03*
X216832745Y-78434396D03*
X218777856Y-80020792D03*
X219378282Y-79284592D03*
X219978711Y-78548396D03*
%TD*%
D13*
%TO.C,R13*%
X191370806Y-77183680D03*
X192540562Y-75686460D03*
%TD*%
D26*
%TO.C,C11*%
X220472000Y-81127599D03*
X219431380Y-82350327D03*
%TD*%
D27*
%TO.C,C7*%
X234953100Y-71730190D03*
X234836618Y-69878250D03*
%TD*%
D28*
%TO.C,R3*%
X214656355Y-74671771D03*
X213587645Y-76001029D03*
%TD*%
D27*
%TO.C,C5*%
X232875366Y-71875486D03*
X232758884Y-70023546D03*
%TD*%
D29*
%TO.C,C1*%
X218307081Y-63606856D03*
X219182519Y-61970744D03*
%TD*%
D30*
%TO.C,TP3*%
X191160400Y-57150000D03*
%TD*%
D31*
%TO.C,X2*%
X206191603Y-49663197D03*
X200411596Y-49663197D03*
D32*
X206501599Y-50753198D03*
D33*
X205701598Y-50753199D03*
D34*
X204551598Y-50738194D03*
X203551597Y-50738194D03*
X203051606Y-50738200D03*
X202051606Y-50738201D03*
D35*
X200101603Y-50753202D03*
D33*
X200901591Y-50753199D03*
D34*
X201551596Y-50738201D03*
X202551599Y-50738193D03*
X204051602Y-50738193D03*
X205051591Y-50738202D03*
D36*
X207621599Y-50163196D03*
X198981603Y-50163199D03*
X207621597Y-45983201D03*
X198981600Y-45983201D03*
%TD*%
D37*
%TO.C,C10*%
X218561438Y-75399207D03*
X217200962Y-74257593D03*
%TD*%
D38*
%TO.C,U1*%
X196719678Y-59246390D03*
X195238937Y-58055844D03*
X194707051Y-60233485D03*
%TD*%
D19*
%TO.C,+UVC1*%
X239834257Y-82133986D03*
%TD*%
D39*
%TO.C,TP1*%
X233591928Y-76214178D03*
%TD*%
D40*
%TO.C,C12*%
X222707186Y-78130390D03*
X221544486Y-79576550D03*
%TD*%
D41*
%TO.C,X1*%
X220100195Y-50631001D03*
D42*
X217977177Y-54598722D03*
D43*
X224949630Y-53225801D03*
X222024593Y-58692431D03*
X215250760Y-48036201D03*
X212325712Y-53502838D03*
%TD*%
D44*
%TO.C,C4*%
X193835299Y-56810309D03*
X194987901Y-55356091D03*
%TD*%
D45*
%TO.C,D4*%
X240494378Y-76198276D03*
X238404400Y-76403200D03*
%TD*%
%TO.C,D3*%
X240669000Y-77977097D03*
X238579022Y-78182021D03*
%TD*%
D46*
%TO.C,C6*%
X192769696Y-50318749D03*
X190989594Y-50842661D03*
%TD*%
D47*
%TO.C,JP3*%
X233233919Y-64216822D03*
%TD*%
%TO.C,JP2*%
X231104419Y-60935285D03*
%TD*%
D40*
%TO.C,C13*%
X224180386Y-79298790D03*
X223017686Y-80744950D03*
%TD*%
D48*
%TO.C,C2*%
X204774800Y-58853200D03*
X204774800Y-56997600D03*
%TD*%
D30*
%TO.C,TP2*%
X197612000Y-52374800D03*
%TD*%
D49*
%TO.C,R8*%
X213732523Y-60902499D03*
X215121077Y-61830301D03*
%TD*%
D19*
%TO.C,-BATT1*%
X189613503Y-48621136D03*
%TD*%
D50*
%TO.C,C8*%
X194314977Y-49858951D03*
X196087601Y-49310267D03*
%TD*%
D51*
%TO.C,D1*%
X223863069Y-61871951D03*
D52*
X221945746Y-65455238D03*
%TD*%
D53*
%TO.C,R2*%
X204774800Y-55651400D03*
X204774800Y-53848000D03*
%TD*%
D39*
%TO.C,TP4*%
X234391200Y-84378800D03*
%TD*%
D53*
%TO.C,R1*%
X200507600Y-55245000D03*
X200507600Y-53441600D03*
%TD*%
D19*
%TO.C,-SYS1*%
X237439200Y-69799200D03*
%TD*%
%TO.C,+SYS1*%
X238251667Y-72789594D03*
%TD*%
D54*
%TO.C,J1*%
X217493217Y-93682017D03*
X219510413Y-95225545D03*
D55*
X219036767Y-91664819D03*
D54*
X221053964Y-93208367D03*
X223071146Y-94751917D03*
X188364556Y-68802297D03*
X190381742Y-70345852D03*
X192398945Y-71889393D03*
X194416136Y-73432929D03*
X196433331Y-74976490D03*
X198450516Y-76520042D03*
X200467719Y-78063566D03*
X202484903Y-79607117D03*
X204502102Y-81150663D03*
X206519295Y-82694204D03*
X208536504Y-84237744D03*
X210553684Y-85781298D03*
X212570884Y-87324832D03*
D56*
X214588073Y-88868384D03*
D57*
X216605266Y-90411945D03*
D54*
X179103284Y-80905470D03*
X181120484Y-82449017D03*
X183137674Y-83992569D03*
X185154870Y-85536099D03*
X187172061Y-87079656D03*
X189189254Y-88623197D03*
X191206454Y-90166741D03*
X193223639Y-91710277D03*
X195240834Y-93253820D03*
X197258010Y-94797379D03*
X199275231Y-96340917D03*
X201292414Y-97884455D03*
X203309610Y-99428015D03*
X205326792Y-100971555D03*
D57*
X207344000Y-102515095D03*
%TD*%
M02*
