%TF.GenerationSoftware,KiCad,Pcbnew,8.0.1*%
%TF.CreationDate,2025-11-28T14:34:22-07:00*%
%TF.ProjectId,F-UVC-Solar-WB_RevA1.1_PCB,462d5556-432d-4536-9f6c-61722d57425f,rev?*%
%TF.SameCoordinates,Original*%
%TF.FileFunction,Soldermask,Bot*%
%TF.FilePolarity,Negative*%
%FSLAX46Y46*%
G04 Gerber Fmt 4.6, Leading zero omitted, Abs format (unit mm)*
G04 Created by KiCad (PCBNEW 8.0.1) date 2025-11-28 14:34:22*
%MOMM*%
%LPD*%
G01*
G04 APERTURE LIST*
G04 Aperture macros list*
%AMRoundRect*
0 Rectangle with rounded corners*
0 $1 Rounding radius*
0 $2 $3 $4 $5 $6 $7 $8 $9 X,Y pos of 4 corners*
0 Add a 4 corners polygon primitive as box body*
4,1,4,$2,$3,$4,$5,$6,$7,$8,$9,$2,$3,0*
0 Add four circle primitives for the rounded corners*
1,1,$1+$1,$2,$3*
1,1,$1+$1,$4,$5*
1,1,$1+$1,$6,$7*
1,1,$1+$1,$8,$9*
0 Add four rect primitives between the rounded corners*
20,1,$1+$1,$2,$3,$4,$5,0*
20,1,$1+$1,$4,$5,$6,$7,0*
20,1,$1+$1,$6,$7,$8,$9,0*
20,1,$1+$1,$8,$9,$2,$3,0*%
%AMHorizOval*
0 Thick line with rounded ends*
0 $1 width*
0 $2 $3 position (X,Y) of the first rounded end (center of the circle)*
0 $4 $5 position (X,Y) of the second rounded end (center of the circle)*
0 Add line between two ends*
20,1,$1,$2,$3,$4,$5,0*
0 Add two circle primitives to create the rounded ends*
1,1,$1,$2,$3*
1,1,$1,$4,$5*%
%AMRotRect*
0 Rectangle, with rotation*
0 The origin of the aperture is its center*
0 $1 length*
0 $2 width*
0 $3 Rotation angle, in degrees counterclockwise*
0 Add horizontal line*
21,1,$1,$2,0,0,$3*%
G04 Aperture macros list end*
%ADD10C,0.000000*%
%ADD11C,2.100000*%
%ADD12C,1.712000*%
%ADD13RoundRect,0.102000X-1.055940X-0.148403X0.148403X-1.055940X1.055940X0.148403X-0.148403X1.055940X0*%
%ADD14C,2.082800*%
%ADD15C,1.879600*%
%ADD16C,0.650000*%
%ADD17O,1.101600X2.101600*%
%ADD18C,1.600000*%
%ADD19C,1.800000*%
%ADD20HorizOval,1.778000X0.697141X0.465375X-0.697141X-0.465375X0*%
%ADD21RoundRect,0.102000X-0.253101X0.894450X-0.924132X-0.100396X0.253101X-0.894450X0.924132X0.100396X0*%
%ADD22RoundRect,0.050800X0.117116X-0.724700X0.714354X0.169130X-0.117116X0.724700X-0.714354X-0.169130X0*%
%ADD23RoundRect,0.140500X0.307530X-0.712418X0.775875X-0.011490X-0.307530X0.712418X-0.775875X0.011490X0*%
%ADD24RoundRect,0.102000X0.892661X0.259339X-0.106845X0.923409X-0.892661X-0.259339X0.106845X-0.923409X0*%
%ADD25RotRect,1.854200X0.762000X142.399000*%
%ADD26RoundRect,0.102000X0.318152X-0.765819X0.829276X-0.000867X-0.318152X0.765819X-0.829276X0.000867X0*%
%ADD27C,1.500000*%
%ADD28RotRect,1.500000X1.500000X232.577000*%
%ADD29C,1.650000*%
%ADD30RotRect,1.500000X1.500000X142.577000*%
G04 APERTURE END LIST*
D10*
%TO.C,UNK1A1*%
G36*
X210591301Y-64893083D02*
G01*
X209028916Y-67209415D01*
X207554887Y-66215171D01*
X209117272Y-63898839D01*
X210591301Y-64893083D01*
G37*
%TO.C,UNK0.5A1*%
G36*
X208706140Y-63326072D02*
G01*
X207106708Y-65770260D01*
X205725210Y-64866234D01*
X207324642Y-62422046D01*
X208706140Y-63326072D01*
G37*
%TO.C,SJ1*%
G36*
X203033836Y-63102164D02*
G01*
X202091640Y-64609992D01*
X198559012Y-62402560D01*
X199501208Y-60894732D01*
X203033836Y-63102164D01*
G37*
%TO.C,THERM1*%
G36*
X209553287Y-59558219D02*
G01*
X207958716Y-61852511D01*
X206498713Y-60837781D01*
X208093284Y-58543489D01*
X209553287Y-59558219D01*
G37*
%TO.C,SJ2*%
G36*
X204193670Y-61150176D02*
G01*
X203251474Y-62658004D01*
X199718846Y-60450572D01*
X200661042Y-58942744D01*
X204193670Y-61150176D01*
G37*
%TO.C,UNK1.5A1*%
G36*
X212553568Y-66061984D02*
G01*
X210988418Y-68528266D01*
X209594432Y-67643616D01*
X211159582Y-65177334D01*
X212553568Y-66061984D01*
G37*
%TD*%
D11*
%TO.C,H4*%
X170840400Y-98044000D03*
%TD*%
%TO.C,H1*%
X235661200Y-98755200D03*
%TD*%
%TO.C,H3*%
X202742800Y-119481600D03*
%TD*%
%TO.C,H2*%
X175818800Y-59944000D03*
%TD*%
D12*
%TO.C,SW2*%
X201020365Y-90601898D03*
X195829235Y-86690102D03*
X203728533Y-87008038D03*
D13*
X198537403Y-83096242D03*
%TD*%
D14*
%TO.C,-UVC1*%
X239674400Y-85859320D03*
%TD*%
D15*
%TO.C,JP1*%
X202539600Y-53340000D03*
X202539600Y-55880000D03*
%TD*%
D14*
%TO.C,+BATT1*%
X192735200Y-47498000D03*
%TD*%
D16*
%TO.C,X2*%
X206191603Y-49663197D03*
X200411596Y-49663197D03*
D17*
X207621599Y-50163196D03*
X198981603Y-50163199D03*
X207621597Y-45983201D03*
X198981600Y-45983201D03*
%TD*%
D14*
%TO.C,+UVC1*%
X239834257Y-82133986D03*
%TD*%
D18*
%TO.C,X1*%
X220100195Y-50631001D03*
D19*
X217977177Y-54598722D03*
%TD*%
D20*
%TO.C,JP3*%
X233233919Y-64216822D03*
%TD*%
%TO.C,JP2*%
X231104419Y-60935285D03*
%TD*%
D14*
%TO.C,-BATT1*%
X189613503Y-48621136D03*
%TD*%
D21*
%TO.C,R12*%
X206724651Y-58254707D03*
X205790799Y-59639199D03*
%TD*%
D22*
%TO.C,R6*%
X209265930Y-62225549D03*
X210210400Y-60812051D03*
%TD*%
D14*
%TO.C,-SYS1*%
X237439200Y-69799200D03*
%TD*%
D23*
%TO.C,R5*%
X210645030Y-63430454D03*
X211706170Y-61842346D03*
%TD*%
D24*
%TO.C,R10*%
X218322689Y-71886882D03*
X216931711Y-70962718D03*
%TD*%
D25*
%TO.C,SW1*%
X192473166Y-110059412D03*
X180398834Y-100760588D03*
%TD*%
D24*
%TO.C,R11*%
X219999089Y-70413682D03*
X218608111Y-69489518D03*
%TD*%
D14*
%TO.C,+SYS1*%
X238251667Y-72789594D03*
%TD*%
D26*
%TO.C,R4*%
X212372230Y-64598854D03*
X213433370Y-63010746D03*
%TD*%
D27*
%TO.C,J1*%
X217493217Y-93682017D03*
X219510413Y-95225545D03*
D28*
X219036767Y-91664819D03*
D27*
X221053964Y-93208367D03*
X223071146Y-94751917D03*
X188364556Y-68802297D03*
X190381742Y-70345852D03*
X192398945Y-71889393D03*
X194416136Y-73432929D03*
X196433331Y-74976490D03*
X198450516Y-76520042D03*
X200467719Y-78063566D03*
X202484903Y-79607117D03*
X204502102Y-81150663D03*
X206519295Y-82694204D03*
X208536504Y-84237744D03*
X210553684Y-85781298D03*
X212570884Y-87324832D03*
D29*
X214588073Y-88868384D03*
D30*
X216605266Y-90411945D03*
D27*
X179103284Y-80905470D03*
X181120484Y-82449017D03*
X183137674Y-83992569D03*
X185154870Y-85536099D03*
X187172061Y-87079656D03*
X189189254Y-88623197D03*
X191206454Y-90166741D03*
X193223639Y-91710277D03*
X195240834Y-93253820D03*
X197258010Y-94797379D03*
X199275231Y-96340917D03*
X201292414Y-97884455D03*
X203309610Y-99428015D03*
X205326792Y-100971555D03*
D30*
X207344000Y-102515095D03*
%TD*%
M02*
